<svg width="55" height="60" viewBox="0 0 55 60" fill="none" xmlns="http://www.w3.org/2000/svg">
<path fill-rule="evenodd" clip-rule="evenodd" d="M27.2059 60V59.9985C41.9111 56.2911 50.1242 44.0171 52.1289 23.649C52.5223 19.6515 52.6759 15.3425 52.5936 10.7245C49.0954 8.31316 46.5403 5.0635 45.0085 1.35839C39.9796 0.452991 33.5901 0 27.202 0C20.8135 0 14.4251 0.452991 9.39755 1.35839C7.86593 5.0635 5.31094 8.31316 1.81271 10.7245C1.739 14.8352 1.853 18.7022 2.15671 22.322C3.93141 43.4842 12.1785 56.2109 27.2002 59.9977V59.9992C27.202 59.9992 27.2026 59.9985 27.2044 59.9985C27.2059 59.9985 27.2067 59.9992 27.2082 59.9992L27.2059 60ZM9.99749 2.06404C15.611 1.14942 21.4086 0.692683 27.2059 0.692683C33.0032 0.692683 38.8016 1.14942 44.4152 2.06404C46.1087 5.97544 48.9392 8.74979 51.9305 11.3619C51.9628 16.1336 51.7491 20.5944 51.277 24.7262C49.1196 43.5879 41.555 55.5864 27.21 58.9828C27.21 58.9834 27.21 58.9843 27.21 58.9843C27.2082 58.9834 27.2076 58.9834 27.2059 58.9834C27.2044 58.9834 27.2034 58.9843 27.202 58.9843C27.202 58.9834 27.202 58.9828 27.202 58.9828C12.8577 55.5864 5.29213 43.5879 3.13476 24.7262C2.66192 20.5944 2.44897 16.1336 2.48145 11.3621C5.47354 8.7498 8.30292 5.97462 9.99655 2.06404H9.99749Z" fill="#003087"/>
<path fill-rule="evenodd" clip-rule="evenodd" d="M10.9663 3.28308C16.1671 2.41378 21.6859 1.979 27.2057 1.979C32.7253 1.979 38.2444 2.41378 43.445 3.28308C45.5159 6.9014 47.9472 9.71769 50.8793 12.258C50.8494 16.5791 50.626 20.7223 50.1581 24.6346C48.1763 41.2097 41.8096 53.6504 27.2089 58.0189C27.2089 58.0196 27.2089 58.0204 27.2089 58.0213C27.2072 58.0204 27.2066 58.0204 27.2049 58.0204C27.2033 58.0213 27.2024 58.0213 27.201 58.0213C27.201 58.0204 27.201 58.0196 27.201 58.0189C12.5377 53.6319 6.17934 41.1028 4.22662 24.4217C3.77561 20.5717 3.56022 16.5013 3.53125 12.258C6.46424 9.71769 8.89459 6.9014 10.9655 3.28308H10.9663ZM11.6942 4.01279C16.7419 3.19477 21.9749 2.78477 27.2072 2.78477C32.4396 2.78477 37.6719 3.19395 42.7181 4.01279C45.2568 8.06927 47.7489 10.7642 50.0715 12.6645C50.0916 16.857 49.8762 20.8672 49.4115 24.6459C47.3465 41.4389 40.3549 53.6829 27.2096 57.2129C27.2096 57.2138 27.2096 57.2144 27.2096 57.2154C27.2089 57.2154 27.2072 57.2144 27.2057 57.2144C27.2039 57.2153 27.2033 57.2154 27.2016 57.2154C27.2016 57.2144 27.2016 57.2138 27.2016 57.2129C14.2436 53.733 7.26486 41.7855 5.09043 25.3595C4.56269 21.3728 4.3182 17.122 4.33993 12.6645C6.66352 10.7642 9.15438 8.06927 11.6934 4.01279H11.6942Z" fill="#003087"/>
<path fill-rule="evenodd" clip-rule="evenodd" d="M27.2101 53.0898C27.2101 53.089 27.2101 53.0881 27.2101 53.0875C37.0443 49.5064 43.2624 42.1581 45.2143 29.8468C45.8118 26.0779 46.0095 21.8441 45.7892 17.1105C43.0957 15.4192 41.3713 13.1415 39.9709 10.1574C37.2602 9.43486 32.2304 9.07438 27.2015 9.0752C22.1722 9.07613 17.1456 9.43638 14.4415 10.1574C13.041 13.1423 11.3166 15.4192 8.62303 17.1105C8.40202 21.8441 8.59955 26.0779 9.19715 29.8468C11.1489 42.1581 17.3681 49.5064 27.2015 53.0875C27.2015 53.0881 27.2015 53.089 27.2015 53.0898C27.2029 53.089 27.2038 53.089 27.2053 53.0881C27.2071 53.089 27.2077 53.089 27.2094 53.0898H27.2101ZM27.2101 52.3422C27.2094 52.3413 27.2077 52.3413 27.2062 52.3405C27.2044 52.3413 27.2038 52.3413 27.2021 52.3422C27.2021 52.3413 27.2021 52.3405 27.2021 52.339C18.0125 48.7968 11.783 41.8 9.91518 29.7116C9.36781 26.1703 9.19458 22.1923 9.43194 17.7365C11.9707 15.7156 13.7615 13.4516 15.0074 10.7834C18.4766 10.1388 22.8448 9.82046 27.2119 9.82291C31.5786 9.82443 35.9431 10.1468 39.4048 10.7834C40.6507 13.4516 42.4424 15.7156 44.9805 17.7365C45.2169 22.1923 45.0444 26.1703 44.4972 29.7116C42.6294 41.8 36.3997 48.7976 27.2101 52.339C27.2101 52.3398 27.2101 52.3413 27.2101 52.3422Z" fill="#003087"/>
<path fill-rule="evenodd" clip-rule="evenodd" d="M6.38523 35.5296C4.35635 29.8611 1.7989 19.0071 9.40255 8.26416C3.48062 16.1309 2.16078 24.8975 6.09297 36.0092C10.4793 48.4046 18.8713 57.8799 36.4093 59.1735C36.4255 58.8106 36.4416 58.4468 36.4595 58.0841C19.3692 57.0172 11.8678 49.6657 6.38604 35.5296H6.38523Z" fill="#003087"/>
<path fill-rule="evenodd" clip-rule="evenodd" d="M48.0098 35.5315C50.0384 29.8633 52.5959 19.0093 44.9925 8.26611C50.9145 16.1331 52.2341 24.8994 48.3019 36.0111C43.9157 48.4066 35.5235 57.8819 17.9858 59.1755C17.9697 58.8126 17.9533 58.449 17.9355 58.0861C35.0256 57.0194 42.5273 49.6677 48.009 35.5315H48.0098Z" fill="#003087"/>
<path fill-rule="evenodd" clip-rule="evenodd" d="M41.9615 38.6346C40.5498 41.804 38.6852 44.4454 36.4225 46.6212C34.983 45.228 34.1968 42.5273 34.0641 38.5186C33.4067 29.4823 30.4752 27.3715 27.4199 23.0703C34.5263 25.1748 38.1275 29.368 40.5181 36.0321C40.8444 37.012 41.3545 37.9646 41.9623 38.6346H41.9615Z" fill="#003087"/>
<path fill-rule="evenodd" clip-rule="evenodd" d="M17.9885 46.6203C15.7257 44.4447 13.8604 41.8032 12.4492 38.6336C13.0573 37.9638 13.5665 37.0114 13.8937 36.0311C16.2835 29.3672 19.8846 25.1739 26.9911 23.0693C23.9355 27.3715 21.0041 29.4814 20.3467 38.5179C20.214 42.5266 19.4279 45.227 17.9885 46.6203Z" fill="#003087"/>
<path fill-rule="evenodd" clip-rule="evenodd" d="M11.8274 5.6335C11.8 5.40268 11.8057 5.2082 11.8469 5.04875C11.8875 4.89001 11.9507 4.76594 12.0372 4.67775C12.1231 4.58944 12.2331 4.53338 12.3683 4.51165C12.5643 4.48 12.7342 4.53993 12.8782 4.69388C13.0224 4.84702 13.114 5.08426 13.1528 5.40502C13.1915 5.72894 13.1575 5.99316 13.0491 6.19653C12.9544 6.3763 12.8087 6.48248 12.6119 6.51472C12.4145 6.54719 12.2484 6.49299 12.115 6.35188C11.9626 6.1908 11.8671 5.95111 11.8284 5.6335H11.8274ZM12.11 5.57358C12.1367 5.79633 12.1935 5.95742 12.2799 6.05729C12.3667 6.15681 12.4631 6.19722 12.5708 6.18017C12.6791 6.16253 12.7626 6.09279 12.8201 5.97049C12.8783 5.84819 12.893 5.67229 12.8654 5.44392C12.8377 5.21964 12.7835 5.05914 12.701 4.96277C12.6185 4.86652 12.5213 4.8275 12.4095 4.84619C12.2978 4.86476 12.2129 4.93357 12.1553 5.05353C12.098 5.17338 12.0833 5.34662 12.1108 5.5744L12.11 5.57358ZM13.7284 5.16439L13.4653 5.20165L13.437 4.93451C13.4208 4.78382 13.4256 4.66491 13.4507 4.57812C13.4757 4.49133 13.53 4.41938 13.6118 4.36249L13.6798 4.51013C13.6312 4.54167 13.598 4.58046 13.5793 4.62672C13.5608 4.67356 13.5542 4.73523 13.5608 4.81127L13.6887 4.79282L13.7284 5.16439ZM14.1064 6.24582L14.074 5.89177L14.6813 4.54167L14.041 4.62017L14.0108 4.29123L15.0155 4.16835L15.0432 4.47346L14.4108 5.8774L15.192 5.78174L15.2222 6.10974L14.1064 6.24582ZM15.3111 4.12209L15.8599 4.0548C16.0098 4.03623 16.1173 4.03951 16.1805 4.06462C16.2446 4.0888 16.3004 4.13914 16.3496 4.21425C16.3992 4.28971 16.4284 4.37802 16.4373 4.48C16.4454 4.57391 16.4356 4.6607 16.4064 4.74095C16.378 4.82108 16.336 4.88264 16.2826 4.92551C16.3667 4.9491 16.4356 4.99852 16.489 5.07468C16.5424 5.14979 16.574 5.24639 16.5846 5.36296C16.5975 5.50465 16.579 5.62789 16.5295 5.73221C16.48 5.83757 16.4162 5.90636 16.3383 5.93884C16.2843 5.9615 16.1563 5.9851 15.9539 6.01021L15.4876 6.06686L15.3119 4.12127L15.3111 4.12209ZM15.6162 4.41201L15.6567 4.86173L15.8389 4.83883C15.9491 4.82587 16.0162 4.81454 16.0412 4.80742C16.0875 4.79282 16.1223 4.76513 16.1459 4.72389C16.1691 4.68336 16.1772 4.63068 16.1716 4.56585C16.1668 4.50838 16.1513 4.46306 16.1263 4.42988C16.1012 4.39648 16.0729 4.37709 16.0412 4.3723C16.0098 4.36751 15.9207 4.37382 15.7749 4.39169L15.6146 4.41107L15.6162 4.41201ZM15.686 5.18553L15.7329 5.70568L15.9896 5.67403C16.1021 5.66036 16.1739 5.64402 16.2049 5.62696C16.2357 5.60932 16.2599 5.57918 16.2778 5.53631C16.2962 5.49332 16.302 5.44076 16.2962 5.37908C16.2906 5.31589 16.2745 5.26496 16.2476 5.22606C16.2202 5.18798 16.187 5.16381 16.1474 5.15248C16.1077 5.14173 16.0284 5.14348 15.9103 5.15808L15.686 5.18553ZM16.9861 5.90579L16.8396 3.95692L17.8595 3.85319L17.8849 4.18271L17.1416 4.25817L17.1741 4.69061L17.8645 4.62017L17.8887 4.94911L17.1982 5.01955L17.2378 5.54939L18.0062 5.47159L18.0313 5.7996L16.9861 5.90579ZM18.3818 5.74447L18.2645 3.79315L18.5413 3.77049L18.5932 4.63722L19.1031 3.72517L19.4771 3.69445L19.0044 4.49635L19.6229 5.64331L19.2634 5.67228L18.8295 4.78709L18.6239 5.13215L18.6595 5.72181L18.3827 5.74447H18.3818ZM19.869 5.63922L19.7807 3.68615L20.0585 3.66921L20.1467 5.62298L19.869 5.64005V5.63922ZM20.422 4.95296L20.6923 4.89876C20.7346 5.14674 20.8396 5.26578 21.0097 5.25538C21.094 5.25036 21.1587 5.22046 21.204 5.16614C21.2503 5.11194 21.2712 5.04711 21.2679 4.97176C21.2664 4.92726 21.2559 4.89 21.238 4.85998C21.2193 4.83008 21.1927 4.80566 21.1579 4.78779C21.123 4.77015 21.0379 4.74177 20.9028 4.70276C20.7829 4.66876 20.694 4.62823 20.6364 4.58291C20.5798 4.53759 20.533 4.47614 20.4965 4.39823C20.4599 4.32043 20.4399 4.23633 20.4358 4.14475C20.431 4.03857 20.4471 3.94138 20.4852 3.85319C20.5231 3.7657 20.5774 3.69748 20.6487 3.64889C20.72 3.60111 20.8098 3.57366 20.9174 3.56712C21.0794 3.55754 21.208 3.60111 21.3037 3.69748C21.3991 3.79408 21.4541 3.9373 21.468 4.12688L21.1904 4.16087C21.1733 4.05714 21.1433 3.98518 21.1012 3.94617C21.0591 3.90739 21.0001 3.88952 20.9255 3.89431C20.8503 3.89934 20.7937 3.92024 20.7547 3.95925C20.7158 3.99804 20.6979 4.04511 20.7006 4.09861C20.7029 4.15199 20.7232 4.1958 20.762 4.22979C20.8 4.26378 20.8867 4.29871 21.0203 4.33422C21.1627 4.37324 21.2656 4.4161 21.3303 4.46481C21.395 4.51247 21.4461 4.57719 21.4824 4.65744C21.5191 4.73768 21.54 4.83639 21.5456 4.9539C21.5531 5.12327 21.5149 5.26905 21.4298 5.3896C21.3457 5.51038 21.2073 5.57685 21.0162 5.589C20.6785 5.60932 20.4802 5.39789 20.422 4.95296ZM22.2241 5.4925L22.1755 3.86861L21.7658 3.88473L21.7562 3.55427L22.8515 3.50965L22.8613 3.84011L22.4524 3.85646L22.501 5.48048L22.2233 5.49181L22.2241 5.4925ZM23.096 4.46154C23.0927 4.22897 23.1196 4.03623 23.1763 3.88391C23.2329 3.73241 23.309 3.61817 23.4036 3.54295C23.4975 3.4676 23.6132 3.42788 23.7493 3.42543C23.9467 3.42134 24.1088 3.50568 24.2358 3.67809C24.363 3.85073 24.4285 4.09943 24.4335 4.42335C24.4383 4.75053 24.3768 5.00728 24.248 5.19452C24.1347 5.35969 23.9792 5.44392 23.7809 5.448C23.5817 5.45221 23.4224 5.37523 23.3049 5.21637C23.1705 5.03496 23.1008 4.78382 23.096 4.46212V4.46154ZM23.3827 4.44203C23.3859 4.66724 23.4256 4.83486 23.4999 4.94583C23.5754 5.0568 23.6666 5.111 23.7752 5.10948C23.8846 5.10715 23.9744 5.04956 24.0448 4.93602C24.1153 4.82272 24.1483 4.6509 24.1451 4.41938C24.142 4.19253 24.1048 4.02561 24.0326 3.91872C23.9607 3.81173 23.8682 3.75916 23.7549 3.76161C23.6416 3.76395 23.5503 3.8206 23.4805 3.93157C23.411 4.04277 23.3786 4.21192 23.3818 4.44203H23.3827ZM24.776 5.3743V3.41807H25.0471L25.6122 4.7246V3.41807H25.8721V5.3743H25.592L25.0358 4.09943V5.3743H24.7768H24.776ZM27.2361 5.34662V3.39062H27.8231C27.9728 3.39062 28.0805 3.40849 28.1447 3.4433C28.2084 3.478 28.2619 3.53967 28.3033 3.62623C28.3445 3.71302 28.3647 3.81675 28.3647 3.93812C28.3647 4.09114 28.3332 4.21425 28.27 4.30759C28.2069 4.40068 28.117 4.45979 28.0012 4.48327C28.0611 4.5328 28.1097 4.58769 28.1495 4.64703C28.1882 4.70602 28.2416 4.8122 28.309 4.96523L28.4764 5.34662H28.1447L27.9431 4.92073C27.8699 4.76689 27.8207 4.67051 27.7948 4.6315C27.7689 4.59271 27.7414 4.56585 27.7121 4.55125C27.6831 4.53664 27.6361 4.52953 27.5722 4.52953H27.5147V5.34602H27.2361V5.34662ZM27.5147 4.21753H27.7211C27.8473 4.21753 27.9275 4.21098 27.9624 4.19813C27.9964 4.18528 28.0247 4.15935 28.0456 4.11975C28.0677 4.08074 28.0781 4.02887 28.0781 3.96322C28.0781 3.90085 28.0677 3.85074 28.0456 3.81348C28.0239 3.77528 27.9955 3.74935 27.9592 3.73475C27.9332 3.72517 27.8571 3.72015 27.7324 3.72015H27.5147V4.2167V4.21753ZM28.7347 5.3493L28.7639 3.39296L29.7878 3.4141L29.783 3.74456L29.0374 3.72914L29.0311 4.16262L29.7241 4.1764L29.7193 4.50592L29.0261 4.49226L29.018 5.02433L29.7896 5.03975L29.7848 5.36951L28.7355 5.34836L28.7347 5.3493ZM30.0656 4.76595L30.3385 4.73348C30.3652 4.98392 30.464 5.111 30.634 5.11521C30.7182 5.11673 30.7847 5.09255 30.833 5.0422C30.8816 4.99197 30.9068 4.92878 30.9085 4.85344C30.9093 4.80893 30.901 4.77074 30.8849 4.7392C30.8688 4.70755 30.8437 4.68184 30.8097 4.6607C30.7757 4.64049 30.6922 4.60487 30.5604 4.55545C30.4429 4.51165 30.3563 4.46387 30.302 4.41435C30.2478 4.36424 30.2048 4.29871 30.1733 4.21846C30.1419 4.13821 30.1273 4.05235 30.1279 3.96077C30.1296 3.85401 30.1523 3.75916 30.1953 3.67424C30.238 3.58979 30.2972 3.52601 30.371 3.48372C30.4452 3.44167 30.536 3.42216 30.6436 3.42368C30.8056 3.42695 30.932 3.48068 31.0209 3.58499C31.1107 3.68884 31.156 3.83614 31.1587 4.02642L30.8793 4.03775C30.8688 3.9325 30.8429 3.85879 30.8031 3.81581C30.7635 3.77376 30.7053 3.7518 30.6307 3.75028C30.5562 3.74877 30.498 3.7657 30.4566 3.80121C30.4155 3.83695 30.3943 3.8824 30.3936 3.93578C30.3928 3.98916 30.4107 4.03448 30.4462 4.07174C30.4825 4.109 30.5667 4.15048 30.6979 4.19662C30.8371 4.24684 30.9377 4.2987 30.9992 4.35115C31.0606 4.40477 31.1077 4.47287 31.1391 4.55545C31.1706 4.63886 31.1862 4.7385 31.1844 4.85601C31.182 5.02515 31.1351 5.16766 31.0435 5.28108C30.9521 5.39462 30.8104 5.44952 30.6194 5.44649C30.2809 5.43913 30.0966 5.2124 30.0649 4.76361L30.0656 4.76595ZM31.4955 5.46085L31.5537 3.50568L32.0014 3.52425C32.1681 3.53079 32.2766 3.54446 32.3276 3.5656C32.4085 3.59959 32.4741 3.66677 32.5242 3.76722C32.5746 3.8678 32.5972 3.9957 32.5922 4.15199C32.5884 4.29298 32.5615 4.41108 32.5129 4.50441C32.4645 4.59832 32.4046 4.66316 32.3349 4.6989C32.2653 4.73441 32.1463 4.74901 31.9778 4.74247L31.7958 4.73522L31.7738 5.47219L31.4961 5.46085H31.4955ZM31.8215 3.84828L31.8046 4.40302L31.9584 4.40956C32.0621 4.41376 32.1326 4.40793 32.1698 4.39263C32.2069 4.37709 32.2385 4.34788 32.2636 4.30525C32.2889 4.26226 32.3026 4.20864 32.3042 4.14475C32.3059 4.0798 32.2952 4.0249 32.2725 3.97865C32.2491 3.93332 32.2199 3.9026 32.1842 3.88567C32.1487 3.86861 32.0735 3.85798 31.9569 3.85401L31.8215 3.84828ZM32.9737 3.56479L33.2506 3.58172L33.2028 4.63956C33.1954 4.80415 33.1939 4.91091 33.1987 4.96126C33.2068 5.04781 33.2327 5.11673 33.2773 5.16614C33.3218 5.21544 33.3809 5.24312 33.457 5.24791C33.5211 5.25211 33.5745 5.23833 33.6165 5.20738C33.6586 5.17666 33.6885 5.13215 33.7054 5.07374C33.7233 5.01557 33.7364 4.88918 33.7451 4.69469L33.7937 3.6142L34.0723 3.63125L34.0261 4.65744C34.014 4.91991 33.9938 5.10867 33.9646 5.22373C33.9347 5.33949 33.8763 5.43014 33.7889 5.49753C33.7016 5.56458 33.5881 5.59472 33.4497 5.58572C33.3063 5.57685 33.1954 5.5404 33.1178 5.47487C33.04 5.40992 32.9851 5.32243 32.9534 5.21064C32.9219 5.09967 32.9129 4.89806 32.9259 4.60557L32.9729 3.56386L32.9737 3.56479ZM34.5038 3.65146L35.0542 3.69596C35.2048 3.70823 35.3092 3.73323 35.3691 3.76968C35.4283 3.80694 35.476 3.86686 35.5133 3.9512C35.5505 4.0353 35.566 4.1284 35.5594 4.23061C35.5538 4.32464 35.5302 4.40792 35.4897 4.48093C35.4494 4.5537 35.3993 4.60639 35.3399 4.63804C35.4194 4.67858 35.4801 4.74096 35.5214 4.82681C35.5627 4.91185 35.5798 5.013 35.5723 5.13039C35.5642 5.27232 35.527 5.3896 35.4622 5.48293C35.3975 5.57591 35.3248 5.63116 35.243 5.6481C35.1863 5.65943 35.0567 5.6571 34.8534 5.64005L34.3855 5.60184L34.503 3.65064L34.5038 3.65146ZM34.7613 3.99897L34.7336 4.45021L34.9167 4.46539C35.0268 4.47439 35.0948 4.47766 35.1207 4.4752C35.1685 4.47042 35.2072 4.45021 35.2356 4.41435C35.2648 4.37884 35.281 4.3285 35.285 4.26378C35.2883 4.20619 35.2803 4.15853 35.2606 4.12034C35.2412 4.08249 35.2161 4.05808 35.1854 4.04675C35.1547 4.0353 35.0664 4.02397 34.92 4.01182L34.7595 3.99897H34.7613ZM34.7142 4.77494L34.6825 5.2965L34.9402 5.31764C35.0527 5.32664 35.1255 5.3257 35.1587 5.3153C35.1919 5.30397 35.2203 5.27863 35.2445 5.23984C35.2689 5.20165 35.2827 5.15072 35.2866 5.08928C35.2908 5.02515 35.2818 4.97177 35.2616 4.92878C35.2405 4.88591 35.2113 4.85519 35.1741 4.83638C35.1368 4.81781 35.0583 4.80321 34.9394 4.79433L34.7142 4.77576V4.77494ZM35.8921 5.73968L36.0087 3.80448L36.2858 3.82715L36.1894 5.4334L36.8815 5.48947L36.8621 5.81818L35.8929 5.73968H35.8921ZM37.1609 5.8774L37.3074 3.92853L37.5842 3.95692L37.4377 5.90579L37.1609 5.8774ZM37.815 5.93557L37.9907 3.98997L38.2666 4.02397L38.1891 4.88825L38.8277 4.09289L39.2009 4.13821L38.6147 4.83241L39.0519 6.08625L38.6934 6.04269L38.3979 5.08355L38.1437 5.38153L38.091 5.96875L37.8141 5.93475L37.815 5.93557ZM40.5472 6.27736L40.246 6.24009L40.1667 5.78325L39.6187 5.71609L39.4657 6.14466L39.171 6.10821L39.8809 4.22827L40.175 4.26378L40.5482 6.27584L40.5472 6.27736ZM40.107 5.44567L39.9839 4.70124L39.7329 5.40023L40.107 5.44567ZM40.782 5.67882L41.0558 5.68058C41.0597 5.93324 41.1465 6.07096 41.3147 6.09514C41.3982 6.1074 41.4662 6.09128 41.5196 6.04748C41.5731 6.00367 41.6028 5.94363 41.6111 5.8691C41.6159 5.82553 41.6118 5.78582 41.5981 5.75253C41.5852 5.71936 41.5617 5.69015 41.5301 5.66515C41.4978 5.64074 41.4185 5.5953 41.292 5.52977C41.1787 5.4716 41.0969 5.41401 41.0475 5.35817C40.9982 5.30129 40.961 5.23178 40.9374 5.14745C40.9132 5.06416 40.9058 4.97656 40.9157 4.88591C40.927 4.77973 40.9577 4.68757 41.0078 4.60884C41.0582 4.53034 41.1221 4.47439 41.1999 4.44121C41.2774 4.40874 41.3698 4.39975 41.4767 4.41528C41.6378 4.43794 41.7586 4.50687 41.8379 4.62099C41.9172 4.73523 41.9494 4.88743 41.9348 5.07702L41.6565 5.05435C41.6547 4.94911 41.6368 4.87213 41.6005 4.82436C41.565 4.77728 41.5092 4.74808 41.4346 4.73769C41.3601 4.72717 41.301 4.73675 41.2565 4.76747C41.2127 4.79842 41.1877 4.84059 41.182 4.89398C41.1763 4.94736 41.19 4.99443 41.2225 5.03567C41.2557 5.07702 41.335 5.12888 41.4612 5.19033C41.5957 5.25773 41.6905 5.32091 41.7472 5.38084C41.8039 5.44146 41.8442 5.51447 41.8677 5.60102C41.892 5.68781 41.8976 5.78898 41.8855 5.90579C41.8677 6.07423 41.8077 6.20938 41.7066 6.31135C41.6055 6.41356 41.4596 6.45093 41.2694 6.42407C40.9335 6.37629 40.7707 6.12761 40.7796 5.67801L40.782 5.67882ZM42.1696 6.54065L42.4037 4.60405L42.679 4.64937L42.4449 6.58597L42.1696 6.54065Z" fill="#003087"/>
<path fill-rule="evenodd" clip-rule="evenodd" d="M15.5073 9.24799L15.0679 9.30966L14.8144 8.77911L14.0144 8.8916L13.9279 9.47016L13.498 9.53067L13.9343 6.97521L14.3627 6.91529L15.5081 9.24799H15.5073ZM14.6264 8.38547L14.2234 7.51628L14.0793 8.46162L14.6257 8.38465L14.6264 8.38547ZM15.6045 6.74264L16.346 6.66508C16.5338 6.64546 16.677 6.65118 16.7767 6.68365C16.8763 6.71519 16.9718 6.77675 17.0633 6.86763C17.154 6.95827 17.23 7.0814 17.2933 7.23442C17.3556 7.38837 17.3993 7.58274 17.4236 7.81834C17.4464 8.03071 17.4416 8.21772 17.4099 8.37986C17.3783 8.54175 17.3306 8.67211 17.2665 8.77175C17.2035 8.87139 17.1209 8.95001 17.0213 9.00678C16.9226 9.06425 16.7905 9.10151 16.6261 9.11857L15.8628 9.19882L15.6045 6.74264ZM16.053 7.11632L16.2237 8.74279L16.5282 8.71113C16.6594 8.69723 16.7517 8.67538 16.8083 8.64466C16.865 8.61394 16.9088 8.57165 16.9405 8.51827C16.9727 8.46571 16.9954 8.38313 17.009 8.27368C17.0221 8.16341 17.0198 8.0209 17.001 7.84603C16.9816 7.66451 16.9541 7.52188 16.9177 7.41909C16.8811 7.317 16.8333 7.23862 16.7743 7.18337C16.7152 7.12917 16.6463 7.09599 16.5688 7.08466C16.5104 7.07579 16.3994 7.08057 16.2368 7.09751L16.0522 7.1169L16.053 7.11632ZM18.0396 8.9298L17.869 6.4859L18.2752 6.45763L18.4169 8.48603L19.4313 8.41537L19.4605 8.83016L18.0396 8.9298ZM19.9002 8.79384L19.7278 6.32961L20.1341 6.30133L20.3065 8.76544L19.9002 8.79384ZM21.3874 8.6998L21.3331 7.66205L20.5186 6.27212L20.9963 6.24702L21.5234 7.19797L21.9395 6.1976L22.4081 6.1733L21.7394 7.64418L21.7937 8.67866L21.3874 8.7005V8.6998ZM24.4639 8.5636L24.0192 8.57901L23.8234 8.02417L23.0162 8.05243L22.8689 8.61873L22.434 8.63427L23.1353 6.1385L23.5676 6.12319L24.4629 8.5629L24.4639 8.5636ZM23.6776 7.61346L23.3683 6.70713L23.1264 7.63285L23.6776 7.61346ZM26.6665 8.53136L25.9444 6.06152H26.3871L26.8998 7.88961L27.3944 6.06152H27.829L27.1045 8.53136H26.6675H26.6665ZM29.8101 8.53136H29.3657L29.1892 7.97067H28.3813L28.2144 8.53136H27.7798L28.5675 6.06152H28.9997L29.8093 8.53136H29.8101ZM29.0581 7.55436L28.7805 6.6374L28.5061 7.55436H29.0581ZM30.0077 8.56687L30.024 8.11739L31.1428 6.55329L30.1988 6.51988L30.2134 6.10205L31.6941 6.15392L31.6803 6.54103L30.5152 8.1675L31.6666 8.20814L31.652 8.62353L30.0077 8.56606V8.56687ZM32.0558 8.64139L32.1426 6.1733L32.5498 6.1879L32.464 8.65599L32.0568 8.64139H32.0558ZM33.0122 8.68345L33.1846 6.22027L34.0436 6.28019C34.2628 6.29561 34.4182 6.32878 34.5088 6.37995C34.5996 6.43099 34.6726 6.51276 34.7252 6.62607C34.7776 6.73961 34.7988 6.87242 34.7884 7.02474C34.7746 7.21748 34.7179 7.3698 34.6175 7.48077C34.5169 7.59162 34.3802 7.65645 34.2078 7.67514C34.2911 7.74406 34.3583 7.81776 34.4101 7.89614C34.462 7.97487 34.5309 8.11411 34.616 8.31339L34.8272 8.81076L34.3412 8.77678L34.0832 8.22029C33.9901 8.01844 33.9261 7.89229 33.8921 7.84101C33.8572 7.79008 33.8192 7.75363 33.7778 7.73179C33.7366 7.70983 33.6694 7.69605 33.5747 7.68974L33.4905 7.68414L33.4184 8.71265L33.0122 8.68438V8.68345ZM33.5181 7.29025L33.8201 7.31139C34.0046 7.32448 34.1229 7.32447 34.1738 7.3122C34.2256 7.29912 34.2684 7.26934 34.3034 7.22227C34.3382 7.17531 34.3583 7.11059 34.364 7.02871C34.3696 6.95021 34.3576 6.88608 34.3299 6.83667C34.3016 6.78644 34.2619 6.75093 34.2095 6.72897C34.1721 6.71437 34.062 6.69978 33.8798 6.68693L33.5609 6.66426L33.5171 7.28955L33.5181 7.29025ZM35.2196 8.85679L35.3905 6.41394L35.7971 6.44232L35.6555 8.4705L36.6696 8.54176L36.6406 8.95725L35.2196 8.85761V8.85679ZM37.0803 9.03422L37.3383 6.57828L37.744 6.62128L37.4856 9.0771L37.0803 9.03422ZM39.0466 8.35627L39.0976 7.94322L39.9712 8.05092L39.8513 9.02699C39.7501 9.11939 39.615 9.19309 39.4442 9.24799C39.2733 9.30313 39.1065 9.32099 38.9439 9.30079C38.7456 9.27637 38.5771 9.20593 38.4372 9.09017C38.2978 8.9736 38.1959 8.81323 38.1311 8.60741C38.0662 8.40252 38.0501 8.1675 38.0825 7.90514C38.1156 7.63554 38.1884 7.4101 38.3018 7.22963C38.4145 7.04892 38.5487 6.91926 38.7035 6.84228C38.858 6.76472 39.0353 6.73879 39.2344 6.76379C39.474 6.79299 39.6587 6.87721 39.7883 7.01738C39.9178 7.15662 39.9882 7.34714 40.0004 7.58847L39.5882 7.63133C39.5736 7.50167 39.5301 7.39876 39.4579 7.32179C39.3859 7.24574 39.2945 7.20042 39.1825 7.18663C39.0101 7.16549 38.8621 7.21596 38.739 7.33639C38.6159 7.4581 38.5374 7.65552 38.5034 7.93107C38.467 8.2266 38.4969 8.45835 38.5941 8.62679C38.6776 8.77105 38.8029 8.85434 38.9729 8.87467C39.0522 8.88448 39.1366 8.87642 39.2264 8.84955C39.3162 8.8221 39.3988 8.78075 39.4734 8.72398L39.5112 8.41303L39.0466 8.35627ZM40.3453 9.4579L40.7314 7.01913L41.1339 7.08291L40.7476 9.52179L40.3453 9.4579Z" fill="#003087"/>
<path fill-rule="evenodd" clip-rule="evenodd" d="M39.7406 42.6664C38.9135 43.8967 37.9961 45.0226 36.9963 46.0514C35.4897 44.6799 34.7643 42.6096 34.6389 37.7529C33.8592 30.3908 32.0546 27.7623 29.2852 24.5522C33.2982 28.1348 35.9535 30.8322 37.0287 36.844C37.2846 39.9851 38.3232 41.7243 39.7406 42.6654V42.6664Z" fill="#2E5BA5"/>
<path fill-rule="evenodd" clip-rule="evenodd" d="M41.6529 39.3056C41.1649 40.3294 40.6271 41.2957 40.0428 42.2061C38.2478 40.8469 37.9071 39.2091 37.5062 36.5573C37.1038 33.7838 36.0605 29.6706 30.7188 25.1743C33.6641 26.1811 36.6764 29.477 38.4625 32.6831C39.812 35.6436 40.1618 37.9813 41.6529 39.3048V39.3056Z" fill="#2E5BA5"/>
<path fill-rule="evenodd" clip-rule="evenodd" d="M12.9452 14.9935C13.0811 14.8259 13.2138 14.6565 13.3434 14.4848L23.1345 10.3628C24.4735 10.2986 25.8417 10.2664 27.2099 10.2671C28.5772 10.2679 29.9447 10.3011 31.2829 10.366L41.066 14.4848C41.1954 14.6557 41.3281 14.8259 41.4642 14.9935L30.2847 10.4332L42.3975 17.5215C42.3491 17.6056 42.3005 17.6901 42.2519 17.7742L30.0604 10.8229L41.1453 19.4323C41.0859 19.5091 41.0269 19.5869 40.9669 19.6639L29.7866 11.1793L39.653 21.1625C39.5843 21.2314 39.5155 21.3002 39.4466 21.3691L29.4687 11.4967L37.949 22.6828C37.8712 22.7419 37.7945 22.8012 37.7175 22.8611L29.1123 11.7705L36.0603 23.9684C35.976 24.017 35.8917 24.0656 35.8076 24.1142L28.7239 11.995L34.0209 24.9961C33.931 25.0333 33.8411 25.0706 33.7513 25.1079L28.3084 12.1674L31.8641 25.7488C31.7702 25.7738 31.6763 25.7989 31.5824 25.8239L27.8745 12.2833L29.628 26.2128C29.5316 26.2259 29.4353 26.2379 29.339 26.251L27.4294 12.3415L27.3507 26.3813C27.2537 26.3813 27.1564 26.3813 27.0592 26.3813L26.9807 12.3415L25.0709 26.251C24.9746 26.2379 24.8783 26.2259 24.7819 26.2128L26.5355 12.2824L22.8275 25.8239C22.7336 25.7989 22.6397 25.7738 22.546 25.7488L26.1015 12.1667L20.6588 25.1079C20.569 25.0706 20.479 25.0333 20.3891 24.9961L25.6862 11.995L18.6025 24.1142C18.5184 24.0656 18.434 24.017 18.3499 23.9684L25.2976 11.7698L16.6927 22.8602C16.6157 22.8012 16.5381 22.7419 16.4611 22.6828L24.9406 11.4959L14.9626 21.3682C14.8938 21.2994 14.8249 21.2305 14.7562 21.1615L24.6226 11.1785L13.4423 19.6631C13.383 19.5861 13.324 19.5086 13.264 19.4316L24.3488 10.8221L12.1574 17.7735C12.1088 17.6891 12.0602 17.605 12.0117 17.5207L24.1245 10.4323L12.9452 14.9927V14.9935ZM14.6718 12.4509C14.7488 12.3132 14.8243 12.1747 14.8979 12.0346L20.3083 10.5515C21.0304 10.4892 21.7678 10.4365 22.5159 10.395L14.6718 12.4509ZM31.9104 10.3992C32.6609 10.4413 33.3999 10.4949 34.1236 10.5571L39.5123 12.0337C39.5859 12.1739 39.6611 12.3125 39.7381 12.4501L31.9104 10.3983V10.3992Z" fill="#003087"/>
<path fill-rule="evenodd" clip-rule="evenodd" d="M17.4144 46.052C16.4139 45.0233 15.4973 43.8974 14.6699 42.6672C16.0875 41.7258 17.1262 39.9868 17.382 36.8457C18.457 30.8338 21.1134 28.1365 25.1256 24.5537C22.3562 27.7638 20.5516 30.3922 19.7718 37.7543C19.6463 42.6111 18.9209 44.6817 17.4144 46.0529V46.052Z" fill="#2E5BA5"/>
<path fill-rule="evenodd" clip-rule="evenodd" d="M14.3682 42.2072C13.7836 41.2958 13.2461 40.3296 12.7578 39.3064C14.2491 37.983 14.5982 35.6445 15.9476 32.6839C17.7336 29.478 20.746 26.1821 23.6914 25.1753C18.3496 29.6716 17.3054 33.7848 16.9038 36.5582C16.503 39.2101 16.162 40.8479 14.3682 42.2072Z" fill="#648FD4" fill-opacity="0.341176"/>
<path fill-rule="evenodd" clip-rule="evenodd" d="M27.205 14.5186C27.4997 14.5186 27.7403 14.7592 27.7403 15.0541C27.7403 15.2841 27.5928 15.4818 27.388 15.557L27.4521 15.7514C27.4521 16.2763 27.4521 16.8011 27.4521 17.326C27.6623 17.4297 27.7758 17.6534 27.8234 17.9603C27.8234 18.3581 27.8234 18.755 27.8234 19.1525C27.804 19.3884 27.7467 19.5998 27.6051 19.7538C27.6051 19.8743 27.6051 19.995 27.6051 20.1149C27.8017 20.187 27.9734 20.3108 28.1045 20.4698C28.7159 20.1393 29.2339 19.9602 29.6703 19.9723C30.9988 19.9846 31.6059 20.8894 32.8064 21.1857C33.6129 21.4101 34.3697 21.4465 34.9204 21.3251C34.8305 21.1671 34.7795 20.984 34.7795 20.7904C34.7795 20.1903 35.2685 19.7001 35.8691 19.7001C36.469 19.7001 36.9587 20.1895 36.9587 20.7904C36.9587 21.3891 36.6601 21.7682 36.2181 22.0006L39.3819 29.7936H40.7233C39.8677 31.0136 38.6291 31.9846 36.0246 32.0649C33.8071 32.0705 32.1782 31.3237 31.1387 29.8243H32.3587L35.4215 22.2549C34.5188 22.4112 33.4492 22.2695 32.8948 22.1383C32.1014 22.0283 30.9422 21.6135 29.9656 21.351C29.399 21.2652 28.8462 21.4125 28.3021 21.606C28.1846 21.9302 27.9281 22.1879 27.6057 22.306C27.6057 23.755 27.6057 25.205 27.6057 26.654C28.5053 26.7506 28.2948 27.9688 27.6057 28.0975C27.9321 28.3242 28.1327 28.6783 28.2064 29.1578V31.5084C28.1838 32.9195 28.017 34.1505 27.7695 35.2805V36.1448H33.8897V36.7029H35.0045V37.0966H36.3273V37.688H27.2116H27.2009H18.0851V37.0966H19.4079V36.7029H20.5228V36.1448H26.6422V35.2805C26.3947 34.1505 26.2279 32.9195 26.2052 31.5084V29.1578C26.2798 28.6774 26.4796 28.3242 26.8066 28.0975C26.1179 27.9688 25.9073 26.7506 26.8066 26.654C26.8066 25.205 26.8066 23.755 26.8066 22.306C26.4836 22.1879 26.2271 21.9302 26.1098 21.606C25.5649 21.4125 25.0127 21.2642 24.4461 21.351C23.4698 21.6135 22.3103 22.0283 21.517 22.1383C20.9625 22.2695 19.8929 22.4112 18.9902 22.2549L22.053 29.8243H23.273C22.2335 31.3237 20.6045 32.0705 18.3871 32.0649C15.782 31.9846 14.5433 31.0136 13.6875 29.7936H15.0289L18.1928 22.0006C17.7508 21.7682 17.4521 21.3891 17.4521 20.7904C17.4521 20.1903 17.9419 19.7001 18.5417 19.7001C19.1415 19.7001 19.6315 20.1895 19.6315 20.7904C19.6315 20.9848 19.5806 21.1671 19.4905 21.3251C20.041 21.4474 20.7981 21.4101 21.6043 21.1857C22.8049 20.8885 23.4131 19.9846 24.7407 19.9723C25.1771 19.9602 25.6953 20.1393 26.3064 20.4698C26.4376 20.3108 26.61 20.187 26.8066 20.1149C26.8066 19.9942 26.8066 19.8736 26.8066 19.7538C26.665 19.599 26.6077 19.3884 26.5883 19.1525C26.5883 18.755 26.5883 18.3581 26.5883 17.9603C26.6359 17.6541 26.7494 17.4297 26.9596 17.326C26.9596 16.8011 26.9596 16.2763 26.9596 15.7514L27.0237 15.557C26.8189 15.4825 26.6714 15.2849 26.6714 15.0541C26.6714 14.7592 26.912 14.5186 27.2067 14.5186H27.205ZM38.7869 29.7936L36.1047 23.0238V29.7936H38.7869ZM32.9814 29.7936L35.6636 23.0238V29.7936H32.9814ZM15.6233 29.7936L18.3054 23.0238V29.7936H15.6233ZM21.4286 29.7936L18.7466 23.0238V29.7936H21.4286Z" fill="#003087"/>
<path fill-rule="evenodd" clip-rule="evenodd" d="M20.9654 54.3011C21.975 51.4143 18.5269 49.1212 18.6006 49.0459C18.6824 48.9713 16.49 51.8168 20.9654 54.3011Z" fill="url(#paint0_radial_118_7103)"/>
<path fill-rule="evenodd" clip-rule="evenodd" d="M3.81445 42.5104C5.59546 46.1433 9.27019 47.3066 11.1929 45.8946C11.192 45.8866 11.192 45.8785 11.1914 45.8705C11.1887 45.9223 7.89218 44.7533 7.2454 44.2317C7.24132 44.2795 10.4319 45.4461 11.1914 45.8705C11.1914 45.868 11.1914 45.8663 11.1914 45.8639C8.94301 43.2127 5.97358 41.3465 3.81445 42.5104Z" fill="#003087"/>
<path fill-rule="evenodd" clip-rule="evenodd" d="M2.04883 38.0037C3.44611 41.5466 6.79764 42.8539 8.73914 41.6154C8.73914 41.6082 8.73915 41.5999 8.73996 41.5927C8.73436 41.6398 5.72264 40.3429 5.1526 39.8147C5.14606 39.8577 8.06141 41.1424 8.73996 41.5927C8.73996 41.5904 8.73996 41.5886 8.73996 41.5862C6.84799 38.9222 4.17793 36.9952 2.04883 38.0037Z" fill="#003087"/>
<path fill-rule="evenodd" clip-rule="evenodd" d="M0.854217 33.2307C1.7206 36.725 4.678 38.3046 6.65829 37.3309C6.65981 37.3235 6.66063 37.3163 6.66133 37.3089C6.65082 37.3512 3.99945 35.8106 3.53233 35.2541C3.521 35.2929 6.08592 36.8067 6.66133 37.3089C6.66215 37.3064 6.66214 37.3049 6.66214 37.3026C5.23904 34.5679 2.97222 32.4733 0.853516 33.2307H0.854217Z" fill="#003087"/>
<path fill-rule="evenodd" clip-rule="evenodd" d="M0.519531 28.8014C0.847418 32.2082 3.37403 34.0364 5.35677 33.3447C5.3584 33.3373 5.36168 33.3307 5.36331 33.3244C5.34707 33.3617 3.09333 31.596 2.73543 31.0166C2.71931 31.0508 4.89852 32.7793 5.36331 33.3244C5.36413 33.3227 5.36412 33.3203 5.36494 33.3188C4.42333 30.5534 2.59525 28.3096 0.519531 28.8014Z" fill="#003087"/>
<path fill-rule="evenodd" clip-rule="evenodd" d="M0.373139 24.5118C0.356785 27.7891 2.52969 29.7023 4.44433 29.1848C4.44667 29.1782 4.44935 29.1717 4.45169 29.1661C4.43382 29.1992 2.50376 27.3532 2.22611 26.7767C2.20835 26.8075 4.07112 28.6096 4.45169 29.1661C4.45239 29.1646 4.45321 29.1628 4.45414 29.1613C3.84451 26.4458 2.35202 24.1715 0.373139 24.5125V24.5118Z" fill="#003087"/>
<path fill-rule="evenodd" clip-rule="evenodd" d="M0.944419 20.2664C0.430453 23.3857 2.13448 25.4673 3.97635 25.2213C3.97962 25.2156 3.98266 25.2099 3.98686 25.204C3.96502 25.2326 2.4737 23.2325 2.30538 22.6495C2.28517 22.6754 3.72287 24.6248 3.98686 25.204C3.98768 25.2025 3.98838 25.201 3.9892 25.2001C3.84751 22.5328 2.82028 20.1757 0.944419 20.2672V20.2664Z" fill="#003087"/>
<path fill-rule="evenodd" clip-rule="evenodd" d="M2.08256 16.2061C1.19351 19.1569 2.47924 21.3107 4.20359 21.2611C4.20757 21.2563 4.21166 21.2516 4.21493 21.246C4.19227 21.2701 3.09039 19.2014 3.01435 18.6264C2.99169 18.649 4.05151 20.6626 4.21493 21.246C4.21586 21.2442 4.21738 21.2435 4.2182 21.2417C4.44878 18.6628 3.82151 16.2878 2.08174 16.2061H2.08256Z" fill="#003087"/>
<path fill-rule="evenodd" clip-rule="evenodd" d="M3.73657 12.4302C2.48413 15.189 3.33662 17.3889 4.91683 17.5333C4.92103 17.5282 4.92489 17.5243 4.92991 17.5195C4.9055 17.5404 4.21176 15.4272 4.22811 14.8642C4.20452 14.8837 4.86999 16.9386 4.92991 17.5195C4.93143 17.5187 4.93237 17.5169 4.93318 17.5162C5.53464 15.0529 5.31772 12.6821 3.73657 12.4302Z" fill="#003087"/>
<path fill-rule="evenodd" clip-rule="evenodd" d="M5.80066 8.8291C4.23973 11.3839 4.67858 13.5887 6.09292 13.8964C6.09771 13.8925 6.1025 13.8884 6.10671 13.8851C6.0816 13.9021 5.77707 11.7832 5.87753 11.2389C5.85405 11.2542 6.14222 13.3158 6.10671 13.8851C6.10823 13.8844 6.10905 13.8827 6.11057 13.8818C7.04084 11.5563 7.20846 9.22182 5.80066 8.8291Z" fill="#003087"/>
<path fill-rule="evenodd" clip-rule="evenodd" d="M12.5328 38.9556C13.7067 41.6415 13.3578 44.5584 11.2877 45.8349C11.2794 45.8317 11.2713 45.8286 11.2642 45.8253C11.2123 45.805 11.5678 42.6874 11.6227 42.0367C11.5791 42.0134 10.9898 44.9771 11.2642 45.8253C11.2618 45.8236 11.26 45.8236 11.2577 45.8229C9.28964 42.8121 10.151 39.5534 12.5328 38.9564V38.9556Z" fill="#003087"/>
<path fill-rule="evenodd" clip-rule="evenodd" d="M10.5682 35.0293C11.483 37.6804 10.9034 40.4604 8.83578 41.562C8.8283 41.5588 8.82199 41.5547 8.81463 41.5514C8.77013 41.5313 9.36913 38.565 9.46959 37.9429C9.43233 37.9194 8.63241 40.7268 8.81463 41.5514C8.81312 41.5507 8.81066 41.5499 8.80809 41.5484C7.2141 38.5635 8.26901 35.4861 10.5673 35.0293H10.5682Z" fill="#003087"/>
<path fill-rule="evenodd" clip-rule="evenodd" d="M9.20834 31.2192C9.74344 33.8607 8.84167 36.4575 6.76104 37.2893C6.75461 37.2853 6.74901 37.2812 6.74247 37.2764C6.70521 37.2538 7.64833 34.4892 7.81747 33.9018C7.78675 33.8776 6.68103 36.4745 6.74247 37.2764C6.74072 37.2755 6.7392 37.274 6.73768 37.2732C5.63581 34.2704 6.99747 31.4346 9.20834 31.2192Z" fill="#003087"/>
<path fill-rule="evenodd" clip-rule="evenodd" d="M8.55838 27.5199C8.66994 30.1247 7.44273 32.4876 5.38231 33.0157C5.37752 33.0109 5.37179 33.0059 5.36689 33.0011C5.33698 32.976 6.62739 30.4627 6.87106 29.9198C6.84688 29.8939 5.43335 32.2341 5.36689 33.0011C5.36537 32.9995 5.36374 32.9986 5.36292 32.997C4.79136 30.012 6.47133 27.4646 8.55838 27.5189V27.5199Z" fill="#003087"/>
<path fill-rule="evenodd" clip-rule="evenodd" d="M7.98023 24.0609C7.8661 26.5945 6.51904 28.788 4.55102 29.164C4.54623 29.159 4.54203 29.1542 4.53794 29.1494C4.51282 29.1258 5.93207 26.7938 6.20401 26.2835C6.1838 26.26 4.66584 28.422 4.53794 29.1494C4.53724 29.1476 4.53549 29.147 4.53397 29.1452C4.25958 26.2567 6.03732 23.8956 7.98023 24.0609Z" fill="#003087"/>
<path fill-rule="evenodd" clip-rule="evenodd" d="M8.02472 20.7452C7.52781 23.1802 5.94994 25.1078 4.08062 25.2132C4.07735 25.2075 4.07408 25.2027 4.07081 25.1979C4.05142 25.1744 5.71667 23.1259 6.04619 22.6666C6.03159 22.6439 4.30069 24.5248 4.07081 25.1979C4.07011 25.1961 4.06929 25.1946 4.06836 25.1938C4.25958 22.4108 6.25925 20.3557 8.02472 20.7452Z" fill="#003087"/>
<path fill-rule="evenodd" clip-rule="evenodd" d="M8.54103 17.3208C7.74847 19.6513 6.0393 21.3523 4.30782 21.2656C4.30525 21.2608 4.3028 21.2551 4.30035 21.2495C4.28575 21.2274 6.0928 19.4179 6.45783 19.0016C6.44744 18.9805 4.60231 20.6273 4.30035 21.2495C4.29953 21.2477 4.29883 21.2468 4.29883 21.2453C4.84924 18.5932 6.96794 16.783 8.54103 17.3216V17.3208Z" fill="#003087"/>
<path fill-rule="evenodd" clip-rule="evenodd" d="M9.48757 14.1597C8.40124 16.362 6.58204 17.8224 5.01549 17.548C5.01374 17.543 5.01304 17.5372 5.0114 17.5316C4.99996 17.5113 6.92534 15.9546 7.32355 15.586C7.31619 15.5667 5.37971 16.9679 5.0114 17.5316C5.0114 17.5301 5.01047 17.5284 5.00977 17.5268C5.91154 15.0328 8.12743 13.48 9.48757 14.1587V14.1597Z" fill="#003087"/>
<path fill-rule="evenodd" clip-rule="evenodd" d="M10.7938 11.0607C9.44988 13.1238 7.56503 14.3533 6.18316 13.9232C6.18246 13.9184 6.18246 13.9127 6.18246 13.9071C6.1751 13.8884 8.16999 12.5738 8.59261 12.2497C8.58759 12.232 6.60426 13.4017 6.18246 13.9071C6.18246 13.9054 6.18246 13.9045 6.18164 13.903C7.38782 11.5832 9.65477 10.2718 10.7938 11.0615V11.0607Z" fill="#003087"/>
<path fill-rule="evenodd" clip-rule="evenodd" d="M11.0628 6.90043C10.4531 9.26409 9.05573 11.0176 7.59618 11.0516C7.59361 11.0468 7.59209 11.0421 7.58964 11.037C7.57656 11.0218 9.05188 9.15381 9.34893 8.71566C9.33841 8.70105 7.8277 10.4289 7.58964 11.037C7.58964 11.0355 7.58883 11.0347 7.58789 11.0332C7.98154 8.47176 9.71723 6.52056 11.0628 6.90043Z" fill="#003087"/>
<path fill-rule="evenodd" clip-rule="evenodd" d="M50.5913 42.5104C48.8103 46.1433 45.1356 47.3066 43.2129 45.8946C43.2138 45.8866 43.2138 45.8785 43.2144 45.8705C43.2169 45.9223 46.5136 44.7533 47.1604 44.2317C47.1645 44.2795 43.9739 45.4461 43.2144 45.8705C43.2144 45.868 43.2144 45.8663 43.2144 45.8639C45.4628 43.2127 48.4322 41.3465 50.5913 42.5104Z" fill="#003087"/>
<path fill-rule="evenodd" clip-rule="evenodd" d="M52.3552 38.0037C50.9579 41.5466 47.6064 42.8539 45.6649 41.6154C45.6649 41.6082 45.6649 41.5999 45.6641 41.5927C45.6697 41.6398 48.6814 40.3429 49.2514 39.8147C49.258 39.8577 46.3426 41.1424 45.6641 41.5927C45.6641 41.5904 45.6641 41.5886 45.6641 41.5862C47.556 38.9222 50.2261 36.9952 52.3552 38.0037Z" fill="#003087"/>
<path fill-rule="evenodd" clip-rule="evenodd" d="M53.5499 33.2307C52.6837 36.725 49.7263 38.3046 47.746 37.3309C47.7445 37.3235 47.7437 37.3163 47.743 37.3089C47.7535 37.3512 50.4049 35.8106 50.872 35.2541C50.8833 35.2929 48.3184 36.8067 47.743 37.3089C47.7422 37.3064 47.7422 37.3049 47.7422 37.3026C49.1653 34.5679 51.4321 32.4733 53.5508 33.2307H53.5499Z" fill="#003087"/>
<path fill-rule="evenodd" clip-rule="evenodd" d="M53.8864 28.8014C53.5585 32.2082 51.0319 34.0364 49.0492 33.3447C49.0476 33.3373 49.0443 33.3307 49.0427 33.3244C49.0589 33.3617 51.3126 31.596 51.6705 31.0166C51.6867 31.0508 49.5074 32.7793 49.0427 33.3244C49.0418 33.3227 49.0418 33.3203 49.041 33.3188C49.9826 30.5534 51.8107 28.3096 53.8864 28.8014Z" fill="#003087"/>
<path fill-rule="evenodd" clip-rule="evenodd" d="M54.0322 24.5118C54.0485 27.7891 51.8756 29.7023 49.961 29.1848C49.9586 29.1782 49.956 29.1717 49.9536 29.1661C49.9715 29.1992 51.9016 27.3532 52.1792 26.7767C52.197 26.8075 50.3342 28.6096 49.9536 29.1661C49.9529 29.1646 49.9521 29.1628 49.9512 29.1613C50.5608 26.4458 52.0533 24.1715 54.0322 24.5125V24.5118Z" fill="#003087"/>
<path fill-rule="evenodd" clip-rule="evenodd" d="M53.4608 20.2664C53.9748 23.3857 52.2707 25.4673 50.4289 25.2213C50.4256 25.2156 50.4225 25.2099 50.4183 25.204C50.4402 25.2326 51.9315 23.2325 52.0998 22.6495C52.12 22.6754 50.6823 24.6248 50.4183 25.204C50.4175 25.2025 50.4168 25.201 50.416 25.2001C50.5577 22.5328 51.5849 20.1757 53.4608 20.2672V20.2664Z" fill="#003087"/>
<path fill-rule="evenodd" clip-rule="evenodd" d="M52.3222 16.2061C53.211 19.1569 51.9255 21.3107 50.2011 21.2611C50.1971 21.2563 50.1931 21.2516 50.1898 21.246C50.2124 21.2701 51.3142 19.2014 51.3904 18.6264C51.413 18.649 50.3532 20.6626 50.1898 21.246C50.1888 21.2442 50.1873 21.2435 50.1865 21.2417C49.9559 18.6628 50.5832 16.2878 52.323 16.2061H52.3222Z" fill="#003087"/>
<path fill-rule="evenodd" clip-rule="evenodd" d="M50.6672 12.4302C51.9196 15.189 51.0671 17.3889 49.4869 17.5333C49.4827 17.5282 49.4786 17.5243 49.4738 17.5195C49.4983 17.5404 50.192 15.4272 50.1756 14.8642C50.1992 14.8837 49.5338 16.9386 49.4738 17.5195C49.4723 17.5187 49.4714 17.5169 49.4706 17.5162C48.8691 15.0529 49.086 12.6821 50.6672 12.4302Z" fill="#003087"/>
<path fill-rule="evenodd" clip-rule="evenodd" d="M48.6048 8.8291C50.1657 11.3839 49.7269 13.5887 48.3125 13.8964C48.3078 13.8925 48.303 13.8884 48.2988 13.8851C48.3239 13.9021 48.6284 11.7832 48.5279 11.2389C48.5514 11.2542 48.2633 13.3158 48.2988 13.8851C48.2973 13.8844 48.2964 13.8827 48.2949 13.8818C47.3646 11.5563 47.197 9.22182 48.6048 8.8291Z" fill="#003087"/>
<path fill-rule="evenodd" clip-rule="evenodd" d="M41.8708 38.9556C40.697 41.6415 41.0458 44.5584 43.1161 45.8349C43.1241 45.8317 43.1322 45.8286 43.1394 45.8253C43.1913 45.805 42.836 42.6874 42.7808 42.0367C42.8244 42.0134 43.4138 44.9771 43.1394 45.8253C43.1418 45.8236 43.1435 45.8236 43.146 45.8229C45.114 42.8121 44.2525 39.5534 41.8708 38.9564V38.9556Z" fill="#003087"/>
<path fill-rule="evenodd" clip-rule="evenodd" d="M43.8362 35.0293C42.9214 37.6804 43.501 40.4604 45.5686 41.562C45.5761 41.5588 45.5824 41.5547 45.5898 41.5514C45.6343 41.5313 45.0353 38.565 44.9348 37.9429C44.9721 37.9194 45.7718 40.7268 45.5898 41.5514C45.5913 41.5507 45.5938 41.5499 45.5963 41.5484C47.1903 38.5635 46.1354 35.4861 43.8372 35.0293H43.8362Z" fill="#003087"/>
<path fill-rule="evenodd" clip-rule="evenodd" d="M45.1961 31.2192C44.661 33.8607 45.5628 36.4575 47.6434 37.2893C47.6498 37.2853 47.6554 37.2812 47.662 37.2764C47.6992 37.2538 46.7561 34.4892 46.587 33.9018C46.6177 33.8776 47.7234 36.4745 47.662 37.2764C47.6637 37.2755 47.6652 37.274 47.6667 37.2732C48.7686 34.2704 47.407 31.4346 45.1961 31.2192Z" fill="#003087"/>
<path fill-rule="evenodd" clip-rule="evenodd" d="M45.8449 27.5199C45.7332 30.1247 46.9607 32.4876 49.0209 33.0157C49.0259 33.0109 49.0316 33.0059 49.0364 33.0011C49.0663 32.976 47.7759 30.4627 47.5322 29.9198C47.5564 29.8939 48.9699 32.2341 49.0364 33.0011C49.0379 32.9995 49.0397 32.9986 49.0404 32.997C49.612 30.012 47.9322 27.4646 45.8449 27.5189V27.5199Z" fill="#003087"/>
<path fill-rule="evenodd" clip-rule="evenodd" d="M46.4258 24.0609C46.54 26.5945 47.8871 28.788 49.8551 29.164C49.8599 29.159 49.8641 29.1542 49.8682 29.1494C49.8933 29.1258 48.4741 26.7938 48.2021 26.2835C48.2223 26.26 49.7403 28.422 49.8682 29.1494C49.8689 29.1476 49.8706 29.147 49.8722 29.1452C50.1465 26.2567 48.3688 23.8956 46.4258 24.0609Z" fill="#003087"/>
<path fill-rule="evenodd" clip-rule="evenodd" d="M46.3809 20.7452C46.8778 23.1802 48.4556 25.1078 50.325 25.2132C50.3282 25.2075 50.3315 25.2027 50.3348 25.1979C50.3542 25.1744 48.6889 23.1259 48.3594 22.6666C48.374 22.6439 50.1048 24.5248 50.3348 25.1979C50.3355 25.1961 50.3363 25.1946 50.3372 25.1938C50.146 22.4108 48.1463 20.3557 46.3809 20.7452Z" fill="#003087"/>
<path fill-rule="evenodd" clip-rule="evenodd" d="M45.8633 17.3208C46.6558 19.6513 48.365 21.3523 50.0965 21.2656C50.0991 21.2608 50.1015 21.2551 50.1039 21.2495C50.1186 21.2274 48.3115 19.4179 47.9465 19.0016C47.9569 18.9805 49.8018 20.6273 50.1039 21.2495C50.1048 21.2477 50.1055 21.2468 50.1055 21.2453C49.5551 18.5932 47.4364 16.783 45.8633 17.3216V17.3208Z" fill="#003087"/>
<path fill-rule="evenodd" clip-rule="evenodd" d="M44.918 14.1597C46.0043 16.362 47.8235 17.8224 49.39 17.548C49.3918 17.543 49.3925 17.5372 49.3941 17.5316C49.4055 17.5113 47.4802 15.9546 47.082 15.586C47.0891 15.5667 49.0258 16.9679 49.3941 17.5316C49.3941 17.5301 49.3948 17.5284 49.3958 17.5268C48.494 15.0328 46.2781 13.48 44.918 14.1587V14.1597Z" fill="#003087"/>
<path fill-rule="evenodd" clip-rule="evenodd" d="M43.6113 11.0607C44.9553 13.1238 46.8402 14.3533 48.2221 13.9232C48.2228 13.9184 48.2228 13.9127 48.2228 13.9071C48.2301 13.8884 46.2352 12.5738 45.8126 12.2497C45.8174 12.232 47.801 13.4017 48.2228 13.9071C48.2228 13.9054 48.2228 13.9045 48.2236 13.903C47.0174 11.5832 44.7505 10.2718 43.6113 11.0615V11.0607Z" fill="#003087"/>
<path fill-rule="evenodd" clip-rule="evenodd" d="M43.3418 6.90043C43.9514 9.26409 45.3488 11.0176 46.8084 11.0516C46.8109 11.0468 46.8125 11.0421 46.8149 11.037C46.828 11.0218 45.3527 9.15381 45.0556 8.71566C45.0661 8.70105 46.5769 10.4289 46.8149 11.037C46.8149 11.0355 46.8157 11.0347 46.8167 11.0332C46.423 8.47176 44.6873 6.52056 43.3418 6.90043Z" fill="#003087"/>
<path fill-rule="evenodd" clip-rule="evenodd" d="M13.3838 47.7094C10.5948 47.5911 9.41934 47.3659 9.05664 46.7212C9.59175 51.6313 10.6345 54.8649 12.4195 55.6474C22.6202 54.7394 31.7912 54.7394 41.9919 55.6474C43.7762 54.8649 44.8197 51.6322 45.3548 46.7212C44.9921 47.3659 43.8166 47.5911 41.0276 47.7094C31.8503 46.7495 22.562 46.7495 13.3846 47.7094H13.3838Z" fill="#003087"/>
<path fill-rule="evenodd" clip-rule="evenodd" d="M15.746 52.5646C15.7332 52.5726 15.7138 52.5759 15.6878 52.5759C15.6676 52.5759 15.644 52.5744 15.6183 52.5693C15.5924 52.5646 15.5665 52.5613 15.5405 52.5565H15.202L15.0969 52.5636L14.9956 52.575C14.9697 52.575 14.9496 52.5669 14.9332 52.5517C14.9179 52.5362 14.9099 52.5191 14.9099 52.5007C14.9099 52.4828 14.9162 52.4673 14.9293 52.4561C14.9421 52.4446 14.9552 52.4333 14.9681 52.4229C14.9786 52.4098 14.9836 52.3856 14.9836 52.3492C14.9836 52.1619 14.9713 51.9165 14.9463 51.612C14.9212 51.3076 14.892 51.0928 14.859 50.9688C14.8459 50.9219 14.8306 50.8855 14.8127 50.8603C14.7843 50.8238 14.748 50.806 14.7042 50.806C14.6395 50.806 14.6071 50.8375 14.6071 50.8999C14.6071 50.9178 14.6088 50.9348 14.6128 50.9502C14.6168 50.9655 14.6201 50.9786 14.6216 50.989C14.6234 50.9998 14.6249 51.0197 14.6257 51.0499C14.6272 51.0797 14.6281 51.1065 14.6305 51.1292V52.3322C14.6305 52.3766 14.6347 52.4041 14.6418 52.4148C14.6605 52.4252 14.6743 52.4342 14.6848 52.4423C14.7083 52.4601 14.7196 52.4834 14.7196 52.5126C14.7196 52.5541 14.6922 52.575 14.6355 52.575C14.595 52.575 14.5625 52.5719 14.5391 52.5654C14.5157 52.5588 14.4963 52.5556 14.4775 52.5556H14.1058C14.0703 52.5556 14.0363 52.5588 14.0038 52.5654C13.9725 52.5719 13.9522 52.575 13.9441 52.575C13.8955 52.575 13.8711 52.5517 13.8711 52.5054C13.8711 52.4795 13.8792 52.4601 13.8955 52.447C13.9116 52.4342 13.9295 52.4196 13.9471 52.4041C13.9569 52.3889 13.9635 52.3661 13.9668 52.3361C13.9698 52.3063 13.9716 52.2666 13.9716 52.217C13.9716 52.1757 13.9716 52.0325 13.9716 51.7877C13.9716 51.5432 13.9716 51.3251 13.9716 51.1367V50.6586V50.4489C13.9716 50.3759 13.9716 50.3046 13.9716 50.2349C13.9716 50.1653 13.9716 50.0965 13.9716 50.0293C13.9716 49.9775 13.9594 49.941 13.9343 49.9208C13.9101 49.9005 13.897 49.8859 13.897 49.8778C13.897 49.8438 13.9245 49.8269 13.9811 49.8269C13.9942 49.8269 14.0095 49.8275 14.0291 49.8284C14.0485 49.8299 14.0703 49.8317 14.0963 49.834H14.4711L14.5472 49.8259L14.6201 49.8179C14.6427 49.8179 14.662 49.8203 14.6776 49.8259C14.6929 49.8307 14.7002 49.8453 14.7002 49.8689C14.7002 49.8891 14.6864 49.91 14.6597 49.9312C14.6474 49.9417 14.6385 49.9548 14.6337 49.9701C14.629 49.9855 14.6266 50.0026 14.6266 50.0204C14.6266 50.0592 14.6266 50.0892 14.6266 50.1103V50.4519C14.6266 50.4698 14.6266 50.4909 14.6266 50.5145C14.6266 50.5379 14.6266 50.5614 14.6266 50.5841C14.6266 50.5946 14.629 50.6085 14.6347 50.627C14.6395 50.6449 14.6516 50.661 14.6695 50.6732C14.6871 50.6861 14.7092 50.6926 14.7349 50.6926C14.7552 50.6926 14.7754 50.6887 14.7948 50.6812C14.8142 50.6732 14.8345 50.6634 14.8548 50.6505C14.9293 50.6034 14.9876 50.542 15.0289 50.4642C15.0629 50.4018 15.0919 50.3127 15.1178 50.1978C15.1439 50.0827 15.1763 49.9953 15.2151 49.9354C15.2814 49.8317 15.3737 49.7798 15.4895 49.7798C15.5519 49.7798 15.6043 49.7985 15.6481 49.8365C15.692 49.8737 15.7147 49.9328 15.7147 50.013C15.7147 50.0779 15.6944 50.1281 15.6547 50.1645C15.6141 50.2009 15.568 50.2188 15.517 50.2188C15.4967 50.2188 15.4701 50.2107 15.4394 50.1952C15.4087 50.1799 15.3866 50.1719 15.3729 50.1719C15.3445 50.1719 15.3162 50.1879 15.2879 50.2205C15.2595 50.2528 15.2449 50.2981 15.2449 50.355C15.2449 50.3962 15.2506 50.4367 15.262 50.4755C15.2733 50.5151 15.2952 50.5656 15.326 50.6279C15.4319 50.8304 15.4993 50.9754 15.5283 51.0603C15.6013 51.2766 15.6368 51.5342 15.6368 51.833C15.6368 51.9449 15.6377 52.0381 15.641 52.1126C15.6433 52.1863 15.6523 52.2696 15.6685 52.3638C15.6757 52.4002 15.6863 52.4229 15.6992 52.4318C15.712 52.4407 15.7266 52.4495 15.7437 52.4569C15.7606 52.4649 15.7687 52.4819 15.7687 52.5078C15.7687 52.5338 15.76 52.5517 15.7412 52.5621L15.746 52.5646ZM38.5641 51.1316C38.5641 51.3519 38.5504 51.5302 38.5212 51.6678C38.475 51.8929 38.3852 52.0897 38.2533 52.2583C38.1495 52.3871 38.0419 52.4772 37.9309 52.5264C37.8405 52.5654 37.7254 52.5848 37.5855 52.5848L37.434 52.5744C37.4 52.5693 37.3707 52.5661 37.3466 52.5631C37.3215 52.5598 37.3021 52.558 37.2857 52.558H37.0444C37.0008 52.558 36.9626 52.5631 36.9319 52.5717C36.9004 52.5807 36.8777 52.5857 36.8624 52.5857C36.8365 52.5857 36.8138 52.5782 36.7944 52.5636C36.775 52.55 36.7652 52.5329 36.7652 52.515C36.7652 52.4997 36.7733 52.4843 36.7887 52.4682C36.7912 52.4657 36.804 52.456 36.8276 52.439C36.8511 52.4219 36.8672 52.405 36.8762 52.3862C36.8851 52.3677 36.8914 52.3492 36.8941 52.3295C36.8964 52.3102 36.8979 52.2851 36.8979 52.2543C36.8979 52.2177 36.8964 52.1611 36.8923 52.0834C36.8883 52.0056 36.8866 51.9586 36.8866 51.9432V50.0965C36.8866 50.0422 36.8866 50.0074 36.8866 49.9912C36.8866 49.9629 36.8713 49.9409 36.8421 49.9246C36.8121 49.9095 36.7977 49.8898 36.7977 49.8665C36.7977 49.843 36.8058 49.8292 36.8228 49.8236C36.8398 49.8186 36.8607 49.8153 36.8866 49.8153C36.9361 49.8153 36.9724 49.8186 36.9951 49.8251C37.0187 49.8317 37.0414 49.8349 37.0647 49.8349H37.3645C37.4113 49.8349 37.4486 49.8332 37.4768 49.8307C37.5935 49.8203 37.6582 49.8153 37.6711 49.8153C37.731 49.8153 37.7877 49.8209 37.842 49.8332C37.8963 49.8445 37.9562 49.8689 38.0209 49.9053C38.2435 50.0243 38.3982 50.2172 38.4833 50.4836C38.5372 50.657 38.5649 50.8733 38.5649 51.1316H38.5641ZM37.833 51.595V50.6416C37.833 50.4481 37.8307 50.316 37.8259 50.248C37.8208 50.1799 37.8113 50.12 37.7975 50.0696C37.7844 50.0195 37.7635 49.9832 37.7343 49.9611C37.706 49.9393 37.6744 49.9279 37.6394 49.9279C37.6087 49.9279 37.5797 49.9393 37.5553 49.9611C37.5302 49.9832 37.5181 50.0204 37.5181 50.0714C37.5181 50.1078 37.5213 50.1347 37.527 50.1531C37.5327 50.171 37.5351 50.1839 37.5351 50.1919C37.5465 50.2414 37.553 50.2966 37.553 50.3589V51.7042L37.5417 52.1037C37.5417 52.1629 37.5375 52.2105 37.5302 52.247C37.5231 52.2835 37.5189 52.3101 37.5189 52.329C37.5189 52.3856 37.5344 52.4252 37.5651 52.4488C37.5861 52.464 37.612 52.472 37.6427 52.472C37.7028 52.472 37.7466 52.4333 37.7748 52.3564C37.7877 52.3232 37.799 52.277 37.808 52.2186C37.8169 52.1604 37.8232 52.0922 37.8274 52.0129C37.8315 51.9344 37.833 51.847 37.833 51.7512V51.5966V51.595ZM40.5379 52.5102C40.5379 52.5281 40.5298 52.5452 40.5143 52.5613C40.4991 52.5767 40.4747 52.5848 40.44 52.5848C40.4188 52.5848 40.4009 52.5824 40.3856 52.5774C40.3702 52.5726 40.3532 52.5686 40.3355 52.5636C40.3168 52.5588 40.2958 52.5573 40.2708 52.5573C40.2464 52.5573 40.2278 52.5573 40.2142 52.5573H40.1396H39.9251L39.7849 52.5686C39.7664 52.5711 39.7494 52.5744 39.7324 52.5782C39.7154 52.5824 39.6942 52.5839 39.6683 52.5839C39.6084 52.5839 39.5785 52.5646 39.5785 52.5257C39.5785 52.4866 39.5971 52.4584 39.6343 52.4423C39.6716 52.4252 39.6942 52.4131 39.7023 52.405C39.7211 52.3862 39.7298 52.3579 39.7298 52.3191V52.2374C39.7194 52.1417 39.6693 52.0728 39.5785 52.0316C39.521 52.0056 39.4596 51.9926 39.3915 51.9926C39.283 51.9926 39.2054 52.0268 39.1583 52.0948C39.1276 52.1425 39.1114 52.2001 39.1114 52.2714C39.1114 52.328 39.1243 52.3718 39.1493 52.4002C39.1649 52.4187 39.1883 52.4342 39.2215 52.4495C39.2546 52.4634 39.2708 52.4851 39.2708 52.5135C39.2708 52.537 39.2708 52.5532 39.2708 52.5613C39.2708 52.5767 39.2498 52.5848 39.2084 52.5848L39.1 52.5711L38.9754 52.5573L38.8087 52.5686C38.7956 52.5686 38.7843 52.5669 38.7738 52.5646C38.7373 52.554 38.7195 52.5347 38.7195 52.5063C38.7195 52.4697 38.7398 52.4455 38.7795 52.4324C38.82 52.4196 38.8475 52.4017 38.8629 52.3799C38.8782 52.3579 38.892 52.3069 38.9033 52.226C38.9147 52.1458 38.9253 52.0721 38.9325 52.0048C38.9762 51.6752 39.0247 51.3869 39.0766 51.1373C39.113 50.956 39.1526 50.7889 39.1971 50.6359C39.2513 50.4415 39.2797 50.3394 39.2821 50.3291C39.2976 50.2536 39.3056 50.1969 39.3056 50.1579C39.3056 50.1086 39.2976 50.0753 39.2806 50.0568C39.2636 50.0389 39.2352 50.0195 39.1956 50.0001C39.155 49.9807 39.1347 49.9491 39.1347 49.9044C39.1347 49.8785 39.1455 49.8591 39.1664 49.8463C39.1866 49.8332 39.2117 49.8269 39.24 49.8269C39.2603 49.8269 39.2991 49.8292 39.3542 49.8349C39.41 49.8397 39.4408 49.8421 39.4458 49.8421L39.5389 49.8349C39.5493 49.8325 39.5938 49.8269 39.6731 49.8171C39.7524 49.8073 39.8085 49.8033 39.8425 49.8033C39.886 49.8033 39.9185 49.809 39.9379 49.8203C39.9574 49.8317 39.9761 49.8609 39.9947 49.9077C40.0415 50.022 40.099 50.2876 40.1679 50.7048C40.2368 51.122 40.2965 51.5666 40.3484 52.0388C40.3639 52.1863 40.372 52.2615 40.372 52.2639C40.3872 52.3441 40.4149 52.3978 40.4536 52.4234C40.4692 52.4342 40.4861 52.4431 40.5047 52.4511C40.5283 52.4664 40.5396 52.4861 40.5396 52.5094L40.5379 52.5102ZM39.6635 51.6898C39.6635 51.6299 39.6612 51.5812 39.6555 51.5415C39.6504 51.5025 39.6295 51.386 39.5932 51.1916C39.5825 51.1373 39.5737 51.0862 39.5655 51.0386C39.5573 50.9908 39.5541 50.947 39.5541 50.9082V50.8304C39.5541 50.7997 39.5502 50.7761 39.5427 50.7605C39.5276 50.7299 39.5016 50.7137 39.4652 50.7137C39.3874 50.7137 39.3212 50.8563 39.2668 51.1415C39.2254 51.3618 39.2045 51.5383 39.2045 51.6701C39.2045 51.761 39.2304 51.8217 39.2821 51.8533C39.3104 51.8712 39.3534 51.881 39.41 51.881H39.4918C39.5648 51.881 39.614 51.8574 39.64 51.8112C39.6555 51.7829 39.6635 51.7423 39.6635 51.6905V51.6898ZM25.0385 50.8456H21.8091V50.6634H25.0385V50.8456ZM17.3629 49.9166C17.3394 49.9425 17.3168 49.9686 17.2932 49.9945C17.2649 50.0381 17.2503 50.0932 17.2503 50.1579V51.6671C17.2503 52.0039 17.2227 52.2299 17.1685 52.3434C17.0835 52.5224 16.8926 52.6116 16.597 52.6116C16.3322 52.6116 16.1484 52.5296 16.0449 52.3668C15.9753 52.255 15.9396 52.0995 15.9396 51.9004V50.0842C15.9396 50.0607 15.9396 50.0374 15.9396 50.0147C15.9348 49.9864 15.9226 49.9628 15.9048 49.945C15.8967 49.9402 15.8895 49.9336 15.8814 49.9256C15.8626 49.91 15.8537 49.8916 15.8537 49.8713C15.8537 49.8349 15.8821 49.8171 15.9396 49.8171C15.968 49.8171 15.9924 49.8203 16.0118 49.8269C16.0311 49.8332 16.0643 49.8365 16.1105 49.8365H16.3946C16.41 49.8365 16.4341 49.8332 16.4681 49.8269C16.5021 49.8203 16.5266 49.8171 16.5419 49.8171H16.6238C16.6755 49.8171 16.7014 49.8325 16.7014 49.8641C16.7014 49.8874 16.6934 49.9077 16.6763 49.9238C16.6594 49.941 16.6432 49.9572 16.6269 49.9724C16.6149 49.988 16.6083 50.0097 16.6083 50.0389C16.6083 50.0544 16.6083 50.0836 16.6083 50.1265C16.6083 50.1693 16.6083 50.1994 16.6083 50.2178V51.3803C16.6083 51.5512 16.605 51.6711 16.5985 51.74C16.5922 51.8088 16.5889 51.8452 16.5889 51.8509C16.5889 51.9756 16.5979 52.0647 16.6164 52.1191C16.648 52.2123 16.7119 52.2591 16.8091 52.2591C16.9159 52.2591 16.9856 52.1903 17.0173 52.0534C17.0324 51.983 17.0405 51.8428 17.0405 51.6323V50.3508C17.0405 50.3144 17.0405 50.2804 17.0405 50.248C17.0405 50.2155 17.0405 50.1839 17.0405 50.1522C17.0405 50.1134 17.0382 50.0819 17.0325 50.0568C17.0277 50.0318 17.0148 50.0067 16.9952 49.9807C16.9848 49.9676 16.9677 49.9515 16.9427 49.9321C16.9176 49.9125 16.9054 49.8916 16.9054 49.868C16.9054 49.834 16.9257 49.8171 16.9669 49.8171C16.98 49.8171 17.0009 49.8203 17.0292 49.8269C17.0569 49.8332 17.0772 49.8365 17.0868 49.8365H17.2099C17.2667 49.8317 17.3078 49.8284 17.3337 49.8284C17.3775 49.8284 17.3993 49.8388 17.3993 49.8591C17.3993 49.8697 17.388 49.8891 17.3644 49.9175L17.3629 49.9166ZM18.9212 50.286C18.9212 50.3613 18.9108 50.4141 18.8904 50.4433C18.8702 50.4731 18.8451 50.4877 18.8168 50.4877C18.7625 50.4877 18.7261 50.4602 18.7084 50.406C18.693 50.3258 18.6775 50.2608 18.6623 50.2115C18.6282 50.0997 18.5861 50.0172 18.536 49.9628C18.4857 49.9085 18.4371 49.8808 18.3903 49.8808C18.3667 49.8808 18.3464 49.8883 18.3294 49.9029C18.3125 49.9166 18.3019 49.9321 18.2963 49.9474C18.2914 49.9629 18.2914 49.9888 18.2963 50.0252C18.3044 50.0794 18.3077 50.115 18.3077 50.132C18.3077 50.1493 18.3077 50.1701 18.3077 50.1961V51.4459V51.9732V52.1676V52.2608C18.3077 52.3328 18.3175 52.3856 18.3369 52.4196C18.3563 52.4536 18.4024 52.4697 18.4744 52.4697C18.5182 52.4697 18.5537 52.4511 18.5796 52.4131C18.6056 52.3758 18.6184 52.3303 18.6184 52.2786C18.6184 52.2681 18.616 52.251 18.6103 52.2276C18.6056 52.204 18.6024 52.187 18.6024 52.1775C18.6024 52.1337 18.616 52.093 18.6428 52.0567C18.6704 52.0202 18.7092 52.0024 18.7618 52.0024C18.8055 52.0024 18.8388 52.0179 18.8607 52.0486C18.8824 52.0793 18.8937 52.1181 18.8937 52.1652C18.8937 52.2535 18.8428 52.345 18.7424 52.439C18.641 52.5338 18.5262 52.5807 18.3968 52.5807C18.1764 52.5807 17.9903 52.4584 17.8373 52.2153C17.6639 51.9384 17.5765 51.5626 17.5765 51.0887C17.5765 50.6724 17.652 50.3353 17.8023 50.0794C17.9369 49.8519 18.094 49.7376 18.2727 49.7376C18.3223 49.7376 18.3684 49.7466 18.4129 49.7651C18.4567 49.7831 18.4874 49.7959 18.5044 49.8025C18.5214 49.809 18.54 49.8123 18.5611 49.8123C18.5919 49.8123 18.6169 49.7977 18.6347 49.7675C18.6533 49.7376 18.6736 49.7231 18.6971 49.7231C18.7643 49.7231 18.8031 49.7336 18.8136 49.7538C18.8218 49.801 18.8305 49.8463 18.8413 49.8898C18.8645 49.9757 18.8809 50.0389 18.8914 50.0804C18.9116 50.1579 18.9221 50.2253 18.9221 50.2828L18.9212 50.286ZM20.8101 52.5102C20.8101 52.5517 20.7851 52.5726 20.7341 52.5726C20.7186 52.5726 20.6918 52.5702 20.6538 52.5646C20.615 52.5598 20.5858 52.5573 20.5656 52.5573H20.2596C20.2392 52.5573 20.2133 52.5588 20.1826 52.5613C20.1519 52.5636 20.1202 52.5678 20.0872 52.5726C20.0466 52.5726 20.0256 52.5556 20.0256 52.5224C20.0256 52.4989 20.0376 52.4715 20.062 52.4405C20.0766 52.4252 20.0839 52.4041 20.0839 52.3781C20.0839 52.3572 20.0839 52.3417 20.0839 52.3313V51.3633C20.0839 51.249 20.0724 51.1713 20.0499 51.1301C20.0263 51.0887 19.9866 51.0678 19.9309 51.0678C19.8766 51.0678 19.8419 51.0847 19.8255 51.1179C19.8094 51.1519 19.8005 51.185 19.8005 51.2193V51.3049V51.4297V52.3361C19.8005 52.3799 19.8086 52.4091 19.824 52.4234C19.8393 52.4382 19.8482 52.4462 19.8514 52.4488C19.867 52.464 19.875 52.4861 19.875 52.515C19.875 52.554 19.8506 52.5734 19.8023 52.5734C19.7867 52.5734 19.7617 52.5711 19.7253 52.5654C19.6895 52.5604 19.6612 52.558 19.6409 52.558H19.3406C19.3148 52.558 19.2856 52.5598 19.2516 52.5621C19.2186 52.5646 19.1819 52.5686 19.1439 52.5734C19.1001 52.5734 19.0784 52.5565 19.0784 52.5233C19.0784 52.4867 19.0905 52.4626 19.1157 52.4495C19.1406 52.4365 19.1529 52.396 19.1529 52.328C19.1529 52.1596 19.1496 51.9731 19.1431 51.7674C19.1366 51.5626 19.1335 51.4393 19.1335 51.3973C19.1335 51.2628 19.135 51.057 19.1392 50.7801C19.1431 50.5038 19.1472 50.2545 19.1529 50.03C19.1577 49.9832 19.1505 49.9507 19.1294 49.9328C19.1139 49.9247 19.1019 49.9175 19.092 49.9095C19.0832 49.9012 19.0784 49.8883 19.0784 49.8705C19.0784 49.8397 19.0995 49.8236 19.1406 49.8236C19.1851 49.8317 19.2168 49.8349 19.2347 49.8349H19.5982C19.6654 49.8349 19.7115 49.8332 19.7349 49.8307C19.7585 49.8284 19.7819 49.8259 19.8053 49.8227C19.8524 49.8227 19.8759 49.8373 19.8759 49.8657C19.8759 49.8811 19.8702 49.8949 19.858 49.9062C19.8458 49.9175 19.8345 49.9288 19.8249 49.9392C19.8151 49.9498 19.8094 49.962 19.8061 49.9766C19.8038 49.9903 19.8023 50.0252 19.8023 50.0794V50.6044C19.8023 50.6902 19.8053 50.7534 19.8118 50.7947C19.8174 50.836 19.8264 50.8682 19.8368 50.8918C19.8466 50.9153 19.8619 50.9316 19.884 50.9404C19.9057 50.9494 19.9284 50.9542 19.9535 50.9542C20.0012 50.9542 20.0353 50.9412 20.0555 50.9153C20.0757 50.8894 20.0862 50.8521 20.0862 50.8027V50.6431V50.0794C20.0862 50.0276 20.0847 49.9927 20.083 49.9742C20.0806 49.9555 20.0774 49.9434 20.0724 49.9354C20.0611 49.9246 20.0532 49.9166 20.0484 49.9118C20.0346 49.8987 20.028 49.8835 20.028 49.8647C20.028 49.8365 20.0474 49.8219 20.0855 49.8219C20.1033 49.8219 20.1227 49.8236 20.1446 49.8259C20.1665 49.8284 20.1882 49.8307 20.2118 49.834H20.6327C20.6515 49.834 20.6732 49.8325 20.7024 49.8284C20.7308 49.8242 20.746 49.8227 20.7484 49.8227C20.7922 49.8227 20.8134 49.8373 20.8134 49.8657C20.8134 49.8939 20.7995 49.9151 20.7728 49.9279C20.7454 49.9409 20.7323 49.9668 20.7323 50.0058C20.7323 50.0494 20.7356 50.2115 20.7421 50.4886C20.7484 50.7663 20.7517 51.0263 20.7517 51.2678C20.7517 51.6233 20.7492 51.8664 20.7436 51.9985C20.7388 52.1297 20.7346 52.2389 20.7323 52.3271C20.7323 52.3799 20.746 52.4154 20.7728 52.435C20.8003 52.4544 20.8134 52.4795 20.8134 52.5111L20.8101 52.5102ZM27.8014 52.5102C27.8014 52.5281 27.7934 52.5452 27.7782 52.5613C27.7627 52.5767 27.7385 52.5848 27.7037 52.5848C27.6825 52.5848 27.6648 52.5824 27.6493 52.5777C27.634 52.5726 27.617 52.5686 27.5991 52.5636C27.5804 52.5588 27.5595 52.5573 27.5344 52.5573C27.5094 52.5573 27.4906 52.5573 27.4778 52.5573H27.4032H27.1888L27.0486 52.5686C27.0301 52.5711 27.0131 52.5744 26.996 52.5782C26.9791 52.5824 26.9579 52.5839 26.932 52.5839C26.8722 52.5839 26.8422 52.5646 26.8422 52.5257C26.8422 52.4866 26.8609 52.4584 26.898 52.4423C26.9353 52.4252 26.9579 52.4131 26.966 52.405C26.9847 52.3864 26.9937 52.3579 26.9937 52.3191V52.2374C26.9829 52.1417 26.9328 52.0728 26.8422 52.0316C26.7846 52.0056 26.7232 51.9926 26.6552 51.9926C26.5467 51.9926 26.469 52.0268 26.4219 52.0948C26.3912 52.1425 26.3751 52.2001 26.3751 52.2714C26.3751 52.328 26.3879 52.3718 26.4133 52.4002C26.4284 52.4187 26.452 52.4342 26.4852 52.4495C26.5183 52.4634 26.5346 52.4851 26.5346 52.5135C26.5346 52.537 26.5346 52.5532 26.5346 52.5613C26.5346 52.5767 26.5135 52.5848 26.4723 52.5848L26.3637 52.5711L26.2391 52.5573L26.0723 52.5686C26.0594 52.5686 26.0481 52.5669 26.0375 52.5646C26.001 52.554 25.9832 52.5347 25.9832 52.5063C25.9832 52.4697 26.0034 52.4455 26.0431 52.4324C26.0836 52.4196 26.1112 52.4017 26.1266 52.3799C26.1418 52.3579 26.1558 52.3069 26.1671 52.226C26.1785 52.1458 26.189 52.0721 26.1961 52.0048C26.2399 51.6752 26.2885 51.3869 26.3402 51.1373C26.3766 50.956 26.4163 50.7889 26.4609 50.6359C26.5152 50.4415 26.5436 50.3394 26.546 50.3291C26.5613 50.2536 26.5693 50.1969 26.5693 50.1579C26.5693 50.1086 26.5613 50.0753 26.5442 50.0568C26.5271 50.0389 26.4989 50.0195 26.4592 50.0001C26.4189 49.9807 26.3992 49.9491 26.3992 49.9044C26.3992 49.8785 26.41 49.8591 26.4302 49.8463C26.4503 49.8332 26.4755 49.8269 26.5039 49.8269C26.5239 49.8269 26.563 49.8292 26.6179 49.8349C26.674 49.8397 26.7046 49.8421 26.7095 49.8421L26.8025 49.8349C26.813 49.8325 26.8576 49.8269 26.937 49.8171C27.0164 49.8073 27.0721 49.8033 27.1062 49.8033C27.15 49.8033 27.1822 49.809 27.2016 49.8203C27.221 49.8317 27.2398 49.8609 27.2583 49.9077C27.3045 50.022 27.3627 50.2876 27.4316 50.7048C27.5004 51.122 27.5605 51.5666 27.6121 52.0388C27.6275 52.1863 27.6356 52.2615 27.6356 52.2639C27.6511 52.3441 27.6786 52.3977 27.7173 52.4237C27.7328 52.4342 27.7498 52.4431 27.7684 52.4511C27.7919 52.4664 27.8032 52.4861 27.8032 52.5094L27.8014 52.5102ZM26.9272 51.6898C26.9272 51.6299 26.9248 51.5812 26.9192 51.5415C26.9144 51.5025 26.8932 51.386 26.8568 51.1916C26.8463 51.1373 26.8374 51.0862 26.8293 51.0386C26.8213 50.9908 26.818 50.947 26.818 50.9082V50.8304C26.818 50.7997 26.8138 50.7761 26.8067 50.7605C26.7911 50.7299 26.7652 50.7137 26.7289 50.7137C26.6512 50.7137 26.5847 50.8563 26.5304 51.1415C26.4893 51.3618 26.4682 51.5383 26.4682 51.6701C26.4682 51.761 26.4941 51.8217 26.546 51.8533C26.5743 51.8712 26.6172 51.881 26.674 51.881H26.7556C26.8284 51.881 26.8779 51.8574 26.9036 51.8112C26.9192 51.7829 26.9272 51.7423 26.9272 51.6905V51.6898ZM29.7178 51.1316C29.7178 51.3519 29.7042 51.5302 29.675 51.6678C29.6287 51.8929 29.5389 52.0897 29.407 52.2583C29.3033 52.3871 29.1956 52.4772 29.0846 52.5264C28.9939 52.5654 28.8782 52.5848 28.7392 52.5848L28.5877 52.5744C28.5537 52.5693 28.5245 52.5661 28.5003 52.5631C28.4752 52.5598 28.4558 52.558 28.4394 52.558H28.1981C28.1546 52.558 28.1164 52.5631 28.0858 52.5717C28.0541 52.5807 28.0314 52.5857 28.0161 52.5857C27.9902 52.5857 27.9675 52.5782 27.9481 52.5636C27.9288 52.55 27.9189 52.5329 27.9189 52.515C27.9189 52.4997 27.927 52.4843 27.9425 52.4682C27.9449 52.4657 27.9577 52.456 27.9813 52.439C28.0048 52.4219 28.0209 52.405 28.0299 52.3862C28.0388 52.3677 28.0451 52.3492 28.0478 52.3295C28.0501 52.3102 28.0516 52.2851 28.0516 52.2543C28.0516 52.2177 28.0501 52.1611 28.046 52.0834C28.0421 52.0056 28.0403 51.9586 28.0403 51.9432V50.0965C28.0403 50.0422 28.0403 50.0074 28.0403 49.9912C28.0403 49.9629 28.0251 49.9409 27.9959 49.9246C27.9658 49.9095 27.9514 49.8898 27.9514 49.8665C27.9514 49.843 27.9595 49.8292 27.9765 49.8236C27.9935 49.8186 28.0144 49.8153 28.0403 49.8153C28.0898 49.8153 28.1262 49.8186 28.1489 49.8251C28.1724 49.8317 28.1951 49.8349 28.2184 49.8349H28.5182C28.565 49.8349 28.6023 49.8332 28.6307 49.8307C28.7472 49.8203 28.812 49.8153 28.8248 49.8153C28.8847 49.8153 28.9414 49.8209 28.9957 49.8332C29.05 49.8445 29.1099 49.8689 29.1747 49.9053C29.3972 50.0243 29.552 50.2172 29.637 50.4836C29.691 50.657 29.7186 50.8733 29.7186 51.1316H29.7178ZM28.9868 51.595V50.6416C28.9868 50.4481 28.9844 50.316 28.9796 50.248C28.9746 50.1799 28.965 50.12 28.9512 50.0696C28.9381 50.0195 28.9173 49.9832 28.888 49.9611C28.8597 49.9393 28.8281 49.9279 28.7932 49.9279C28.7625 49.9279 28.7335 49.9393 28.709 49.9611C28.684 49.9832 28.6718 50.0204 28.6718 50.0714C28.6718 50.1078 28.6751 50.1347 28.6808 50.1531C28.6864 50.171 28.6888 50.1839 28.6888 50.1919C28.7002 50.2414 28.7067 50.2966 28.7067 50.3589V51.7042L28.6954 52.1037C28.6954 52.1629 28.6912 52.2105 28.6841 52.247C28.676 52.2835 28.6727 52.3101 28.6727 52.329C28.6727 52.3856 28.6881 52.4252 28.7189 52.4488C28.7399 52.464 28.7658 52.472 28.7964 52.472C28.8565 52.472 28.9003 52.4333 28.9285 52.3564C28.9414 52.3232 28.9527 52.277 28.9617 52.2186C28.9706 52.1604 28.977 52.0922 28.9811 52.0129C28.9853 51.9344 28.9868 51.847 28.9868 51.7512V51.5966V51.595ZM31.6843 51.1721C31.6843 51.4889 31.6599 51.7385 31.6107 51.9221C31.5459 52.1637 31.4317 52.3426 31.2689 52.4584C31.1394 52.549 31.0052 52.5946 30.865 52.5946C30.7379 52.5946 30.6189 52.5636 30.5071 52.5012C30.347 52.4106 30.2199 52.2696 30.1268 52.0778C30.0101 51.8339 29.9518 51.5156 29.9518 51.1211C29.9518 50.717 30.028 50.3938 30.1809 50.1531C30.3339 49.9118 30.5355 49.7911 30.7872 49.7911C30.9013 49.7911 31.0067 49.8114 31.1039 49.8511C31.2008 49.8916 31.2886 49.954 31.3661 50.0398C31.498 50.1847 31.5887 50.3834 31.6382 50.6344C31.6689 50.7874 31.685 50.9664 31.685 51.1713L31.6843 51.1721ZM31.0238 52.3775C31.0238 52.3492 31.018 52.3167 31.0067 52.2802C30.9954 52.2437 30.9873 52.2153 30.9825 52.1944C30.9685 52.145 30.9622 52.0534 30.9622 51.9182V51.7391V51.1674V50.2495C30.9622 50.1176 30.9459 50.0267 30.9136 49.9774C30.8811 49.9279 30.8343 49.9037 30.7719 49.9037C30.7248 49.9037 30.6893 49.9158 30.6652 49.941C30.6398 49.9653 30.6279 49.9936 30.6279 50.0243C30.6431 50.0633 30.6544 50.0932 30.661 50.1143C30.6675 50.1347 30.6715 50.1579 30.6747 50.1838C30.6771 50.2098 30.6788 50.2706 30.6788 50.3661C30.6788 50.4829 30.6788 50.5987 30.6788 50.7144C30.6788 50.8304 30.6788 50.9461 30.6788 51.0627V52.1515C30.6788 52.2478 30.6982 52.3265 30.7379 52.3889C30.7776 52.4511 30.831 52.4819 30.899 52.4819C30.9411 52.4819 30.9718 52.4705 30.9929 52.447C31.0138 52.4234 31.0246 52.4002 31.0246 52.3775H31.0238ZM33.2354 52.0275C33.2354 52.0453 33.2339 52.0688 33.2297 52.0972C33.2259 52.1256 33.2184 52.1637 33.2062 52.2123C33.1949 52.26 33.1844 52.3143 33.1772 52.3758C33.1691 52.4365 33.1658 52.5022 33.1658 52.5717C33.1658 52.5928 33.1642 52.6089 33.1602 52.623C33.156 52.6358 33.1358 52.6424 33.1003 52.6424C33.0639 52.6424 33.0338 52.6349 33.0112 52.6212C32.9878 52.6066 32.9634 52.5928 32.9375 52.5782C32.9115 52.5636 32.8509 52.5573 32.7545 52.5573H32.1134L32.0283 52.5686L31.9587 52.5726C31.907 52.5726 31.8809 52.5532 31.8809 52.5143C31.8809 52.4941 31.8891 52.4772 31.906 52.4634C31.9231 52.4503 31.941 52.4357 31.9587 52.4204C31.974 52.3969 31.9823 52.3409 31.9823 52.2535V51.7594V50.6076C31.9823 50.5119 31.9823 50.4179 31.9823 50.3258C31.9823 50.2334 31.9823 50.1427 31.9823 50.052C31.9823 49.9978 31.974 49.9628 31.9571 49.9491C31.94 49.9345 31.9281 49.9238 31.9199 49.9158C31.9021 49.9005 31.8924 49.8826 31.8924 49.8647C31.8924 49.8307 31.9102 49.8138 31.9466 49.8138C31.9596 49.8138 31.9848 49.8179 32.0235 49.8242C32.0623 49.8317 32.0867 49.8349 32.0971 49.8349H32.4608C32.5247 49.8349 32.5675 49.8317 32.5887 49.8242C32.6088 49.8179 32.6314 49.8138 32.655 49.8138C32.7036 49.8138 32.7278 49.834 32.7278 49.8728C32.7278 49.8964 32.7149 49.9158 32.689 49.9312C32.6737 49.9393 32.6616 49.945 32.6541 49.9491C32.646 49.953 32.6412 49.9628 32.6388 49.9781V50.1489V50.3442C32.6388 50.4561 32.6388 50.5671 32.6388 50.6771C32.6388 50.7874 32.6388 50.8974 32.6388 51.0069V51.8712C32.6388 51.958 32.638 52.0283 32.6365 52.0834C32.6347 52.1393 32.6332 52.1944 32.6314 52.2487C32.6314 52.3167 32.6445 52.3661 32.6704 52.3969C32.6964 52.4277 32.7248 52.4438 32.7561 52.4438C32.7999 52.4438 32.8405 52.4267 32.8768 52.3927C32.9285 52.3466 32.9667 52.2721 32.9893 52.1717C33.0022 52.1118 33.0201 52.0647 33.0419 52.0298C33.0639 51.9952 33.1011 51.9774 33.1527 51.9774C33.2103 51.9774 33.2387 51.9943 33.2387 52.0275H33.2354ZM35.1325 52.5094C35.1325 52.5273 35.1242 52.5442 35.1089 52.5604C35.0934 52.5759 35.0691 52.5839 35.0343 52.5839C35.0134 52.5839 34.9956 52.5815 34.98 52.5767C34.9648 52.5717 34.9478 52.5678 34.9299 52.5631C34.9113 52.558 34.8902 52.5565 34.8652 52.5565C34.8401 52.5565 34.8214 52.5565 34.8085 52.5565H34.7339H34.5194L34.3787 52.5678C34.3599 52.5702 34.3429 52.5734 34.3259 52.5777C34.3089 52.5815 34.288 52.5832 34.2621 52.5832C34.2021 52.5832 34.172 52.5636 34.172 52.5248C34.172 52.4861 34.1908 52.4577 34.228 52.4413C34.2654 52.4244 34.288 52.4121 34.2961 52.4041C34.3147 52.3856 34.3235 52.3572 34.3235 52.3182V52.2364C34.313 52.141 34.2627 52.0721 34.172 52.0307C34.1147 52.0048 34.053 51.992 33.9853 51.992C33.8767 51.992 33.7988 52.026 33.752 52.0939C33.7213 52.1417 33.7049 52.1992 33.7049 52.2704C33.7049 52.3271 33.718 52.371 33.7431 52.3993C33.7585 52.4178 33.7819 52.4333 33.8152 52.4488C33.8484 52.4626 33.8645 52.4843 33.8645 52.5126C33.8645 52.5362 33.8645 52.5523 33.8645 52.5604C33.8645 52.5759 33.8436 52.5839 33.8021 52.5839L33.6936 52.5702L33.5689 52.5565L33.4021 52.5678C33.3893 52.5678 33.378 52.5661 33.3676 52.5636C33.3309 52.5532 33.3132 52.5338 33.3132 52.5054C33.3132 52.469 33.3335 52.4446 33.3732 52.4318C33.4135 52.4187 33.4411 52.4008 33.4565 52.3791C33.4719 52.3572 33.4857 52.3063 33.497 52.2251C33.5083 52.145 33.5188 52.0713 33.5262 52.0041C33.5698 51.6743 33.6184 51.3859 33.6703 51.1367C33.7067 50.955 33.7464 50.7882 33.7909 50.6351C33.8451 50.4406 33.8735 50.3386 33.8758 50.3281C33.8913 50.2528 33.8994 50.1961 33.8994 50.1573C33.8994 50.1078 33.8913 50.0746 33.8743 50.0559C33.8572 50.0381 33.829 50.0187 33.7892 49.9993C33.7487 49.9799 33.7293 49.9482 33.7293 49.9037C33.7293 49.8778 33.7398 49.8582 33.76 49.8453C33.7804 49.8325 33.8054 49.8259 33.8338 49.8259C33.854 49.8259 33.8929 49.8284 33.948 49.834C34.0037 49.8388 34.0345 49.8413 34.0393 49.8413L34.1323 49.834C34.1431 49.8317 34.1876 49.8259 34.2669 49.8161C34.3462 49.8066 34.402 49.8025 34.436 49.8025C34.4798 49.8025 34.5121 49.8081 34.5317 49.8194C34.5511 49.8307 34.5697 49.8599 34.5883 49.9068C34.6344 50.021 34.6928 50.2868 34.7615 50.704C34.8303 51.1211 34.8902 51.5658 34.9422 52.0381C34.9574 52.1854 34.9654 52.2609 34.9654 52.2633C34.981 52.3434 35.0084 52.3969 35.0474 52.4229C35.0627 52.4333 35.0797 52.4423 35.0985 52.4503C35.1217 52.4657 35.133 52.4851 35.133 52.5087L35.1325 52.5094ZM34.2579 51.689C34.2579 51.629 34.2556 51.5804 34.2508 51.5407C34.2457 51.5017 34.2247 51.3851 34.1884 51.1906C34.1776 51.1367 34.169 51.0854 34.1609 51.0376C34.1526 50.99 34.1494 50.9462 34.1494 50.9073V50.8295C34.1494 50.7987 34.1454 50.7753 34.138 50.76C34.1227 50.729 34.0968 50.7129 34.0605 50.7129C33.9826 50.7129 33.9163 50.8554 33.8621 51.1405C33.8209 51.3608 33.7998 51.5375 33.7998 51.6696C33.7998 51.7602 33.8257 51.8211 33.8776 51.8526C33.9059 51.8704 33.9486 51.8802 34.0062 51.8802H34.0879C34.1607 51.8802 34.2101 51.8566 34.2362 51.8103C34.2513 51.782 34.2596 51.7414 34.2596 51.6898L34.2579 51.689ZM36.6447 50.2422C36.6447 50.2706 36.6414 50.2918 36.6357 50.3046C36.6291 50.3177 36.6082 50.324 36.5734 50.324C36.5233 50.324 36.4843 50.3094 36.4583 50.2811C36.4317 50.2528 36.4187 50.2163 36.4187 50.1725V50.1063V50.0479C36.4163 50.0139 36.4043 49.987 36.384 49.9661C36.3637 49.945 36.3411 49.9352 36.3175 49.9352C36.2892 49.9352 36.2674 49.9409 36.2513 49.9523C36.2357 49.9637 36.2277 49.9864 36.2277 50.0204C36.2277 50.0356 36.2292 50.0511 36.2309 50.0648C36.2334 50.0794 36.2372 50.0997 36.243 50.1272C36.2486 50.1549 36.2528 50.1879 36.2551 50.2286C36.2569 50.2691 36.2584 50.324 36.2584 50.3938V50.7365V51.3114V51.6962V51.9764V52.2445C36.2584 52.2965 36.2608 52.3351 36.2656 52.3612C36.2706 52.3871 36.2892 52.4115 36.3198 52.4333C36.3515 52.4551 36.3676 52.4795 36.3676 52.5054C36.3676 52.5523 36.3369 52.575 36.2754 52.575C36.2495 52.575 36.2122 52.5719 36.1637 52.5654C36.1152 52.5588 36.0875 52.5556 36.0794 52.5556H35.7152C35.6875 52.5556 35.6568 52.5588 35.6253 52.5654C35.5939 52.5719 35.5694 52.575 35.5548 52.575C35.5088 52.575 35.4853 52.5573 35.4853 52.5208C35.4853 52.4924 35.499 52.4672 35.5249 52.447C35.5372 52.439 35.5491 52.43 35.5614 52.4196C35.5735 52.4091 35.5832 52.3927 35.5906 52.371C35.5978 52.3482 35.6011 52.3152 35.6011 52.2714V52.0033V51.3138V50.7841C35.6011 50.6464 35.6019 50.5128 35.6026 50.3834C35.6044 50.2536 35.6109 50.1531 35.6222 50.0836C35.6238 50.0729 35.6246 50.0577 35.6246 50.0365C35.6246 50.0026 35.6165 49.979 35.5995 49.9644C35.5825 49.9498 35.5622 49.9435 35.5395 49.9435C35.5113 49.9435 35.4869 49.953 35.4675 49.9724C35.4481 49.992 35.4384 50.0276 35.4384 50.0794V50.1493V50.2188C35.423 50.2885 35.3752 50.324 35.2934 50.324C35.2601 50.324 35.2375 50.3168 35.2271 50.3023C35.2157 50.2885 35.21 50.2649 35.21 50.2342C35.21 50.1976 35.2222 50.1395 35.2463 50.0592C35.2708 49.979 35.2861 49.9166 35.2918 49.8728C35.2918 49.8412 35.2967 49.8179 35.3072 49.8009C35.3177 49.7839 35.3404 49.7756 35.3767 49.7756C35.4042 49.7756 35.4262 49.7774 35.44 49.7813C35.4546 49.7854 35.4805 49.7952 35.5193 49.8105C35.5572 49.8259 35.5888 49.834 35.6115 49.834H36.1969C36.2325 49.834 36.26 49.8325 36.2795 49.8284C36.299 49.8242 36.3329 49.8146 36.3816 49.7992C36.4016 49.7944 36.4219 49.7887 36.4431 49.7839C36.4633 49.7789 36.4843 49.7765 36.5045 49.7765C36.5636 49.7765 36.5936 49.8073 36.5936 49.8695L36.617 50.064C36.6244 50.1006 36.6309 50.1329 36.6366 50.1612C36.6414 50.1896 36.6447 50.2172 36.6447 50.2432V50.2422Z" fill="#FEFEFE"/>
<defs>
<radialGradient id="paint0_radial_118_7103" cx="0" cy="0" r="1" gradientUnits="userSpaceOnUse" gradientTransform="translate(18.1191 52.0094) scale(172.232 309.061)">
<stop stop-color="#FBEB1B"/>
<stop offset="1" stop-color="#AB7919"/>
</radialGradient>
</defs>
</svg>
