<svg width="52" height="42" viewBox="0 0 52 42" fill="none" xmlns="http://www.w3.org/2000/svg">
<path d="M33.0368 23.5218C33.0368 27.8241 29.5966 31.3283 25.3348 31.3283C21.0902 31.3283 17.6328 27.8241 17.6328 23.5218C17.6328 19.2195 21.0902 15.7152 25.3348 15.7152C29.5966 15.7152 33.0368 19.2195 33.0368 23.5218Z" fill="#002B7A"/>
<path d="M45.9219 4.84615H36.4869L35.435 1.64769C35.1162 0.662308 34.2078 0 33.1719 0H17.2344C16.1984 0 15.29 0.662308 14.9712 1.64769L13.9194 4.84615H6.07812C3.00219 4.84615 0.5 7.38231 0.5 10.5V36.3462C0.5 39.4638 3.00219 42 6.07812 42H45.9219C48.9978 42 51.5 39.4638 51.5 36.3462V10.5C51.5 7.38231 48.9978 4.84615 45.9219 4.84615ZM25.2031 35.5223C18.6209 35.5223 13.25 30.0946 13.25 23.4069C13.25 16.7354 18.6209 11.2915 25.2031 11.2915C31.8013 11.2915 37.1562 16.7354 37.1562 23.4069C37.1562 30.0946 31.8013 35.5223 25.2031 35.5223ZM44.4397 15.4269C43.4563 16.3881 41.9965 16.3574 41.045 15.4269C40.1143 14.448 40.1525 12.9408 41.045 12.0023C41.9375 11.0977 43.5472 11.0977 44.4397 12.0023C45.3561 12.9312 45.3912 14.4625 44.4397 15.4269Z" fill="#002B7A"/>
</svg>
