<svg width="52" height="51" viewBox="0 0 52 51" fill="none" xmlns="http://www.w3.org/2000/svg">
<path d="M21.5 42H24.5V51H21.5V42Z" fill="#91CDD1"/>
<path d="M27.5 42H30.5V51H27.5V42Z" fill="#91CDD1"/>
<path d="M12.5 51.0001H18.5V39.0001H33.5001V51.0001H39.5001V9H12.5V51.0001ZM30.5001 15H33.5001V18H30.5001V15ZM30.5001 21H33.5001V24H30.5001V21ZM30.5001 27H33.5001V30.0001H30.5001V27ZM24.5 15H27.5V18H24.5V15ZM24.5 21H27.5V24H24.5V21ZM24.5 27H27.5V30.0001H24.5V27ZM18.5 15H21.5V18H18.5V15ZM18.5 21H21.5V24H18.5V21ZM18.5 27H21.5V30.0001H18.5V27ZM18.5 33.0001H33.5001V36.0001H18.5V33.0001Z" fill="#91CDD1"/>
<path d="M0.5 51.0001H9.50002V22.125L0.5 25.5V51.0001ZM3.50001 30H6.50002V33H3.50001V30ZM3.50001 36H6.50002V39H3.50001V36ZM3.50001 42.0001H6.50002V45.0001H3.50001V42.0001Z" fill="#91CDD1"/>
<path d="M42.5 22.125V51.0001H51.5V25.5L42.5 22.125ZM48.5 45.0001H45.5V42.0001H48.5V45.0001ZM48.5 39H45.5V36H48.5V39ZM48.5 33H45.5V30H48.5V33Z" fill="#91CDD1"/>
<path d="M36.5001 2.99989H27.5V-0.00012207H24.5V2.99989H15.5V5.9999H36.5001V2.99989Z" fill="#91CDD1"/>
</svg>
