<svg width="52" height="51" viewBox="0 0 52 51" fill="none" xmlns="http://www.w3.org/2000/svg">
<g clip-path="url(#clip0_118_7868)">
<path d="M9.50326 20.0891H6.44761C4.87086 20.0913 3.35931 20.7186 2.24438 21.8335C1.12945 22.9484 0.502141 24.46 0.5 26.0367V34.7308C0.504037 36.3061 1.13224 37.8156 2.24702 38.9287C3.3618 40.0418 4.87228 40.6677 6.44761 40.6693H9.50326C10.0674 40.6686 10.6083 40.4441 11.0072 40.0452C11.4061 39.6463 11.6306 39.1054 11.6313 38.5412V22.2262C11.6325 21.6607 11.4089 21.1178 11.0098 20.717C10.6108 20.3162 10.0688 20.0904 9.50326 20.0891Z" fill="#A9A9CE"/>
<path d="M44.7245 20.0891H42.4964C41.9309 20.0904 41.3889 20.3162 40.9898 20.717C40.5908 21.1178 40.3672 21.6607 40.3684 22.2262V38.5412C40.3691 39.1054 40.5936 39.6463 40.9925 40.0452C41.3914 40.4441 41.9323 40.6686 42.4964 40.6693H44.7973V40.7875C44.7951 42.0652 44.2866 43.2899 43.3831 44.1933C42.4797 45.0967 41.255 45.6052 39.9773 45.6074H32.6656C32.4597 44.6186 31.9196 43.7309 31.1363 43.0933C30.353 42.4557 29.3741 42.1071 28.364 42.1062H23.1895C17.3694 42.2842 17.3532 50.7489 23.1896 50.9275H28.364C29.3744 50.928 30.3541 50.58 31.1377 49.9421C31.9213 49.3043 32.461 48.4157 32.6656 47.4263H39.9773C40.8826 47.4235 41.7778 47.2365 42.6084 46.8766C43.4391 46.5167 44.1877 45.9915 44.8088 45.333C45.43 44.6744 45.9105 43.8963 46.2212 43.0461C46.5319 42.1958 46.6663 41.2912 46.6161 40.3874C48.0242 39.981 49.262 39.128 50.1428 37.9567C51.0237 36.7855 51.4999 35.3596 51.4997 33.8941V26.8643C51.4983 25.0678 50.784 23.3453 49.5138 22.0751C48.2435 20.8048 46.521 20.0905 44.7245 20.0891Z" fill="#A9A9CE"/>
<path d="M28.1551 5.86576C31.6563 5.86947 35.0417 7.11989 37.7047 9.39294C40.3677 11.666 42.1342 14.8131 42.6876 18.2702C44.6616 18.2201 46.9034 18.2261 48.6534 19.2253C48.4788 14.0718 46.3105 9.18738 42.6055 5.60109C38.9005 2.01481 33.9481 0.00674472 28.7917 0H23.3988C18.3081 0.00557085 13.4129 1.96063 9.71895 5.46346C6.02499 8.96629 3.81287 13.7509 3.53711 18.8341C5.39651 18.4818 7.28322 18.2931 9.17557 18.2702C9.72897 14.8131 11.4955 11.666 14.1584 9.39293C16.8214 7.11988 20.2069 5.86946 23.708 5.86576H28.1551Z" fill="#A9A9CE"/>
</g>
<defs>
<clipPath id="clip0_118_7868">
<rect width="51" height="51" fill="white" transform="translate(0.5)"/>
</clipPath>
</defs>
</svg>
