<svg width="52" height="51" viewBox="0 0 52 51" fill="none" xmlns="http://www.w3.org/2000/svg">
<mask id="mask0_118_7849" style="mask-type:luminance" maskUnits="userSpaceOnUse" x="0" y="0" width="52" height="51">
<path d="M0.5 3.8147e-06H51.5V51H0.5V3.8147e-06Z" fill="white"/>
</mask>
<g mask="url(#mask0_118_7849)">
<path d="M51.4333 35.6848L51.4032 35.6326C49.1229 31.6838 44.1206 30.2812 40.0152 32.4393L33.6724 35.7327C33.6989 36.0067 33.7238 36.3081 33.7238 36.4501C33.7238 38.7669 32.4274 41.0124 30.4209 42.1708C29.5147 42.6941 28.5267 42.9551 27.5214 42.9552C26.4417 42.9552 25.3421 42.654 24.3015 42.0533C24.2833 42.0427 24.2652 42.0318 24.2474 42.0204L18.8001 38.5597C18.1037 38.1172 17.8978 37.1938 18.3402 36.4974C18.7828 35.8009 19.7062 35.595 20.4026 36.0375L25.8213 39.4801C27.1871 40.2574 28.2633 39.966 28.9268 39.5829C29.7563 39.104 30.3756 38.2519 30.6201 37.3176L30.6181 37.3187C30.8647 35.9876 30.399 34.5407 28.8388 33.6399L22.6734 30.0802C22.0738 29.6442 21.3374 29.3862 20.5436 29.3862H12.3242V43.503H13.2778L25.1108 50.3487C25.8522 50.7776 26.6208 50.9924 27.3624 50.9924C28.0589 50.9924 28.7318 50.803 29.336 50.4232L51.1841 36.6911C51.5243 36.4773 51.6345 36.0327 51.4333 35.6848Z" fill="#8787BA"/>
<path d="M7.84194 24.7868H1.96289C1.13763 24.7868 0.46875 25.4558 0.46875 26.281V47.0867C0.46875 47.9118 1.13763 48.5808 1.96289 48.5808H7.84194C8.6671 48.5808 9.33608 47.9118 9.33608 47.0867V26.281C9.33608 25.4558 8.6671 24.7868 7.84194 24.7868Z" fill="#8787BA"/>
<path d="M31.9961 24.3153V28.8864C31.9961 29.7115 32.6651 30.3805 33.4902 30.3805C34.3154 30.3805 34.9844 29.7115 34.9844 28.8864V24.281L34.9276 24.2949C34.6053 24.3735 34.3279 24.4016 33.4142 24.4016C32.5903 24.4015 32.2866 24.3784 31.9961 24.3153Z" fill="#8787BA"/>
<path d="M19.2466 13.9143C22.1107 18.4276 27.1359 21.1069 32.4813 21.1069H34.3555C39.7008 21.1069 44.726 18.4276 47.5901 13.9144C47.6492 13.8214 47.7075 13.7277 47.7648 13.6332C50.0597 9.85685 50.7491 5.42274 49.706 1.14781C49.6121 0.762817 49.3691 0.43092 49.0304 0.225126C48.6917 0.0193348 48.2852 -0.0436192 47.9002 0.0504131L44.5439 0.869398C40.2689 1.91251 36.6508 4.5667 34.3558 8.34309C34.0056 8.91933 33.6933 9.51101 33.4184 10.115C33.1434 9.51101 32.8311 8.91933 32.4809 8.34309C30.186 4.5667 26.5678 1.91251 22.2928 0.869398L18.9365 0.0504131C18.1387 -0.144224 17.3283 0.340473 17.1332 1.13815C16.0867 5.41607 16.7753 9.85396 19.072 13.6332C19.1293 13.7276 19.1875 13.8213 19.2466 13.9143Z" fill="#8787BA"/>
</g>
</svg>
