<svg width="52" height="51" viewBox="0 0 52 51" fill="none" xmlns="http://www.w3.org/2000/svg">
<path d="M35.5 16.5466L37.6101 19C39.4198 17.5589 40.5 15.1287 40.5 12.4998C40.5 9.87096 39.4198 7.4411 37.6101 6L35.5 8.45304C36.5427 9.28386 37.1903 10.8342 37.1903 12.4998C37.1903 14.1654 36.5427 15.7161 35.5 16.5466Z" fill="#8098C3"/>
<path d="M41.334 0L39.5 2.26542C42.0441 4.41831 43.6242 8.34006 43.6242 12.5003C43.6242 16.6599 42.0439 20.5814 39.5 22.7349L41.334 25C44.5686 22.2622 46.5 17.5892 46.5 12.5003C46.5 7.41114 44.5686 2.73813 41.334 0Z" fill="#8098C3"/>
<path d="M17.5 16.5467C16.2488 15.7162 15.4716 14.1656 15.4716 12.5C15.4716 10.8344 16.2488 9.28411 17.4996 8.45364L14.967 6C12.7962 7.44139 11.5 9.87119 11.5 12.5C11.5 15.1288 12.7962 17.5589 14.967 19L17.5 16.5467Z" fill="#8098C3"/>
<path d="M8.3759 12.5003C8.3759 8.34006 9.95634 4.41831 12.5 2.26542L10.6663 0C7.43122 2.73813 5.5 7.41114 5.5 12.5003C5.5 17.5892 7.43122 22.2622 10.6663 25L12.5 22.7349C9.95634 20.5814 8.3759 16.6599 8.3759 12.5003Z" fill="#8098C3"/>
<path d="M19.5 12.4557C19.5 8.89637 22.4155 6 26.0002 6C29.5848 6 32.5 8.89637 32.5 12.4557C32.5 15.3258 30.6032 17.7632 27.9887 18.5998L31.6912 31H20.4131L24.107 18.63C21.4435 17.8229 19.5 15.3609 19.5 12.4557Z" fill="#8098C3"/>
<path d="M34.5 41H18.5L20.0579 34H32.9421L34.5 41Z" fill="#8098C3"/>
<path d="M38.5 51L36.0277 44H16.9729L14.5 51H38.5Z" fill="#8098C3"/>
</svg>
