<svg width="52" height="51" viewBox="0 0 52 51" fill="none" xmlns="http://www.w3.org/2000/svg">
<path d="M44.8917 29.8598C44.3114 22.2537 40.7932 17.4873 37.6895 13.2812C34.8155 9.38728 32.3333 6.02466 32.3333 1.06432C32.3333 0.665882 32.1117 0.30171 31.7602 0.119126C31.4076 -0.0645531 30.9839 -0.0344712 30.6634 0.200009C26.0021 3.55744 22.1128 9.21615 20.7542 14.6154C19.811 18.3743 19.6863 22.6002 19.6687 25.3911C15.3641 24.4656 14.3889 17.9843 14.3786 17.9136C14.3301 17.5775 14.1261 17.2849 13.8292 17.1251C13.5293 16.9674 13.1767 16.956 12.8726 17.1075C12.6469 17.2175 7.33191 19.9358 7.02266 30.7893C7.00099 31.1504 7 31.5126 7 31.8747C7 42.419 15.5238 50.9984 26 50.9984C26.0144 50.9994 26.0299 51.0015 26.0423 50.9984C26.0464 50.9984 26.0505 50.9984 26.0556 50.9984C36.5061 50.9682 45 42.4004 45 31.8747C45 31.3445 44.8917 29.8598 44.8917 29.8598ZM26 48.8735C22.5076 48.8735 19.6667 45.8274 19.6667 42.0829C19.6667 41.9553 19.6657 41.8266 19.6749 41.669C19.7171 40.0899 20.0151 39.0119 20.3419 38.2949C20.9542 39.6188 22.0489 40.8358 23.8271 40.8358C24.4105 40.8358 24.8827 40.3606 24.8827 39.7734C24.8827 38.2607 24.9136 36.5156 25.2878 34.9406C25.6208 33.544 26.4165 32.0583 27.4247 30.8672C27.8731 32.4132 28.7473 33.6644 29.6008 34.8856C30.8223 36.6327 32.085 38.4391 32.3067 41.5196C32.3201 41.7021 32.3335 41.8858 32.3335 42.0829C32.3333 45.8273 29.4924 48.8735 26 48.8735Z" fill="#65B9BF"/>
</svg>
