<svg width="52" height="51" viewBox="0 0 52 51" fill="none" xmlns="http://www.w3.org/2000/svg">
<g clip-path="url(#clip0_118_7827)">
<path d="M37.6476 8.74563V12.7937C37.65 13.3272 37.4487 13.8415 37.0848 14.2317C36.7209 14.6218 36.2218 14.8583 35.6895 14.893V6.6463C36.2219 6.68093 36.721 6.91747 37.0849 7.30762C37.4488 7.69777 37.65 8.21211 37.6476 8.74563Z" fill="#6464A7"/>
<path d="M2.46755 6.6463V14.893C1.93362 14.8603 1.43243 14.6246 1.06663 14.2343C0.700825 13.844 0.498112 13.3286 0.500013 12.7937V8.74563C0.498098 8.2107 0.700806 7.69529 1.06661 7.30499C1.43241 6.91468 1.93362 6.67903 2.46755 6.6463Z" fill="#6464A7"/>
<path d="M8.14371 35.3968H13.2744V36.7524C13.2744 36.9404 13.2375 37.1265 13.1656 37.3001C13.0937 37.4738 12.9883 37.6315 12.8554 37.7644C12.7225 37.8973 12.5648 38.0027 12.3911 38.0746C12.2175 38.1465 12.0314 38.1834 11.8434 38.1834H9.39578C9.20784 38.1834 9.02173 38.1465 8.84808 38.0746C8.67443 38.0027 8.51666 37.8973 8.38376 37.7644C8.25087 37.6315 8.14547 37.4738 8.07359 37.3001C8.00171 37.1265 7.96476 36.9404 7.96484 36.7524V35.3874C8.02413 35.3952 8.08393 35.3984 8.14371 35.3968Z" fill="#6464A7"/>
<path d="M51.0542 31.8477L50.0469 32.8644C49.6016 32.4582 49.0928 32.1275 48.5407 31.8854L47.957 30.6333L48.8984 29.6919C49.1843 29.406 49.572 29.2454 49.9763 29.2454C50.3806 29.2454 50.7684 29.406 51.0542 29.6919C51.3401 29.9778 51.5007 30.3655 51.5007 30.7698C51.5007 31.1741 51.3401 31.5618 51.0542 31.8477Z" fill="#6464A7"/>
<path d="M19.779 30.6333L19.2048 31.8665C19.1295 31.8948 19.0636 31.9324 18.9977 31.9607C18.5204 32.2024 18.0772 32.5063 17.6797 32.8644L16.7854 31.9607L16.6724 31.8477C16.4054 31.5819 16.2476 31.2257 16.2301 30.8493C16.2127 30.4729 16.3369 30.1036 16.5783 29.8143C16.6011 29.7676 16.6332 29.726 16.6724 29.6919C16.8131 29.5488 16.9809 29.4351 17.1659 29.3575C17.351 29.28 17.5496 29.24 17.7503 29.24C17.951 29.24 18.1497 29.28 18.3347 29.3575C18.5198 29.4351 18.6875 29.5488 18.8282 29.6919L19.2142 30.0779L19.779 30.6333Z" fill="#6464A7"/>
<path d="M46.2145 31.3487H21.5215L23.2254 27.6961L25.0423 23.8081C25.1782 23.5514 25.3795 23.3352 25.6258 23.1815C25.8722 23.0277 26.1548 22.9419 26.445 22.9326H41.291C41.5809 22.943 41.8631 23.0294 42.1092 23.183C42.3553 23.3366 42.5569 23.5522 42.6936 23.8081L46.2145 31.3487Z" fill="#6464A7"/>
<path d="M19.6484 47.588H24.9485V48.6706C24.9484 49.1499 24.758 49.6096 24.419 49.9485C24.0801 50.2875 23.6204 50.4779 23.141 50.4781H21.4559C20.9766 50.4779 20.5169 50.2875 20.178 49.9485C19.839 49.6096 19.6486 49.1499 19.6484 48.6706V47.588Z" fill="#6464A7"/>
<path d="M42.7793 47.588H48.0794V48.6706C48.0793 49.1499 47.8888 49.6096 47.5499 49.9485C47.2109 50.2875 46.7512 50.4779 46.2719 50.4781H44.5868C44.1075 50.4779 43.6478 50.2875 43.3088 49.9485C42.9699 49.6096 42.7794 49.1499 42.7793 48.6706V47.588Z" fill="#6464A7"/>
<path d="M44.1331 40.8446C44.8938 40.8446 45.5104 40.228 45.5104 39.4674C45.5104 38.7067 44.8938 38.0901 44.1331 38.0901C43.3725 38.0901 42.7559 38.7067 42.7559 39.4674C42.7559 40.228 43.3725 40.8446 44.1331 40.8446Z" fill="#6464A7"/>
<path d="M22.7523 40.8446C23.5129 40.8446 24.1295 40.228 24.1295 39.4674C24.1295 38.7067 23.5129 38.0901 22.7523 38.0901C21.9916 38.0901 21.375 38.7067 21.375 39.4674C21.375 40.228 21.9916 40.8446 22.7523 40.8446Z" fill="#6464A7"/>
<path d="M48.7105 34.2012C48.2643 33.8079 47.7324 33.5242 47.1572 33.3728C46.8202 33.2778 46.4717 33.2303 46.1216 33.2316H21.6169C21.2706 33.2313 20.9257 33.2756 20.5908 33.3634C20.5814 33.3728 20.5814 33.3728 20.5719 33.3728C20.5531 33.3822 20.5343 33.3822 20.5155 33.3916C20.3869 33.4225 20.261 33.4634 20.1389 33.514C20.0448 33.5517 19.96 33.5893 19.8753 33.627C19.8565 33.6364 19.8471 33.6458 19.8377 33.6458C19.69 33.7193 19.5484 33.8043 19.414 33.9C19.2723 33.9866 19.1398 34.0876 19.0186 34.2012C18.584 34.5714 18.2351 35.0318 17.9961 35.5504C17.7571 36.0689 17.6338 36.6333 17.6348 37.2043V44.7449C17.6358 44.9992 17.7374 45.2429 17.9172 45.4227C18.097 45.6026 18.3407 45.7041 18.595 45.7051H49.1341C49.3885 45.7041 49.6321 45.6026 49.8119 45.4227C49.9918 45.2429 50.0933 44.9992 50.0944 44.7449V37.2043C50.0953 36.6333 49.972 36.069 49.733 35.5504C49.4941 35.0319 49.1452 34.5715 48.7105 34.2012ZM22.756 42.7304C22.1109 42.7313 21.4799 42.5409 20.943 42.1832C20.406 41.8256 19.9872 41.3167 19.7394 40.721C19.4917 40.1253 19.4262 39.4696 19.5511 38.8366C19.6761 38.2037 19.9859 37.622 20.4414 37.1652C20.897 36.7083 21.4777 36.3968 22.1103 36.27C22.7429 36.1433 23.3988 36.2069 23.9952 36.4529C24.5917 36.699 25.1017 37.1163 25.4609 37.6522C25.8201 38.1881 26.0123 38.8185 26.0133 39.4637C26.0112 40.3278 25.6677 41.1561 25.0576 41.768C24.4474 42.3799 23.6201 42.7258 22.756 42.7304ZM37.5078 40.4051H29.5624C29.3127 40.4051 29.0732 40.3059 28.8967 40.1294C28.7201 39.9528 28.6209 39.7134 28.6209 39.4637C28.6209 39.214 28.7201 38.9746 28.8967 38.798C29.0732 38.6215 29.3127 38.5223 29.5624 38.5223H37.5078C37.7575 38.5223 37.9969 38.6215 38.1735 38.798C38.35 38.9746 38.4492 39.214 38.4492 39.4637C38.4492 39.7134 38.35 39.9528 38.1735 40.1294C37.9969 40.3059 37.7575 40.4051 37.5078 40.4051ZM44.1353 42.7304C43.4901 42.7313 42.8592 42.5409 42.3222 42.1832C41.7853 41.8256 41.3665 41.3167 41.1187 40.721C40.871 40.1253 40.8054 39.4696 40.9304 38.8366C41.0553 38.2037 41.3652 37.622 41.8207 37.1652C42.2762 36.7083 42.857 36.3968 43.4896 36.27C44.1222 36.1433 44.7781 36.2069 45.3745 36.4529C45.9709 36.699 46.481 37.1163 46.8402 37.6522C47.1994 38.1881 47.3916 38.8185 47.3925 39.4637C47.3926 40.3285 47.0498 41.158 46.4392 41.7703C45.8286 42.3827 45 42.7279 44.1353 42.7304Z" fill="#6464A7"/>
<path d="M11.6402 23.8738H8.51172C8.56934 24.2886 8.77486 24.6685 9.09042 24.9437C9.40598 25.2189 9.81035 25.3708 10.229 25.3715H13.3585C13.3008 24.9566 13.0951 24.5766 12.7794 24.3014C12.4636 24.0262 12.0591 23.8743 11.6402 23.8738Z" fill="#6464A7"/>
<path d="M30.0045 0H8.14507C7.1365 0.000394209 6.16935 0.401221 5.45619 1.11439C4.74302 1.82755 4.34219 2.7947 4.3418 3.80327V29.7201C4.34098 30.6967 4.71768 31.6357 5.39313 32.341C6.06859 33.0463 6.99052 33.4632 7.9662 33.5045C8.02548 33.5124 8.08529 33.5155 8.14507 33.514H15.6763L15.3468 33.1751C14.8471 32.6734 14.5161 32.0285 14.3997 31.3301C14.2833 30.6316 14.3873 29.9143 14.6972 29.2776V28.9576C14.6963 28.487 14.8822 28.0354 15.214 27.7018C15.5459 27.3682 15.9965 27.1799 16.4671 27.1783H21.3906L23.4146 22.8573C23.717 22.3166 24.1562 21.8649 24.6883 21.5477C25.2204 21.2304 25.8265 21.0587 26.446 21.0498H33.8077V3.80327C33.8073 2.7947 33.4065 1.82755 32.6933 1.11438C31.9802 0.401218 31.013 0.000391716 30.0045 0ZM16.1752 1.23324H21.9743C22.224 1.23324 22.4634 1.33242 22.64 1.50897C22.8165 1.68552 22.9157 1.92497 22.9157 2.17464C22.9157 2.42432 22.8165 2.66377 22.64 2.84031C22.4634 3.01686 22.224 3.11605 21.9743 3.11605H16.1752C15.9256 3.11605 15.6861 3.01686 15.5096 2.84031C15.333 2.66377 15.2338 2.42432 15.2338 2.17464C15.2338 1.92497 15.333 1.68552 15.5096 1.50897C15.6861 1.33242 15.9256 1.23324 16.1752 1.23324ZM15.2621 26.3122C15.2613 26.5617 15.1619 26.8007 14.9855 26.9771C14.8091 27.1535 14.5701 27.2529 14.3207 27.2536H10.235C9.27533 27.2537 8.3548 26.8732 7.67534 26.1955C6.99588 25.5178 6.61296 24.5983 6.61058 23.6386V22.9326C6.61131 22.6831 6.71072 22.4441 6.88711 22.2677C7.0635 22.0913 7.30253 21.9919 7.55198 21.9912H11.6377C12.5973 21.9911 13.5179 22.3716 14.1973 23.0493C14.8768 23.727 15.2597 24.6465 15.2621 25.6062V26.3122ZM31.9626 18.8563C31.962 19.3904 31.7495 19.9025 31.3718 20.2802C30.9942 20.6579 30.4821 20.8703 29.948 20.8709H8.20155C7.66743 20.8703 7.15536 20.6579 6.77768 20.2802C6.4 19.9025 6.18755 19.3904 6.18695 18.8563V6.2415C6.18755 5.70738 6.4 5.19531 6.77768 4.81763C7.15536 4.43995 7.66743 4.2275 8.20155 4.2269H29.948C30.4821 4.22751 30.9942 4.43996 31.3718 4.81764C31.7495 5.19532 31.962 5.70739 31.9626 6.2415V18.8563Z" fill="#6464A7"/>
<path d="M29.9514 6.11249H8.19928C8.12806 6.11249 8.07031 6.17023 8.07031 6.24146V18.8582C8.07031 18.9294 8.12806 18.9871 8.19928 18.9871H29.9514C30.0226 18.9871 30.0803 18.9294 30.0803 18.8582V6.24146C30.0803 6.17023 30.0226 6.11249 29.9514 6.11249Z" fill="#6464A7"/>
</g>
<defs>
<clipPath id="clip0_118_7827">
<rect width="51" height="51" fill="white" transform="translate(0.5)"/>
</clipPath>
</defs>
</svg>
