<svg width="52" height="51" viewBox="0 0 52 51" fill="none" xmlns="http://www.w3.org/2000/svg">
<g clip-path="url(#clip0_118_7878)">
<path d="M50.956 45.4878L39.736 27.2574C39.0964 26.1736 37.9064 25.5 36.625 25.5C35.3436 25.5 34.1536 26.1736 33.531 27.2319L22.3301 45.4325C21.9497 45.9956 21.75 46.6671 21.75 47.3769C21.75 49.3744 23.382 51 25.388 51H47.862C49.868 51 51.5 49.3744 51.5 47.3769C51.5 46.6671 51.3003 45.9956 50.956 45.4878ZM36.625 47.8125C35.452 47.8125 34.5 46.8605 34.5 45.6875C34.5 44.5145 35.452 43.5625 36.625 43.5625C37.798 43.5625 38.75 44.5145 38.75 45.6875C38.75 46.8605 37.798 47.8125 36.625 47.8125ZM38.75 39.3125C38.75 40.4855 37.8001 41.4375 36.625 41.4375C35.4499 41.4375 34.5 40.4855 34.5 39.3125V32.9375C34.5 31.7645 35.4499 30.8125 36.625 30.8125C37.8001 30.8125 38.75 31.7645 38.75 32.9375V39.3125Z" fill="#208C93"/>
<path d="M34.5 5.3125V21.5263C32.5662 22.0788 30.9088 23.3113 29.91 25.0113L18.8175 43.0525C17.9462 44.3275 17.5 45.815 17.5 47.3875C17.5 48.6625 17.7975 49.8525 18.35 50.915C13.6112 50.32 9.82875 46.5588 6.875 38.25C3.66625 29.2188 0.5 30.3025 0.5 27.625C0.5 26.6475 1.5625 25.5 4.75 25.5C9.8075 25.5 13.25 31.875 13.25 31.875V5.3125C13.25 3.54875 14.6737 2.125 16.4375 2.125C18.2013 2.125 19.625 3.54875 19.625 5.3125V27.0938C19.625 27.3913 19.8587 27.625 20.1562 27.625C20.4538 27.625 20.6875 27.3913 20.6875 27.0938V3.1875C20.6875 1.42375 22.1112 0 23.875 0C25.6388 0 27.0625 1.42375 27.0625 3.1875V27.0938C27.0625 27.3913 27.2962 27.625 27.5938 27.625C27.8913 27.625 28.125 27.3913 28.125 27.0938V5.3125C28.125 3.54875 29.5487 2.125 31.3125 2.125C33.0762 2.125 34.5 3.54875 34.5 5.3125Z" fill="#208C93"/>
<path d="M41.9375 11.6875V23.3113C40.5138 21.9938 38.6225 21.25 36.625 21.25C36.2638 21.25 35.9238 21.2712 35.5625 21.3137V11.6875C35.5625 9.92375 36.9863 8.5 38.75 8.5C40.5138 8.5 41.9375 9.92375 41.9375 11.6875Z" fill="#208C93"/>
</g>
<defs>
<clipPath id="clip0_118_7878">
<rect width="51" height="51" fill="white" transform="translate(0.5)"/>
</clipPath>
</defs>
</svg>
