<svg width="52" height="51" viewBox="0 0 52 51" fill="none" xmlns="http://www.w3.org/2000/svg">
<g clip-path="url(#clip0_118_7769)">
<path d="M45.6327 29.3363H4.11062V13.0885C4.11062 12.0956 4.92301 11.2832 5.91593 11.2832H19.4558V7.67257H5.91593C2.93717 7.67257 0.5 10.1097 0.5 13.0885V31.1416V38.3628C0.5 41.3416 2.93717 43.7788 5.91593 43.7788H18.5531V47.3894H15.8451V51H20.3584H27.5796H32.0929V47.3894H29.385V43.7788H42.0221C45.0009 43.7788 47.438 41.3416 47.438 38.3628V31.1416C47.438 30.1487 46.6257 29.3363 45.6327 29.3363ZM19.4558 34.7522H28.4823V38.3628H19.4558V34.7522ZM45.9938 21.754C50.0558 16.4283 49.6947 8.84602 44.8204 3.97168C42.2027 1.35398 38.8628 0 35.2522 0C31.6416 0 28.2115 1.44425 25.6841 3.97168C23.1566 6.49911 21.7124 9.9292 21.7124 13.5398C21.7124 17.1504 23.1566 20.5805 25.6841 23.108C28.2115 25.6354 31.6416 27.0796 35.2522 27.0796C38.231 27.0796 41.1195 26.0867 43.4664 24.2814L48.7018 29.5168L51.2292 26.9894L45.9938 21.754ZM28.2115 20.4903C26.3159 18.5947 25.323 16.1575 25.323 13.4496C25.323 10.8319 26.3159 8.30443 28.2115 6.40885C30.1071 4.51327 32.5442 3.52035 35.2522 3.52035C37.8699 3.52035 40.3973 4.51327 42.2929 6.40885C46.1743 10.2903 46.1743 16.6089 42.2929 20.4903C40.3973 22.3858 37.9602 23.3788 35.2522 23.3788C32.5442 23.469 30.1071 22.3858 28.2115 20.4903ZM42.9248 13.5398H39.3142C39.3142 11.2832 37.5088 9.47788 35.2522 9.47788V5.86726C39.4947 5.86726 42.9248 9.29735 42.9248 13.5398Z" fill="#194593"/>
</g>
<defs>
<clipPath id="clip0_118_7769">
<rect width="51" height="51" fill="white" transform="translate(0.5)"/>
</clipPath>
</defs>
</svg>
