<svg width="52" height="47" viewBox="0 0 52 47" fill="none" xmlns="http://www.w3.org/2000/svg">
<path fill-rule="evenodd" clip-rule="evenodd" d="M41.236 8.00374L46.9944 18.0126C47.0058 18.0324 47.02 18.0466 47.0397 18.058L49.0298 19.2111L49.0306 19.2098L51.1137 20.4167C51.3602 20.56 51.498 20.8194 51.4983 21.0862H51.5V25.9139C51.5 26.2519 51.3208 26.4625 51.061 26.6138L47.037 28.9435C47.0173 28.955 47.0031 28.9692 46.9917 28.989L44.1116 33.9949L44.1129 33.9957L41.2359 38.9963C41.2246 39.0161 41.2193 39.0355 41.2193 39.0583V43.783C41.2193 44.0944 41.0363 44.3629 40.7724 44.4863C40.7689 44.488 40.766 44.4895 40.7627 44.4913L36.6636 46.8663C36.4139 47.0102 36.1174 46.998 35.8863 46.8601L31.8266 44.508C31.8069 44.4966 31.7875 44.4913 31.7648 44.4913H20.235C20.2123 44.4913 20.1928 44.4965 20.1732 44.508L16.1027 46.8663C15.853 47.0102 15.5565 46.998 15.3254 46.8601L13.2507 45.6581L13.2499 45.6594L11.1668 44.4525C10.9203 44.3092 10.7825 44.0498 10.7822 43.783H10.7805V39.0583C10.7805 39.0355 10.7753 39.016 10.7639 38.9963L5.0055 28.9873C4.99409 28.9676 4.97992 28.9533 4.96033 28.9419L2.97021 27.7889L2.96941 27.7902L0.886291 26.5833C0.639788 26.44 0.501959 26.1806 0.501729 25.9138H0.5V21.0861C0.5 20.748 0.679086 20.5374 0.938957 20.3862L4.96298 18.0564C4.98268 18.045 4.99686 18.0308 5.00827 18.011L7.88839 13.005L7.88713 13.0042L10.7641 8.00363C10.7754 7.98385 10.7807 7.96442 10.7807 7.94164V3.21697C10.7807 2.90553 10.9637 2.63699 11.2276 2.5136C11.2311 2.51198 11.234 2.51047 11.2373 2.50862L15.3364 0.13368C15.5861 -0.0103015 15.8826 0.00195737 16.1137 0.13981L20.1734 2.49197C20.1931 2.5033 20.2125 2.50862 20.2352 2.50862H31.765C31.7877 2.50862 31.8072 2.50342 31.8268 2.49197L35.8973 0.13368C36.147 -0.0103015 36.4435 0.00195737 36.6746 0.13981L38.7493 1.34185L38.7501 1.34058L40.8332 2.54748C41.0797 2.69077 41.2175 2.95017 41.2178 3.21697H41.2195V7.94164C41.2194 7.96454 41.2247 7.98408 41.236 8.00374ZM27.6721 20.1831C27.1223 20.0433 26.036 20.0758 25.4308 20.0758C22.2889 20.0758 19.7182 22.6554 19.7182 25.8084V30.3989C19.7182 33.5517 22.289 36.1316 25.4308 36.1316H26.5692C29.711 36.1316 32.2818 33.5518 32.2818 30.3989V25.8099L32.2783 25.6708C32.2754 25.5578 32.1359 25.5072 32.0617 25.5923C31.4016 26.3495 30.7965 26.8671 29.8237 27.3715C29.7815 27.3934 29.7567 27.4341 29.7567 27.4817V30.3989C29.7567 32.1582 28.3223 33.5976 26.5692 33.5976H25.4308C23.6777 33.5976 22.2433 32.1581 22.2433 30.3989V25.8084C22.2433 24.0492 23.6777 22.6097 25.4308 22.6097H26.5692C27.0176 22.6097 27.4433 22.4288 27.7598 22.1112C28.2889 21.5802 28.2608 21.0611 28.257 20.4263C28.2566 20.3689 28.2188 20.3207 28.1634 20.3067L27.6721 20.1831ZM26.5692 13.8985C28.3223 13.8985 29.7567 15.3381 29.7567 17.0972V20.9163C29.7567 22.6755 28.3223 24.115 26.5692 24.115H25.4308C24.9824 24.115 24.5567 24.2959 24.2402 24.6135C23.7101 25.1455 23.7392 25.6657 23.743 26.3021C23.7434 26.3583 23.7795 26.4057 23.8335 26.4209C24.8418 26.7033 25.5152 26.6489 26.5692 26.6489C29.7111 26.6489 32.2818 24.0692 32.2818 20.9163V17.0972C32.2818 13.9445 29.711 11.3646 26.5692 11.3646H25.4308C22.2888 11.3646 19.7182 13.9443 19.7182 17.0972V20.9148L19.7217 21.0539C19.7246 21.1669 19.8641 21.2175 19.9383 21.1324C20.5985 20.3752 21.2033 19.8576 22.1764 19.3532C22.2186 19.3313 22.2434 19.2906 22.2434 19.243V17.0972C22.2434 15.3381 23.6779 13.8985 25.4309 13.8985H26.5692ZM6.61094 28.6833L11.8315 37.7575C11.8655 37.8167 11.9413 37.8371 12.0003 37.8029L15.336 35.872C15.5858 35.728 15.8823 35.7402 16.1133 35.8781L17.4125 36.6307C17.4715 36.665 17.5473 36.6445 17.5813 36.5853L19.0484 34.0351C19.0959 33.9527 19.2137 33.952 19.262 34.0341C19.4968 34.4334 19.7712 34.8116 20.0823 35.1626C20.1182 35.2033 20.124 35.26 20.0969 35.307L18.9165 37.3587C18.8825 37.4179 18.9028 37.494 18.9618 37.5283L20.2688 38.2855C20.5162 38.4281 20.6548 38.6879 20.655 38.955H20.6582V42.8159C20.6582 42.8843 20.7138 42.94 20.7819 42.94H31.2178C31.2859 42.94 31.3414 42.8843 31.3414 42.8159V38.955C31.3414 38.6436 31.5244 38.3751 31.7884 38.2517L33.0393 37.5275C33.0983 37.4934 33.1186 37.4171 33.0846 37.358L31.9039 35.3059C31.8768 35.2588 31.8826 35.2021 31.9185 35.1614C32.2288 34.8111 32.5026 34.4339 32.737 34.0355C32.7853 33.9535 32.9029 33.9541 32.9505 34.0365L34.4172 36.5859C34.4512 36.6451 34.5272 36.6654 34.586 36.6313L35.8972 35.8717C36.1469 35.7278 36.4434 35.74 36.6746 35.8779L39.9988 37.8039C40.0579 37.838 40.1337 37.8176 40.1678 37.7584L42.7789 33.2198L42.7802 33.2206L45.3903 28.6838C45.4244 28.6246 45.404 28.5485 45.3452 28.5143L42.0116 26.5829C41.7642 26.4403 41.6256 26.1806 41.6254 25.9134H41.6221V24.3991C41.6221 24.3308 41.5666 24.275 41.4985 24.275H33.8017C33.735 24.275 33.6802 24.2218 33.6782 24.155L33.6363 22.8522C33.634 22.7818 33.6896 22.7242 33.7599 22.7242H41.4985C41.5666 22.7242 41.6221 22.6685 41.6221 22.6001V21.0858C41.6221 20.7744 41.8052 20.5058 42.0691 20.3825C42.0725 20.3808 42.0754 20.3793 42.0787 20.3775L45.3438 18.4857C45.4028 18.4516 45.4231 18.3754 45.3891 18.3163L40.1685 9.2421C40.1344 9.18289 40.0587 9.16254 39.9997 9.19665L36.664 11.1276C36.4142 11.2716 36.1177 11.2593 35.8867 11.1215L34.5875 10.3689C34.5285 10.3347 34.4527 10.3551 34.4187 10.4143L32.8041 13.2208C32.7577 13.3015 32.6432 13.3042 32.5931 13.2259C32.3471 12.8423 32.0637 12.4802 31.7452 12.1453C31.7067 12.1048 31.6997 12.0461 31.7276 11.9976L33.0835 9.64074C33.1176 9.58153 33.0972 9.50543 33.0382 9.4712L31.7312 8.71394C31.4838 8.57134 31.3452 8.3116 31.345 8.04445H31.3418V4.18378C31.3418 4.11543 31.2862 4.05969 31.2181 4.05969H20.7822C20.7141 4.05969 20.6586 4.11543 20.6586 4.18378V8.04468C20.6586 8.35612 20.4756 8.62466 20.2117 8.74805L18.9608 9.47224C18.9018 9.50636 18.8816 9.58257 18.9156 9.64166L20.2716 11.9988C20.2995 12.0473 20.2925 12.106 20.254 12.1465C19.9363 12.4807 19.6536 12.842 19.4081 13.2247C19.3579 13.303 19.2434 13.3002 19.1971 13.2196L17.5829 10.4138C17.5489 10.3546 17.473 10.3343 17.4141 10.3684L16.103 11.128C15.8532 11.272 15.5567 11.2597 15.3257 11.1218L12.0014 9.19584C11.9424 9.16161 11.8665 9.18208 11.8326 9.24129L9.2214 13.7799L9.22013 13.7791L6.61002 18.3159C6.57602 18.3752 6.5963 18.4513 6.65531 18.4854L9.9888 20.4168C10.2361 20.5594 10.3747 20.8191 10.375 21.0863H10.3782V22.6006C10.3782 22.6689 10.4337 22.7247 10.5019 22.7247H18.2067C18.2734 22.7247 18.3282 22.7779 18.3302 22.8448L18.3715 24.1476C18.3738 24.218 18.3181 24.2756 18.248 24.2756H10.502C10.4339 24.2756 10.3783 24.3314 10.3783 24.3997V25.914C10.3783 26.2254 10.1953 26.494 9.93141 26.6174C9.92795 26.619 9.92507 26.6205 9.92173 26.6223L6.65669 28.5141C6.59722 28.548 6.57694 28.6242 6.61094 28.6833Z" fill="#39A5AC"/>
</svg>
