<svg width="52" height="51" viewBox="0 0 52 51" fill="none" xmlns="http://www.w3.org/2000/svg">
<g clip-path="url(#clip0_118_7777)">
<path d="M35.0407 16.4603C32.7471 14.1666 29.509 12.6825 26.0011 12.6825C22.4931 12.6825 19.255 14.0992 16.9614 16.4603C14.6677 18.7539 13.1836 21.992 13.1836 25.5C13.1836 29.0079 14.6677 32.246 16.9614 34.5396C19.255 36.8333 22.4931 38.3174 26.0011 38.3174C29.509 38.3174 32.7471 36.9008 35.0407 34.5396C37.3344 32.246 38.8185 29.0079 38.8185 25.5C38.8185 21.992 37.4019 18.7539 35.0407 16.4603Z" fill="#4D6EAB"/>
<path d="M26.0001 8.70238C26.9445 8.70238 27.754 7.89286 27.754 6.94841V1.75397C27.754 0.809524 26.9445 0 26.0001 0C25.0556 0 24.2461 0.809524 24.2461 1.75397V6.94841C24.2461 7.89286 25.0556 8.70238 26.0001 8.70238Z" fill="#4D6EAB"/>
<path d="M40.3681 13.627L44.0784 9.9167C44.753 9.2421 44.753 8.16273 44.0784 7.48813C43.4038 6.81353 42.3245 6.81353 41.6499 7.48813L37.9395 11.1984C37.2649 11.8731 37.2649 12.9524 37.9395 13.627C38.5467 14.3016 39.6261 14.3016 40.3681 13.627Z" fill="#4D6EAB"/>
<path d="M49.7453 23.7461H44.5508C43.6064 23.7461 42.7969 24.5556 42.7969 25.5001C42.7969 26.4445 43.6064 27.254 44.5508 27.254H49.7453C50.6897 27.254 51.4993 26.4445 51.4993 25.5001C51.4993 24.5556 50.6897 23.7461 49.7453 23.7461Z" fill="#4D6EAB"/>
<path d="M40.3017 37.373C39.6271 36.6984 38.5477 36.6984 37.8731 37.373C37.1985 38.0476 37.1985 39.127 37.8731 39.8016L41.5835 43.5119C42.2581 44.1865 43.3374 44.1865 44.012 43.5119C44.6866 42.8373 44.6866 41.7579 44.012 41.0833L40.3017 37.373Z" fill="#4D6EAB"/>
<path d="M26.0001 42.2976C25.0556 42.2976 24.2461 43.1071 24.2461 44.0516V49.246C24.2461 50.1905 25.0556 51 26.0001 51C26.9445 51 27.754 50.1905 27.754 49.246V44.0516C27.754 43.1071 26.9445 42.2976 26.0001 42.2976Z" fill="#4D6EAB"/>
<path d="M11.6303 37.373L7.92001 41.0833C7.24541 41.7579 7.24541 42.8373 7.92001 43.5119C8.59462 44.1865 9.67398 44.1865 10.3486 43.5119L14.0589 39.8016C14.7335 39.127 14.7335 38.0476 14.0589 37.373C13.4518 36.6984 12.3724 36.6984 11.6303 37.373Z" fill="#4D6EAB"/>
<path d="M9.20238 25.5001C9.20238 24.5556 8.39286 23.7461 7.44841 23.7461H2.25397C1.30952 23.7461 0.5 24.5556 0.5 25.5001C0.5 26.4445 1.30952 27.254 2.25397 27.254H7.44841C8.39286 27.254 9.20238 26.4445 9.20238 25.5001Z" fill="#4D6EAB"/>
<path d="M11.6303 13.627C12.3049 14.3016 13.3843 14.3016 14.0589 13.627C14.7335 12.9524 14.7335 11.8731 14.0589 11.1984L10.3486 7.48813C9.67398 6.81353 8.59462 6.81353 7.92001 7.48813C7.24541 8.16273 7.24541 9.2421 7.92001 9.9167L11.6303 13.627Z" fill="#4D6EAB"/>
</g>
<defs>
<clipPath id="clip0_118_7777">
<rect width="51" height="51" fill="white" transform="translate(0.5)"/>
</clipPath>
</defs>
</svg>
