<svg width="52" height="51" viewBox="0 0 52 51" fill="none" xmlns="http://www.w3.org/2000/svg">
<g clip-path="url(#clip0_118_7808)">
<path d="M48.1064 14.2159H29.5059V10.8867H31.3003C31.7218 10.8867 32.0634 10.545 32.0634 10.1236V8.10396H32.7421C35.6297 8.10396 36.4971 5.283 36.5523 3.79134C36.56 3.58416 36.4831 3.38284 36.3392 3.23358C36.1954 3.08433 35.997 3 35.7897 3H16.2103C16.003 3 15.8046 3.08432 15.6607 3.23358C15.5169 3.38284 15.44 3.58427 15.4477 3.79134C15.5029 5.283 16.3704 8.10396 19.2579 8.10396H19.9366V10.1236C19.9366 10.5451 20.2782 10.8867 20.6997 10.8867H22.4941V14.2159H18.3416C17.9201 14.2159 17.5784 14.5576 17.5784 14.979C17.5784 15.4005 17.9201 15.7422 18.3416 15.7422H23.2572H28.7428H48.1064C49.1361 15.7422 49.9738 16.5798 49.9738 17.6095V39.7289H2.02626V17.6095C2.02626 16.5798 2.86391 15.7422 3.89363 15.7422H9.13226C9.55374 15.7422 9.89539 15.4005 9.89539 14.979C9.89539 14.5575 9.55374 14.2159 9.13226 14.2159H3.89363C2.02232 14.2159 0.5 15.7382 0.5 17.6095V40.492V45.5025C0.5 47.3737 2.02232 48.8961 3.89363 48.8961H5.25021H34.6767H38.3234H39.1522H42.8034H46.308H48.1064C49.9777 48.8961 51.5 47.3737 51.5 45.5025V40.492V17.6095C51.5 15.7382 49.9777 14.2159 48.1064 14.2159ZM23.2572 9.36043H21.4628V8.10396H30.5371V9.36044H28.7428L23.2572 9.36043ZM5.692 44.3827C5.692 43.9612 6.03365 43.6196 6.45513 43.6196H9.53959C9.96108 43.6196 10.3027 43.9612 10.3027 44.3827C10.3027 44.8042 9.96108 45.1459 9.53959 45.1459H6.45513C6.03365 45.1459 5.692 44.8042 5.692 44.3827ZM12.4818 44.3827C12.4818 43.9612 12.8235 43.6196 13.2449 43.6196H16.3294C16.7509 43.6196 17.0925 43.9612 17.0925 44.3827C17.0925 44.8042 16.7509 45.1459 16.3294 45.1459H13.2449C12.8235 45.1459 12.4818 44.8042 12.4818 44.3827ZM19.2716 44.3827C19.2716 43.9612 19.6133 43.6196 20.0347 43.6196H23.1192C23.5407 43.6196 23.8823 43.9612 23.8823 44.3827C23.8823 44.8042 23.5407 45.1459 23.1192 45.1459H20.0347C19.6133 45.1459 19.2716 44.8042 19.2716 44.3827ZM26.0614 44.3827C26.0614 43.9612 26.4031 43.6196 26.8246 43.6196H29.909C30.3305 43.6196 30.6721 43.9612 30.6721 44.3827C30.6721 44.8042 30.3305 45.1459 29.909 45.1459H26.8246C26.4031 45.1459 26.0614 44.8042 26.0614 44.3827ZM41.6974 44.3827C41.6974 43.9612 42.039 43.6196 42.4605 43.6196H45.5449C45.9664 43.6196 46.308 43.9612 46.308 44.3827C46.308 44.8042 45.9664 45.1459 45.5449 45.1459H42.4605C42.039 45.1459 41.6974 44.8042 41.6974 44.3827Z" fill="#B3C1DB"/>
<path d="M13.2456 15.7422H14.3817C14.8032 15.7422 15.1449 15.4006 15.1449 14.9791C15.1449 14.5576 14.8032 14.2159 14.3817 14.2159H13.2456C12.8241 14.2159 12.4824 14.5576 12.4824 14.9791C12.4824 15.4006 12.8241 15.7422 13.2456 15.7422Z" fill="#B3C1DB"/>
<path d="M4.10156 18.5541V36.7658C4.10156 37.1873 4.4432 37.5289 4.86469 37.5289H8.12481H43.8744H47.1345C47.556 37.5289 47.8976 37.1873 47.8976 36.7658V18.5541C47.8976 18.1327 47.556 17.791 47.1345 17.791H4.86469C4.44319 17.791 4.10156 18.1327 4.10156 18.5541ZM21.6587 33.7339C21.6587 33.8633 21.5535 33.9685 21.424 33.9685H19.3389C19.2096 33.9685 19.1043 33.8633 19.1043 33.7339V32.6613C19.192 32.6749 19.2813 32.6832 19.3722 32.6832H21.6587V33.7339ZM32.895 33.7339C32.895 33.8633 32.7897 33.9685 32.6603 33.9685H30.5752C30.4457 33.9685 30.3404 33.8633 30.3404 33.7339V32.6832H32.6269C32.7179 32.6832 32.8072 32.6749 32.895 32.6613V33.7339ZM32.8537 30.9721C32.8319 31.0792 32.7366 31.157 32.6269 31.157H28.9383V30.2691C28.9383 29.8476 28.5966 29.5059 28.1752 29.5059C27.7537 29.5059 27.412 29.8476 27.412 30.2691V31.157H26.7627V30.2691C26.7627 29.8476 26.4211 29.5059 25.9996 29.5059C25.5781 29.5059 25.2364 29.8476 25.2364 30.2691V31.157H24.5871V30.2691C24.5871 29.8476 24.2455 29.5059 23.824 29.5059C23.4025 29.5059 23.0609 29.8476 23.0609 30.2691V31.157H19.3722C19.2626 31.157 19.1673 31.0792 19.1454 30.9721C18.9288 29.9062 18.6511 27.9439 18.638 27.5132C18.6988 27.4202 18.8657 27.2751 19.0616 27.1371L21.9117 28.9405C22.0338 29.0178 22.1753 29.0588 22.3198 29.0588H29.6795C29.8239 29.0588 29.9654 29.0178 30.0875 28.9405L32.9374 27.1372C33.1331 27.2749 33.2997 27.4196 33.3608 27.5126C33.3462 27.9566 33.0696 29.9096 32.8537 30.9721ZM30.1993 25.2234C30.1711 25.2217 30.1431 25.2201 30.115 25.2184C29.9888 25.211 29.8627 25.2039 29.7367 25.1973C29.7273 25.1969 29.7179 25.1963 29.7085 25.1959C29.5729 25.1889 29.4377 25.1825 29.3026 25.1766C29.2751 25.1754 29.2477 25.1742 29.2202 25.173C29.1018 25.168 28.9836 25.1633 28.8657 25.159C28.8473 25.1583 28.829 25.1575 28.8106 25.1569C28.6779 25.1522 28.5457 25.1479 28.4138 25.1441C28.3868 25.1433 28.36 25.1426 28.3331 25.1418C28.221 25.1387 28.1091 25.1359 27.9977 25.1334C27.9727 25.1328 27.9476 25.1322 27.9226 25.1317C27.7937 25.1289 27.6653 25.1266 27.5374 25.1246C27.5111 25.1242 27.485 25.1239 27.4587 25.1235C27.3517 25.122 27.2451 25.1207 27.139 25.1197C27.1092 25.1194 27.0793 25.1191 27.0495 25.1188C26.9245 25.1178 26.8 25.1171 26.6763 25.1168C26.6526 25.1167 26.6291 25.1167 26.6055 25.1167C26.5018 25.1164 26.3986 25.1165 26.296 25.1168C26.2627 25.1169 26.2295 25.1169 26.1964 25.117C26.0761 25.1175 25.9564 25.1181 25.8378 25.1192C25.8166 25.1194 25.7957 25.1196 25.7746 25.1198C25.6737 25.1208 25.5735 25.122 25.4739 25.1234C25.4381 25.1238 25.4024 25.1243 25.3668 25.1249C25.2521 25.1266 25.138 25.1285 25.0251 25.1307C25.0083 25.131 24.9918 25.1314 24.975 25.1317C24.8751 25.1337 24.7761 25.1359 24.6778 25.1383C24.641 25.1391 24.6043 25.14 24.5677 25.141C24.4706 25.1434 24.3742 25.146 24.2787 25.1488C24.2623 25.1492 24.2457 25.1497 24.2294 25.1501C24.1226 25.1533 24.0173 25.1567 23.9127 25.1602C23.8759 25.1614 23.8394 25.1627 23.8028 25.1639C23.7198 25.1668 23.6374 25.1698 23.5557 25.1729C23.5304 25.1739 23.5047 25.1748 23.4795 25.1758C23.3796 25.1796 23.2811 25.1837 23.1835 25.1878C23.1479 25.1893 23.1127 25.1909 23.0773 25.1924C23.0048 25.1955 22.933 25.1988 22.8619 25.2021C22.8311 25.2035 22.7999 25.2049 22.7693 25.2064C22.6771 25.2107 22.5864 25.2152 22.4967 25.2198C22.463 25.2215 22.4299 25.2232 22.3966 25.2249C22.3305 25.2283 22.2652 25.2318 22.2005 25.2353C22.1694 25.237 22.1381 25.2387 22.1074 25.2404C22.0217 25.2452 21.9375 25.25 21.8546 25.2548C21.8247 25.2566 21.7956 25.2583 21.7661 25.2601C21.7049 25.2637 21.6445 25.2674 21.5849 25.2711C21.5556 25.2729 21.5261 25.2747 21.4972 25.2765C21.4178 25.2815 21.3397 25.2865 21.2634 25.2915C21.2397 25.2931 21.2169 25.2947 21.1935 25.2962C21.1341 25.3002 21.0756 25.3042 21.0181 25.3081C20.9933 25.3098 20.9685 25.3115 20.9441 25.3133C20.8703 25.3184 20.7978 25.3235 20.7275 25.3286C20.7132 25.3297 20.6997 25.3307 20.6856 25.3318C20.6252 25.3362 20.5663 25.3406 20.5086 25.3449C20.4898 25.3464 20.471 25.3478 20.4525 25.3492C20.312 25.3599 20.1804 25.3704 20.0579 25.3805C20.0532 25.3809 20.048 25.3813 20.0434 25.3817C20.3217 24.1839 20.6168 23.0236 20.7668 22.603C21.2802 22.412 23.1146 22.1165 25.9996 22.1165C28.8845 22.1165 30.719 22.412 31.2324 22.603C31.3815 23.0211 31.6741 24.1705 31.951 25.3609C31.939 25.3597 31.9269 25.3587 31.9149 25.3575C31.6428 25.3312 31.3699 25.3073 31.0967 25.2858C31.0696 25.2837 31.0426 25.2816 31.0155 25.2795C30.7434 25.2586 30.4712 25.2399 30.1993 25.2234ZM30.6422 26.7834L29.4584 27.5325H22.5409L21.4077 26.8155C21.4526 26.8126 21.4979 26.8097 21.5439 26.8069C21.5556 26.8061 21.5674 26.8054 21.5792 26.8047C21.6282 26.8017 21.6777 26.7986 21.7278 26.7956C21.74 26.7948 21.7524 26.7941 21.7647 26.7934C21.8151 26.7904 21.866 26.7874 21.9177 26.7844C21.9289 26.7837 21.9403 26.7831 21.9516 26.7824C22.005 26.7793 22.0588 26.7763 22.1134 26.7732C22.1209 26.7729 22.1286 26.7724 22.1361 26.772C22.3731 26.7589 22.6211 26.7462 22.8785 26.7343C22.8973 26.7334 22.9157 26.7325 22.9346 26.7317C22.9823 26.7295 23.0308 26.7273 23.0792 26.7252C23.1059 26.724 23.1325 26.7228 23.1594 26.7216C23.204 26.7197 23.2491 26.7179 23.2943 26.716C23.3261 26.7147 23.358 26.7133 23.3901 26.7121C23.434 26.7103 23.4782 26.7086 23.5225 26.7068C23.5554 26.7056 23.5884 26.7043 23.6215 26.7031C23.6655 26.7014 23.7099 26.6998 23.7543 26.6982C23.7899 26.6969 23.8256 26.6957 23.8614 26.6944C23.9048 26.6929 23.9482 26.6915 23.9919 26.69C24.0284 26.6888 24.0651 26.6876 24.1018 26.6865C24.146 26.6851 24.1902 26.6837 24.2347 26.6824C24.2727 26.6812 24.3111 26.6801 24.3494 26.6791C24.3925 26.6778 24.4357 26.6766 24.4791 26.6754C24.522 26.6742 24.5653 26.6731 24.6085 26.6721C24.6484 26.6711 24.6881 26.67 24.7282 26.669C24.7807 26.6678 24.8336 26.6666 24.8864 26.6655C24.918 26.6648 24.9494 26.6641 24.9812 26.6634C25.0647 26.6617 25.1488 26.6601 25.2334 26.6586C25.2645 26.6581 25.2959 26.6577 25.3271 26.6572C25.3831 26.6563 25.4391 26.6554 25.4955 26.6546C25.5306 26.6541 25.566 26.6537 25.6013 26.6532C25.6539 26.6526 25.7065 26.6519 25.7595 26.6514C25.7968 26.651 25.8344 26.6507 25.8718 26.6504C25.9233 26.6499 25.9748 26.6495 26.0265 26.6491C26.0658 26.6488 26.1053 26.6486 26.1448 26.6485C26.195 26.6482 26.2454 26.6479 26.2959 26.6478C26.3351 26.6476 26.3744 26.6476 26.4137 26.6475C26.4662 26.6475 26.5189 26.6474 26.5717 26.6475C26.61 26.6475 26.6484 26.6476 26.6869 26.6477C26.7405 26.6478 26.7943 26.648 26.8482 26.6482C26.886 26.6485 26.9237 26.6486 26.9616 26.6489C27.0172 26.6492 27.0729 26.6497 27.1287 26.6502C27.1657 26.6505 27.2028 26.6508 27.2399 26.6512C27.2991 26.6519 27.3585 26.6526 27.4179 26.6534C27.451 26.6538 27.484 26.6542 27.5172 26.6547C27.5868 26.6557 27.6566 26.6569 27.7265 26.6581C27.7502 26.6586 27.7739 26.6589 27.7976 26.6594C27.9864 26.663 28.1762 26.6675 28.3667 26.6728C28.3917 26.6735 28.4167 26.6743 28.4417 26.6751C28.5112 26.6771 28.5809 26.6792 28.6507 26.6815C28.6836 26.6826 28.7166 26.6838 28.7496 26.685C28.8117 26.6871 28.8738 26.6893 28.9361 26.6917C28.9722 26.693 29.0083 26.6945 29.0445 26.6959C29.1035 26.6983 29.1626 26.7007 29.2217 26.7032C29.2598 26.7048 29.2979 26.7065 29.336 26.7083C29.3943 26.7109 29.4526 26.7136 29.511 26.7164C29.5485 26.7182 29.586 26.72 29.6235 26.722C29.6826 26.7249 29.7418 26.728 29.8009 26.7312C29.8383 26.7332 29.8756 26.7352 29.9129 26.7373C29.9726 26.7407 30.0323 26.7441 30.092 26.7477C30.1284 26.7498 30.1648 26.7519 30.2012 26.7542C30.2634 26.758 30.3257 26.7621 30.388 26.7661C30.4217 26.7683 30.4555 26.7705 30.4892 26.7727C30.5402 26.7761 30.5912 26.7798 30.6422 26.7834ZM5.62782 19.3173H46.3714V36.0026H44.1446L34.8015 28.4328C34.861 27.951 34.8966 27.5518 34.8843 27.3664C34.8357 26.6367 34.1193 26.0642 33.6046 25.7444C33.342 24.5595 32.7795 22.0986 32.4568 21.6441C32.2634 21.3717 31.9049 21.061 30.0893 20.822C28.9534 20.6726 27.501 20.5903 25.9996 20.5903C24.4981 20.5903 23.0458 20.6726 21.9099 20.822C20.0943 21.061 19.7358 21.3717 19.5423 21.6443C19.4565 21.7649 19.2008 22.1258 18.3948 25.7442C17.8801 26.064 17.1635 26.6366 17.1149 27.3664C17.1025 27.5526 17.1385 27.9544 17.1984 28.439C17.1741 28.4544 17.1503 28.4711 17.1275 28.4896L7.85456 36.0026H5.62782V19.3173Z" fill="#B3C1DB"/>
<path d="M20.6979 29.0826C20.2531 29.0826 19.8926 29.4432 19.8926 29.888C19.8926 30.3328 20.2531 30.6933 20.6979 30.6933C21.1427 30.6933 21.5032 30.3328 21.5032 29.888C21.5032 29.4432 21.1427 29.0826 20.6979 29.0826Z" fill="#B3C1DB"/>
<path d="M31.3034 29.0826C30.8586 29.0826 30.498 29.4432 30.498 29.888C30.498 30.3328 30.8586 30.6933 31.3034 30.6933C31.7482 30.6933 32.1087 30.3328 32.1087 29.888C32.1087 29.4432 31.7481 29.0826 31.3034 29.0826Z" fill="#B3C1DB"/>
</g>
<defs>
<clipPath id="clip0_118_7808">
<rect width="51" height="51" fill="white" transform="translate(0.5)"/>
</clipPath>
</defs>
</svg>
