<svg width="128" height="60" viewBox="0 0 128 60" fill="none" xmlns="http://www.w3.org/2000/svg">
<path fill-rule="evenodd" clip-rule="evenodd" d="M61.8671 13.0343H60.1038V53.2682H57.7212V20.0992H53.1107V53.2682H45.3173V26.9907H48.8329V20.0991H0V26.9907H3.51604V53.2682H0V60H127.374V53.2682H123.858V26.9907H127.373V20.0991H78.5407V26.9907H82.0565V53.2682H73.9596V20.0992H69.3491V53.2682H66.9667V13.0343H65.2026V9.63493H63.8568V0H63.6542H63.416H63.2135V1.30282H57.5571V3.98947H63.2135V9.63493H61.8671V13.0343ZM83.4176 53.2682H88.7967V26.9907H83.4176V53.2682ZM90.1577 53.2682H95.5369V26.9907H90.1577V53.2682ZM96.8979 53.2682H102.277V26.9907H96.8979V53.2682ZM103.638 53.2682H109.017V26.9907H103.638V53.2682ZM110.378 53.2682H115.757V26.9907H110.378V53.2682ZM117.118 53.2682H122.497V26.9907H117.118V53.2682ZM4.87683 53.2682H10.2562V26.9907H4.87683V53.2682ZM11.617 53.2682H16.9964V26.9907H11.617V53.2682ZM18.3572 53.2682H23.7365V26.9907H18.3572V53.2682ZM25.0968 53.2682H30.4762V26.9907H25.0968V53.2682ZM31.837 53.2682H37.2164V26.9907H31.837V53.2682ZM38.5772 53.2682H43.9565V26.9907H38.5772V53.2682ZM65.0892 15.6814H61.981V18.7899H65.0892V15.6814Z" fill="#003087"/>
</svg>
