<svg width="215" height="60" viewBox="0 0 215 60" fill="none" xmlns="http://www.w3.org/2000/svg">
	<path fill-rule="evenodd" clip-rule="evenodd" d="M107.26 0H108.123V12.1386V13.6745H108.833V16.5593H111.26V18.2129H116.096C121.777 18.2129 126.79 21.2063 129.63 25.6896H168.56V30.93H214.521V35.2663H168.56V37.0319H166.016V35.2663H158.824V37.0319H157.39V35.2663H150.198V37.0319H148.666V35.2663H141.475V37.0319H139.916V35.2663H131.54V37.0319H129.35V35.2663H122.622H115.895V37.0319H113.988V36.1467V35.6864V35.2663H107.26H100.533V35.6864V36.1467V37.0319H98.626V35.2663H91.8985H85.1709V37.0319H82.9802V35.2663H74.605V37.0319H73.0457V35.2663H65.8541V37.0319H64.3229V35.2663H57.1313V37.0319H55.697V35.2663H48.505V37.0319H45.961V35.2663H0V30.93H45.961V25.6896H84.8908C87.7303 21.2063 92.7438 18.2129 98.4242 18.2129H103.261V16.5593H105.687V13.6745H106.397V12.1386V0H107.26ZM45.1515 36.3684H43.0514V39.1825H45.1515V36.3684ZM3.77167 36.3684H1.67153V39.1825H3.77167V36.3684ZM3.77167 41.6841H1.67153V51.9879H3.77167V41.6841ZM11.9193 36.3684H9.81918V39.1825H11.9193V36.3684ZM8.07193 36.3684H5.97178V39.1825H8.07193V36.3684ZM8.07193 41.6841H5.97178V51.9879H8.07193V41.6841ZM11.9193 41.6841H9.81918V51.9879H11.9193V41.6841ZM20.4184 36.3684H18.3182V39.1825H20.4184V36.3684ZM16.571 36.3684H14.4705V39.1825H16.571V36.3684ZM16.571 41.6841H14.4705V51.9879H16.571V41.6841ZM20.4184 41.6841H18.3182V51.9879H20.4184V41.6841ZM28.3978 36.3684H26.2976V39.1825H28.3978V36.3684ZM24.5504 36.3684H22.4502V39.1825H24.5504V36.3684ZM24.5504 41.6841H22.4502V51.9879H24.5504V41.6841ZM28.3978 41.6841H26.2976V51.9879H28.3978V41.6841ZM36.9781 36.3684H34.878V39.1825H36.9781V36.3684ZM33.1307 36.3684H31.0302V39.1825H33.1307V36.3684ZM33.1307 41.6841H31.0302V51.9879H33.1307V41.6841ZM36.9781 41.6841H34.878V51.9879H36.9781V41.6841ZM41.3041 36.3684H39.204V39.1825H41.3041V36.3684ZM41.3041 41.6841H39.204V51.9879H41.3041V41.6841ZM45.1515 41.6841H43.0514V51.9879H45.1515V41.6841ZM75.946 37.0319V37.561V52.2591H80.0784V37.561V37.0319V36.3361H75.946V37.0319ZM50.0344 37.0319V37.561V52.2591H54.1672V37.561V37.0319V36.3361H50.0344V37.0319ZM58.6607 37.0319V37.561V52.2591H62.7931V37.561V37.0319V36.3361H58.6607V37.0319ZM67.3835 37.0319V37.561V52.2591H71.5163V37.561V37.0319V36.3361H67.3835V37.0319ZM87.0603 37.0319V37.561V52.2591H91.8985H96.737V37.561V37.0319V36.3361H91.8985H87.0603V37.0319ZM100.533 37.561H98.626V53.3293H91.8985H85.1709V37.561H82.9802V53.3293H74.605V37.561H73.0457V53.3293H65.8541V37.561H64.3229V53.3293H57.1313V37.561H55.697V53.3293H48.505V37.561H45.961V53.0904H0.196957V59.6863H45.961V60H89.447V55.3742H94.4269V60H104.771V55.3742H107.26H109.75V60H120.094V55.3742H125.074V60H168.56V59.6863H214.324V53.0904H168.56V37.561H166.016V53.3293H158.824V37.561H157.39V53.3293H150.198V37.561H148.666V53.3293H141.475V37.561H139.916V53.3293H131.54V37.561H129.35V53.3293H122.622H115.895V37.561H113.988V52.4489V53.3293H111.623H107.26H102.898H100.533V52.4489V37.561ZM107.26 36.3361H102.898V52.2591H107.26H111.623V36.3361H107.26ZM79.962 55.186H76.0706V58.2092H79.962V55.186ZM54.0721 55.186H50.1807V58.2092H54.0721V55.186ZM62.7021 55.186H58.8106V58.2092H62.7021V55.186ZM71.332 55.186H67.4406V58.2092H71.332V55.186ZM105.721 60H107.26H108.8V56.3219H107.26H105.721V60ZM90.3971 60H93.4764V56.3219H90.3971V60ZM169.369 36.3684H171.469V39.1825H169.369V36.3684ZM210.749 36.3684H212.849V39.1825H210.749V36.3684ZM210.749 41.6841H212.849V51.9879H210.749V41.6841ZM202.601 36.3684H204.701V39.1825H202.601V36.3684ZM206.449 36.3684H208.549V39.1825H206.449V36.3684ZM206.449 41.6841H208.549V51.9879H206.449V41.6841ZM202.601 41.6841H204.701V51.9879H202.601V41.6841ZM194.102 36.3684H196.202V39.1825H194.102V36.3684ZM197.95 36.3684H200.05V39.1825H197.95V36.3684ZM197.95 41.6841H200.05V51.9879H197.95V41.6841ZM194.102 41.6841H196.202V51.9879H194.102V41.6841ZM186.123 36.3684H188.223V39.1825H186.123V36.3684ZM189.97 36.3684H192.07V39.1825H189.97V36.3684ZM189.97 41.6841H192.07V51.9879H189.97V41.6841ZM186.123 41.6841H188.223V51.9879H186.123V41.6841ZM177.542 36.3684H179.643V39.1825H177.542V36.3684ZM181.39 36.3684H183.49V39.1825H181.39V36.3684ZM181.39 41.6841H183.49V51.9879H181.39V41.6841ZM177.542 41.6841H179.643V51.9879H177.542V41.6841ZM173.216 36.3684H175.317V39.1825H173.216V36.3684ZM173.216 41.6841H175.317V51.9879H173.216V41.6841ZM169.369 41.6841H171.469V51.9879H169.369V41.6841ZM138.575 37.0319V37.561V52.2591H134.442V37.561V37.0319V36.3361H138.575V37.0319ZM164.486 37.0319V37.561V52.2591H160.353V37.561V37.0319V36.3361H164.486V37.0319ZM155.86 37.0319V37.561V52.2591H151.727V37.561V37.0319V36.3361H155.86V37.0319ZM147.137 37.0319V37.561V52.2591H143.005V37.561V37.0319V36.3361H147.137V37.0319ZM127.46 37.0319V37.561V52.2591H122.622H117.784V37.561V37.0319V36.3361H122.622H127.46V37.0319ZM134.559 55.186H138.45V58.2092H134.559V55.186ZM160.448 55.186H164.34V58.2092H160.448V55.186ZM151.818 55.186H155.71V58.2092H151.818V55.186ZM143.189 55.186H147.08V58.2092H143.189V55.186ZM124.124 60H121.044V56.3219H124.124V60Z" fill="#003087" />
</svg>
