<svg width="67" height="70" viewBox="0 0 67 70" fill="none" xmlns="http://www.w3.org/2000/svg">
<path fill-rule="evenodd" clip-rule="evenodd" d="M0 28.1843H3.38916C6.09546 22.977 15.4747 18.9074 27.301 17.8594V16.1375H30.5645V13.9371H31.7004V9.06585H32.6184V0H34.0483V9.06585H34.9666V13.9371H36.1025V16.1375H39.3656V17.8594C51.1919 18.9074 60.5712 22.977 63.2775 28.1843H66.6667V34.4682H0V28.1843ZM46.0503 62.6241H60.0617V70H55.6457V65.718H50.4666V70H46.0503V62.6241ZM51.5539 66.7802H54.5583V70H51.5539V66.7802ZM6.60532 62.6241H20.6167V70H16.2007V65.718H11.0216V70H6.60532V62.6241ZM12.109 66.7802H15.1133V70H12.109V66.7802ZM26.2901 62.6241H40.3016V70H35.8856V65.718H30.7065V70H26.2901V62.6241ZM31.7938 66.7802H34.7982V70H31.7938V66.7802ZM61.8929 41.2815H63.8505V67.0136H61.8929V41.2815ZM61.8929 68.0291H63.8505V70H61.8929V68.0291ZM63.8505 38.6995V40.4903H61.8929V38.6995H44.2191V40.4903H42.2614V38.6995H24.4056V40.4903H22.4479V38.6995H4.77411V40.4903H2.81646V38.6995H1.30489V35.5864H65.3621V38.6995H63.8505ZM22.4479 41.2815H24.4056V67.0136H22.4479V41.2815ZM22.4479 68.0291H24.4056V70H22.4479V68.0291ZM42.2614 41.2815H44.2191V67.0136H42.2614V41.2815ZM42.2614 68.0291H44.2191V70H42.2614V68.0291ZM27.301 19.3397C22.548 19.7648 17.7441 20.729 13.4497 22.432C11.2001 23.3246 8.776 24.5783 6.93797 26.1634L5.18777 28.1163H61.4455L59.7287 26.1634C59.6181 26.0383 59.4715 25.9457 59.3394 25.8398C57.5571 24.4072 55.3111 23.2629 53.217 22.432C48.9226 20.729 44.1187 19.7648 39.3656 19.3397V20.4598C39.8266 20.5019 40.2885 20.5491 40.7505 20.602V27.0031H39.3656V28.093H27.301V27.0031H25.9162V20.602C26.3781 20.5491 26.84 20.5019 27.301 20.4598V19.3397ZM33.3333 18.1196C35.5602 18.1196 37.3655 19.9086 37.3655 22.1153C37.3655 24.322 35.5602 26.1109 33.3333 26.1109C31.1065 26.1109 29.3012 24.322 29.3012 22.1153C29.3012 19.9086 31.1065 18.1196 33.3333 18.1196ZM33.3333 19.7038C34.6773 19.7038 35.7669 20.7834 35.7669 22.1153C35.7669 23.447 34.6773 24.5268 33.3333 24.5268C31.9893 24.5268 30.8998 23.447 30.8998 22.1153C30.8998 20.7834 31.9893 19.7038 33.3333 19.7038ZM48.3432 41.7035H57.769V60.5277H48.3432V41.7035ZM29.0393 41.7035H38.4653V60.5277H29.0393V41.7035ZM8.89828 41.7035H18.3241V60.5277H8.89828V41.7035ZM2.81646 41.2815H4.77411V67.0136H2.81646V41.2815ZM2.81646 68.0291H4.77411V70H2.81646V68.0291ZM7.6753 27.0031H24.7928V20.7413C21.0119 21.2456 17.2608 22.1196 13.8673 23.4656C12.0735 24.1773 9.53986 25.3954 7.6753 27.0031ZM41.8738 27.0031H58.9914C57.1268 25.3954 54.5932 24.1773 52.7994 23.4656C49.4059 22.1196 45.6548 21.2456 41.8738 20.7413V27.0031Z" fill="#003087"/>
</svg>
