<svg width="44" height="43" viewBox="0 0 44 43" fill="none" xmlns="http://www.w3.org/2000/svg">
<path fill-rule="evenodd" clip-rule="evenodd" d="M43.3365 2.68666C43.4424 3.03436 43.4999 3.40288 43.4999 3.78459V10.6543H38.7374L43.3365 2.68666ZM15.5438 35.5232V20.6146L28.4556 28.0685L15.5438 35.5232ZM4.28463 43H39.7154C41.8022 43 43.5 41.3022 43.5 39.2158V13.7257H0.5V39.2158C0.5 41.3022 2.19784 43 4.28463 43ZM4.28463 0H6.18487L0.5 9.8465V3.78459C0.5 1.69783 2.19784 0 4.28463 0ZM21.4496 0H29.6229L23.4712 10.6543H15.2994L21.4496 0ZM3.57965 10.6543H11.7529L17.9032 0H9.73132L3.57965 10.6543ZM41.1723 0.292434C40.7241 0.104141 40.2319 0 39.7154 0H33.1693L27.0177 10.6543H35.1908L41.1723 0.292434Z" fill="#4B4B8D"/>
</svg>
