<svg width="10" height="6" viewBox="0 0 10 6" fill="none" xmlns="http://www.w3.org/2000/svg">
<path d="M9.82319 0.808611C9.88637 0.871855 9.91796 0.944586 9.91796 1.0268C9.91796 1.10902 9.88637 1.18175 9.82319 1.245L5.40647 5.66575C5.34328 5.729 5.27062 5.76062 5.18847 5.76062C5.10633 5.76062 5.03367 5.729 4.97048 5.66575L0.553764 1.245C0.490578 1.18175 0.458984 1.10902 0.458984 1.0268C0.458984 0.944586 0.490578 0.871855 0.553764 0.808611L1.02766 0.334281C1.09085 0.271037 1.16351 0.239415 1.24565 0.239415C1.3278 0.239415 1.40046 0.271037 1.46365 0.334281L5.18847 4.06252L8.9133 0.334281C8.97649 0.271037 9.04915 0.239415 9.1313 0.239415C9.21344 0.239415 9.2861 0.271037 9.34929 0.334281L9.82319 0.808611Z" fill="black"/>
</svg>
