<svg width="18" height="18" viewBox="0 0 18 18" fill="none" xmlns="http://www.w3.org/2000/svg">
<path d="M4.73518 1.57811C4.73518 1.57811 5.06062 1.38651 5.71149 1.00333C6.36237 0.620144 7.45854 0.428553 9 0.428553C10.5415 0.428553 11.9631 0.811737 13.2648 1.57811C14.5666 2.34447 15.5973 3.38428 16.357 4.69753C17.1166 6.01077 17.4965 7.44492 17.4965 8.99998C17.4965 10.555 17.1166 11.9892 16.357 13.3024C15.5973 14.6157 14.5666 15.6555 13.2648 16.4219C11.9631 17.1882 10.5415 17.5714 9 17.5714C7.45854 17.5714 6.03693 17.1882 4.73518 16.4219C3.43342 15.6555 2.40271 14.6157 1.64304 13.3024C0.883373 11.9892 0.50354 10.555 0.50354 8.99998C0.50354 7.44492 0.883373 6.01077 1.64304 4.69753C2.40271 3.38428 3.43342 2.34447 4.73518 1.57811ZM12.0313 6.24329C12.0165 6.25073 11.9815 6.28607 11.9262 6.34931C11.8709 6.41256 11.8211 6.4479 11.7768 6.45534C11.7916 6.45534 11.8082 6.43674 11.8266 6.39954C11.8451 6.36233 11.8635 6.32141 11.8819 6.27677C11.9004 6.23212 11.9133 6.20608 11.9207 6.19864C11.9649 6.14656 12.046 6.09076 12.164 6.03123C12.2673 5.98659 12.4591 5.94195 12.7393 5.8973C12.9901 5.83778 13.1782 5.8787 13.3035 6.02007C13.2888 6.00519 13.3238 5.95683 13.4086 5.87498C13.4935 5.79314 13.5469 5.74849 13.5691 5.74105C13.5912 5.72617 13.6465 5.70943 13.735 5.69083C13.8235 5.67223 13.8788 5.64433 13.901 5.60712L13.9231 5.36159C13.8346 5.36903 13.77 5.34299 13.7295 5.28346C13.6889 5.22394 13.6649 5.14581 13.6576 5.04909C13.6576 5.06397 13.6354 5.09373 13.5912 5.13837C13.5912 5.08629 13.5746 5.05653 13.5414 5.04909C13.5082 5.04165 13.4658 5.04537 13.4142 5.06025C13.3625 5.07513 13.3294 5.07885 13.3146 5.07141C13.2409 5.04909 13.1855 5.02119 13.1487 4.9877C13.1118 4.95422 13.0823 4.89284 13.0602 4.80355C13.038 4.71427 13.0233 4.65846 13.0159 4.63614C13.0012 4.59894 12.9661 4.55802 12.9108 4.51337C12.8555 4.46873 12.8205 4.43153 12.8057 4.40177C12.7983 4.38689 12.7891 4.36642 12.778 4.34038C12.767 4.31434 12.7559 4.29016 12.7449 4.26784C12.7338 4.24552 12.719 4.22506 12.7006 4.20645C12.6822 4.18785 12.6619 4.17855 12.6398 4.17855C12.6176 4.17855 12.5918 4.19715 12.5623 4.23436C12.5328 4.27156 12.5052 4.30876 12.4793 4.34596C12.4535 4.38317 12.4369 4.40177 12.4296 4.40177C12.4074 4.38689 12.3853 4.38131 12.3632 4.38503C12.3411 4.38875 12.3245 4.39247 12.3134 4.39619C12.3023 4.39991 12.2857 4.41107 12.2636 4.42967C12.2415 4.44827 12.223 4.46129 12.2083 4.46873C12.1862 4.48361 12.1548 4.49477 12.1143 4.50221C12.0737 4.50965 12.0424 4.51709 12.0202 4.52454C12.1309 4.48733 12.1272 4.44641 12.0092 4.40177C11.9354 4.372 11.8764 4.36084 11.8322 4.36829C11.8985 4.33852 11.9262 4.29388 11.9151 4.23436C11.9041 4.17483 11.8727 4.12275 11.8211 4.07811H11.8764C11.869 4.04834 11.8377 4.01672 11.7824 3.98324C11.7271 3.94976 11.6625 3.91814 11.5888 3.88837C11.515 3.85861 11.4671 3.83629 11.4449 3.82141C11.3859 3.78421 11.2606 3.74887 11.0688 3.71538C10.877 3.6819 10.7553 3.68004 10.7037 3.7098C10.6668 3.75445 10.6502 3.79351 10.6539 3.82699C10.6576 3.86047 10.6724 3.91256 10.6982 3.98324C10.724 4.05392 10.7369 4.10043 10.7369 4.12275C10.7443 4.16739 10.724 4.21575 10.6761 4.26784C10.6281 4.31992 10.6041 4.36456 10.6041 4.40177C10.6041 4.45385 10.6558 4.51151 10.759 4.57476C10.8623 4.638 10.8992 4.71799 10.8697 4.81471C10.8475 4.87424 10.7885 4.93376 10.6927 4.99329C10.5968 5.05281 10.5378 5.09745 10.5156 5.12721C10.4788 5.18674 10.4732 5.25556 10.4991 5.33369C10.5249 5.41181 10.5636 5.4732 10.6152 5.51784C10.63 5.53272 10.6355 5.5476 10.6318 5.56248C10.6281 5.57736 10.6152 5.5941 10.5931 5.6127C10.571 5.63131 10.5507 5.64619 10.5322 5.65735C10.5138 5.66851 10.4898 5.68153 10.4603 5.69641L10.4271 5.71873C10.346 5.75593 10.2704 5.73361 10.2003 5.65177C10.1303 5.56992 10.0805 5.4732 10.051 5.36159C9.99937 5.17558 9.94036 5.06397 9.87399 5.02677C9.70435 4.96724 9.59741 4.97096 9.55315 5.03793C9.51628 4.9412 9.36508 4.84447 9.09957 4.74775C8.91518 4.68079 8.7013 4.6659 8.45791 4.70311C8.50216 4.69567 8.50216 4.63986 8.45791 4.5357C8.40628 4.42409 8.33621 4.37945 8.24771 4.40177C8.26984 4.35712 8.28459 4.29202 8.29196 4.20645C8.29934 4.12089 8.30302 4.07067 8.30302 4.05578C8.32515 3.95906 8.3694 3.87349 8.43578 3.79909C8.44316 3.79165 8.46897 3.76003 8.51322 3.70422C8.55748 3.64842 8.59251 3.5982 8.61832 3.55355C8.64414 3.50891 8.64598 3.48659 8.62385 3.48659C8.88199 3.51635 9.06638 3.47543 9.17701 3.36382C9.21389 3.32662 9.2563 3.26337 9.30424 3.17409C9.35218 3.0848 9.3909 3.02156 9.4204 2.98436C9.48678 2.93971 9.5384 2.91925 9.57528 2.92297C9.61216 2.92669 9.66563 2.94715 9.7357 2.98436C9.80576 3.02156 9.85923 3.04016 9.89611 3.04016C9.99937 3.0476 10.0565 3.00668 10.0676 2.91739C10.0787 2.82811 10.051 2.7537 9.98462 2.69418C10.0731 2.70162 10.0842 2.63837 10.0178 2.50445C9.9883 2.45236 9.9588 2.41888 9.9293 2.404C9.8408 2.37424 9.74123 2.39284 9.6306 2.4598C9.57159 2.48956 9.57897 2.51933 9.65272 2.54909C9.64535 2.54165 9.61031 2.58071 9.54762 2.66628C9.48493 2.75184 9.42409 2.81695 9.36508 2.86159C9.30608 2.90623 9.24708 2.88763 9.18807 2.80578C9.1807 2.79834 9.16041 2.74812 9.12723 2.65512C9.09404 2.56211 9.059 2.51189 9.02213 2.50445C8.96312 2.50445 8.90412 2.56025 8.84512 2.67186C8.86724 2.61233 8.82668 2.55653 8.72342 2.50445C8.62017 2.45236 8.53166 2.4226 8.45791 2.41516C8.59804 2.32587 8.56854 2.22543 8.3694 2.11382C8.31778 2.08406 8.24218 2.06546 8.14261 2.05802C8.04304 2.05058 7.97113 2.06546 7.92688 2.10266C7.89 2.15474 7.86972 2.19753 7.86603 2.23101C7.86234 2.26449 7.88078 2.29425 7.92135 2.32029C7.96191 2.34634 8.00063 2.3668 8.03751 2.38168C8.07439 2.39656 8.1168 2.41144 8.16474 2.42632C8.21268 2.4412 8.24402 2.45236 8.25877 2.4598C8.36203 2.53421 8.39153 2.58629 8.34728 2.61605C8.33253 2.62349 8.30118 2.63651 8.25324 2.65512C8.2053 2.67372 8.16289 2.69046 8.12602 2.70534C8.08914 2.72022 8.06701 2.7351 8.05964 2.74998C8.03751 2.77974 8.03751 2.83183 8.05964 2.90623C8.08176 2.98064 8.07439 3.03272 8.03751 3.06248C8.00063 3.02528 7.96744 2.96017 7.93794 2.86717C7.90844 2.77416 7.88263 2.71278 7.8605 2.68302C7.91213 2.74998 7.81994 2.7723 7.58392 2.74998L7.47329 2.73882C7.44379 2.73882 7.38479 2.74626 7.29628 2.76114C7.20778 2.77602 7.13218 2.77974 7.06949 2.7723C7.0068 2.76486 6.95701 2.7351 6.92014 2.68302C6.89064 2.62349 6.89064 2.54909 6.92014 2.4598C6.92751 2.43004 6.94226 2.4226 6.96439 2.43748C6.93489 2.41516 6.89432 2.37982 6.8427 2.33145C6.79107 2.28309 6.75419 2.25147 6.73206 2.23659C6.3928 2.3482 6.04615 2.50072 5.69213 2.69418C5.73639 2.70162 5.78064 2.6979 5.82489 2.68302C5.86177 2.66814 5.90971 2.64395 5.96871 2.61047C6.02771 2.57699 6.06459 2.55653 6.07934 2.54909C6.33011 2.44492 6.48499 2.41888 6.54399 2.47096L6.59931 2.41516C6.70256 2.53421 6.77632 2.62721 6.82057 2.69418C6.76894 2.66442 6.65831 2.6607 6.48868 2.68302C6.34117 2.72766 6.26004 2.7723 6.24529 2.81695C6.29692 2.90623 6.31535 2.9732 6.3006 3.01784C6.2711 2.99552 6.22869 2.95831 6.17338 2.90623C6.11806 2.85415 6.06459 2.81322 6.01296 2.78346C5.96134 2.7537 5.90602 2.7351 5.84702 2.72766C5.72901 2.72766 5.64788 2.73138 5.60363 2.73882C4.52682 3.33406 3.66021 4.15995 3.0038 5.2165C3.05543 5.26858 3.09968 5.29834 3.13656 5.30579C3.16606 5.31323 3.1845 5.34671 3.19187 5.40623C3.19925 5.46576 3.20847 5.50668 3.21953 5.529C3.23059 5.55132 3.273 5.54016 3.34676 5.49552C3.41314 5.55504 3.4242 5.62573 3.37995 5.70757C3.38732 5.70013 3.54958 5.80058 3.86672 6.00891C4.00685 6.1354 4.0843 6.21352 4.09905 6.24329C4.12117 6.32513 4.0843 6.39209 3.98842 6.44418C3.98104 6.4293 3.94785 6.39581 3.88885 6.34373C3.82985 6.29165 3.79666 6.27677 3.78928 6.29909C3.76715 6.33629 3.769 6.40512 3.79481 6.50556C3.82063 6.60601 3.85935 6.65251 3.91097 6.64507C3.85935 6.64507 3.82431 6.70459 3.80588 6.82364C3.78744 6.94269 3.77822 7.07476 3.77822 7.21985C3.77822 7.36494 3.77453 7.45236 3.76715 7.48212L3.78928 7.49329C3.76715 7.58257 3.78744 7.71092 3.85013 7.87833C3.91282 8.04574 3.9921 8.11829 4.08798 8.09596C3.9921 8.11829 4.06586 8.27826 4.30925 8.57587C4.3535 8.6354 4.383 8.66888 4.39775 8.67632C4.41988 8.6912 4.46413 8.7191 4.53051 8.76003C4.59689 8.80095 4.6522 8.83815 4.69645 8.87163C4.74071 8.90512 4.77758 8.94418 4.80709 8.98882C4.83659 9.02602 4.87346 9.10973 4.91772 9.23994C4.96197 9.37015 5.0136 9.45757 5.0726 9.50221C5.05785 9.54686 5.09288 9.62126 5.1777 9.72543C5.26252 9.82959 5.30124 9.91516 5.29386 9.98212C5.28649 9.98212 5.27727 9.98584 5.2662 9.99329C5.25514 10.0007 5.24592 10.0044 5.23855 10.0044C5.26067 10.0565 5.31783 10.1086 5.41002 10.1607C5.50222 10.2128 5.55938 10.2611 5.5815 10.3058C5.58888 10.3281 5.59625 10.3653 5.60363 10.4174C5.611 10.4695 5.62207 10.5104 5.63682 10.5402C5.65157 10.5699 5.68107 10.5774 5.72532 10.5625C5.74007 10.4137 5.65157 10.183 5.45981 9.87052C5.34918 9.68451 5.28649 9.57662 5.27174 9.54686C5.24961 9.50965 5.22933 9.45199 5.21089 9.37387C5.19245 9.29574 5.17586 9.2418 5.1611 9.21204C5.17586 9.21204 5.19798 9.21762 5.22748 9.22878C5.25698 9.23994 5.28833 9.25296 5.32152 9.26784C5.35471 9.28272 5.38237 9.2976 5.40449 9.31248C5.42662 9.32736 5.43399 9.33852 5.42662 9.34596C5.40449 9.39805 5.41187 9.46315 5.44875 9.54128C5.48562 9.6194 5.52987 9.68823 5.5815 9.74775C5.63313 9.80727 5.69582 9.87796 5.76958 9.9598C5.84333 10.0416 5.88758 10.09 5.90233 10.1049C5.94658 10.1495 5.99821 10.2221 6.05722 10.3225C6.11622 10.423 6.11622 10.4732 6.05722 10.4732C6.12359 10.4732 6.19735 10.5123 6.27848 10.5904C6.35961 10.6685 6.4223 10.7411 6.46655 10.808C6.50343 10.8675 6.53293 10.9643 6.55506 11.0982C6.57718 11.2321 6.59562 11.3214 6.61037 11.3661C6.62512 11.4181 6.65647 11.4684 6.70441 11.5167C6.75235 11.5651 6.79844 11.6004 6.8427 11.6227C6.88695 11.6451 6.94595 11.6748 7.01971 11.712C7.09346 11.7492 7.1414 11.7753 7.16353 11.7902C7.2004 11.805 7.26863 11.8441 7.36819 11.9073C7.46776 11.9706 7.54705 12.0134 7.60605 12.0357C7.6798 12.0655 7.73881 12.0803 7.78306 12.0803C7.82731 12.0803 7.88078 12.071 7.94347 12.0524C8.00617 12.0338 8.05595 12.0208 8.09283 12.0134C8.20346 11.9985 8.3104 12.0543 8.41366 12.1808C8.51691 12.3073 8.59435 12.3854 8.64598 12.4152C8.9115 12.5565 9.11432 12.5975 9.25445 12.5379C9.2397 12.5454 9.24154 12.5733 9.25998 12.6216C9.27842 12.67 9.30792 12.7277 9.34849 12.7946C9.38905 12.8616 9.42224 12.9155 9.44806 12.9565C9.47387 12.9974 9.49415 13.029 9.5089 13.0513C9.54578 13.096 9.61216 13.1518 9.70804 13.2187C9.80392 13.2857 9.8703 13.3415 9.90717 13.3861C9.95143 13.3564 9.97724 13.3229 9.98462 13.2857C9.96249 13.3452 9.9883 13.4196 10.0621 13.5089C10.1358 13.5982 10.2022 13.6354 10.2612 13.6205C10.3644 13.5982 10.4161 13.4791 10.4161 13.2634C10.1874 13.375 10.0067 13.308 9.87399 13.0625C9.87399 13.055 9.86477 13.0346 9.84633 13.0011C9.82789 12.9676 9.81314 12.936 9.80207 12.9062C9.79101 12.8765 9.78179 12.8448 9.77442 12.8114C9.76704 12.7779 9.76704 12.75 9.77442 12.7277C9.78179 12.7053 9.80023 12.6942 9.82973 12.6942C9.89611 12.6942 9.93299 12.6812 9.94036 12.6551C9.94774 12.6291 9.94036 12.5826 9.91824 12.5156C9.89611 12.4486 9.88136 12.4003 9.87399 12.3705C9.86661 12.311 9.82605 12.2366 9.75229 12.1473C9.67854 12.058 9.63428 12.0022 9.61953 11.9799C9.58266 12.0469 9.52365 12.0766 9.44252 12.0692C9.36139 12.0617 9.30239 12.0283 9.26551 11.9687C9.26551 11.9762 9.25998 11.9966 9.24892 12.0301C9.23786 12.0636 9.23232 12.0878 9.23232 12.1027C9.13645 12.1027 9.08113 12.0989 9.06638 12.0915C9.07375 12.0692 9.08297 12.0041 9.09404 11.8962C9.1051 11.7883 9.11801 11.7046 9.13276 11.6451C9.14013 11.6153 9.16041 11.5707 9.1936 11.5111C9.22679 11.4516 9.25445 11.3977 9.27658 11.3493C9.2987 11.3009 9.31345 11.2544 9.32083 11.2098C9.32821 11.1652 9.31161 11.1298 9.27105 11.1038C9.23048 11.0777 9.16595 11.0684 9.07744 11.0759C8.93731 11.0833 8.84143 11.1577 8.7898 11.2991C8.78243 11.3214 8.77136 11.3605 8.75661 11.4163C8.74186 11.4721 8.72342 11.5149 8.7013 11.5446C8.67917 11.5744 8.64598 11.6004 8.60173 11.6227C8.5501 11.6451 8.4616 11.6525 8.33621 11.6451C8.21083 11.6376 8.12233 11.619 8.0707 11.5893C7.97482 11.5297 7.89185 11.4219 7.82178 11.2656C7.75171 11.1094 7.71668 10.9717 7.71668 10.8527C7.71668 10.7783 7.7259 10.6797 7.74434 10.5569C7.76278 10.4341 7.77384 10.3411 7.77753 10.2779C7.78122 10.2146 7.76093 10.1235 7.71668 10.0044C7.73881 9.98956 7.772 9.95422 7.81625 9.89842C7.8605 9.84262 7.89738 9.80355 7.92688 9.78123C7.94163 9.77379 7.95822 9.76821 7.97666 9.76449C7.9951 9.76077 8.0117 9.76077 8.02645 9.76449C8.0412 9.76821 8.05595 9.76263 8.0707 9.74775C8.08545 9.73287 8.09651 9.71055 8.10389 9.68079C8.09651 9.67334 8.08176 9.66218 8.05964 9.6473C8.03751 9.62498 8.02276 9.61382 8.01538 9.61382C8.06701 9.63614 8.17211 9.63056 8.33068 9.59708C8.48925 9.5636 8.59067 9.56918 8.63492 9.61382C8.74555 9.69567 8.82668 9.68823 8.87831 9.5915C8.87831 9.58406 8.86909 9.54872 8.85065 9.48547C8.83221 9.42223 8.83037 9.37201 8.84512 9.3348C8.88199 9.5357 8.98894 9.56918 9.16595 9.43525C9.18807 9.45757 9.24523 9.47617 9.33742 9.49105C9.42962 9.50593 9.49415 9.52454 9.53103 9.54686C9.55315 9.56174 9.57897 9.5822 9.60847 9.60824C9.63797 9.63428 9.65825 9.65102 9.66932 9.65846C9.68038 9.6659 9.69882 9.66404 9.72463 9.65288C9.75045 9.64172 9.78179 9.61754 9.81867 9.58034C9.89242 9.68451 9.93668 9.77379 9.95143 9.8482C10.0326 10.1458 10.1026 10.3095 10.1616 10.3393C10.2133 10.3616 10.2538 10.369 10.2833 10.3616C10.3128 10.3541 10.3294 10.3188 10.3331 10.2556C10.3368 10.1923 10.3368 10.1402 10.3331 10.0993C10.3294 10.0584 10.3239 10.0119 10.3165 9.9598L10.3054 9.87052C10.3054 9.80355 10.3054 9.73659 10.3054 9.66962L10.2944 9.58034C10.1838 9.55802 10.1155 9.51337 10.0897 9.44641C10.0639 9.37945 10.0694 9.31062 10.1063 9.23994C10.1432 9.16925 10.1985 9.10043 10.2723 9.03346C10.2796 9.02602 10.3091 9.013 10.3608 8.9944C10.4124 8.9758 10.4695 8.95162 10.5322 8.92186C10.5949 8.89209 10.641 8.86233 10.6705 8.83257C10.8254 8.6912 10.8807 8.56099 10.8365 8.44195C10.8881 8.44195 10.9287 8.40846 10.9582 8.3415C10.9508 8.3415 10.9324 8.33034 10.9029 8.30802C10.8734 8.2857 10.8457 8.26709 10.8199 8.25221C10.7941 8.23733 10.7775 8.22989 10.7701 8.22989C10.8365 8.19269 10.8439 8.13317 10.7922 8.05132C10.8291 8.029 10.8568 7.98808 10.8752 7.92855C10.8936 7.86903 10.9213 7.83183 10.9582 7.81695C11.0245 7.90623 11.102 7.91367 11.1905 7.83927C11.2495 7.77974 11.2532 7.72022 11.2016 7.6607C11.2384 7.60861 11.314 7.56955 11.4284 7.54351C11.5427 7.51747 11.6109 7.48212 11.633 7.43748C11.6846 7.45236 11.7141 7.44492 11.7215 7.41516C11.7289 7.3854 11.7326 7.34076 11.7326 7.28123C11.7326 7.22171 11.7436 7.17706 11.7658 7.1473C11.7953 7.1101 11.8506 7.07662 11.9317 7.04686C12.0129 7.01709 12.0608 6.99849 12.0755 6.99105L12.2636 6.86829C12.2857 6.83852 12.2857 6.82364 12.2636 6.82364C12.3964 6.83852 12.5107 6.7976 12.6066 6.70087C12.6803 6.61903 12.6582 6.54462 12.5402 6.47766C12.5623 6.43302 12.5513 6.39767 12.507 6.37163C12.4627 6.34559 12.4074 6.32513 12.3411 6.31025C12.3632 6.30281 12.4056 6.30095 12.4683 6.30467C12.531 6.30839 12.5697 6.30281 12.5844 6.28793C12.6951 6.21352 12.6693 6.154 12.507 6.10936C12.3816 6.07215 12.223 6.1168 12.0313 6.24329ZM10.228 16.0312C11.7473 15.7634 13.0417 15.0603 14.1112 13.9219C14.089 13.8995 14.0429 13.8828 13.9729 13.8716C13.9028 13.8605 13.8567 13.8475 13.8346 13.8326C13.7018 13.7805 13.6133 13.7507 13.5691 13.7433C13.5764 13.6912 13.5672 13.6428 13.5414 13.5982C13.5156 13.5536 13.4861 13.5201 13.4529 13.4977C13.4197 13.4754 13.3736 13.4457 13.3146 13.4085C13.2556 13.3713 13.215 13.3452 13.1929 13.3303C13.1782 13.3155 13.1523 13.2931 13.1155 13.2634C13.0786 13.2336 13.0528 13.2132 13.038 13.202C13.0233 13.1908 12.9956 13.1741 12.9551 13.1518C12.9145 13.1294 12.8831 13.122 12.861 13.1294C12.8389 13.1369 12.802 13.1406 12.7504 13.1406L12.7172 13.1518C12.6951 13.1592 12.6748 13.1685 12.6564 13.1797C12.6379 13.1908 12.6176 13.202 12.5955 13.2132C12.5734 13.2243 12.5586 13.2355 12.5513 13.2466C12.5439 13.2578 12.5439 13.2671 12.5513 13.2745C12.3964 13.148 12.2636 13.0662 12.153 13.029C12.1161 13.0216 12.0755 13.0011 12.0313 12.9676C11.987 12.9341 11.9483 12.9081 11.9151 12.8895C11.8819 12.8709 11.8451 12.8653 11.8045 12.8727C11.7639 12.8802 11.7215 12.9062 11.6773 12.9509C11.6404 12.9881 11.6183 13.0439 11.6109 13.1183C11.6035 13.1927 11.5961 13.2411 11.5888 13.2634C11.5371 13.2262 11.5371 13.1611 11.5888 13.0681C11.6404 12.9751 11.6478 12.9062 11.6109 12.8616C11.5888 12.8169 11.55 12.8002 11.4947 12.8114C11.4394 12.8225 11.3952 12.8393 11.362 12.8616C11.3288 12.8839 11.2864 12.9155 11.2347 12.9565C11.1831 12.9974 11.1499 13.0216 11.1352 13.029C11.1204 13.0364 11.0891 13.0569 11.0411 13.0904C10.9932 13.1239 10.9619 13.1518 10.9471 13.1741C10.925 13.2039 10.9029 13.2485 10.8807 13.308C10.8586 13.3675 10.8402 13.4085 10.8254 13.4308C10.8107 13.401 10.7683 13.3768 10.6982 13.3582C10.6281 13.3396 10.5931 13.3192 10.5931 13.2969C10.6078 13.3713 10.6226 13.5015 10.6373 13.6875C10.6521 13.8735 10.6705 14.0149 10.6927 14.1116C10.7443 14.3422 10.7 14.5208 10.5599 14.6473C10.3608 14.8333 10.2538 14.9821 10.2391 15.0937C10.2096 15.2574 10.2538 15.3541 10.3718 15.3839C10.3718 15.436 10.3423 15.5123 10.2833 15.6127C10.2243 15.7132 10.1985 15.7931 10.2059 15.8527C10.2059 15.8973 10.2133 15.9568 10.228 16.0312Z" fill="#BBC6D4"/>
</svg>
