<svg width="25" height="25" viewBox="0 0 25 25" fill="none" xmlns="http://www.w3.org/2000/svg">
<path d="M12.5 5.01175C7.72348 5.01175 3.39189 7.62503 0.195612 11.8697C-0.0652041 12.2174 -0.0652041 12.7033 0.195612 13.051C3.39189 17.3008 7.72348 19.9141 12.5 19.9141C17.2765 19.9141 21.6081 17.3008 24.8044 13.0561C25.0652 12.7084 25.0652 12.2226 24.8044 11.8748C21.6081 7.62503 17.2765 5.01175 12.5 5.01175ZM12.8426 17.7099C9.67193 17.9094 7.05354 15.2961 7.25299 12.1203C7.41664 9.50188 9.53897 7.37955 12.1574 7.2159C15.3281 7.01645 17.9465 9.62973 17.747 12.8056C17.5782 15.4188 15.4559 17.5412 12.8426 17.7099ZM12.6841 15.2859C10.976 15.3933 9.56454 13.9869 9.67705 12.2788C9.76399 10.8673 10.9095 9.7269 12.321 9.63484C14.0291 9.52745 15.4406 10.9338 15.3281 12.6419C15.236 14.0585 14.0905 15.1989 12.6841 15.2859Z" fill="#003087"/>
</svg>
