<svg width="26" height="25" viewBox="0 0 26 25" fill="none" xmlns="http://www.w3.org/2000/svg">
<path fill-rule="evenodd" clip-rule="evenodd" d="M13 0C19.9036 0 25.5 5.59644 25.5 12.5C25.5 19.4036 19.9036 25 13 25C6.09643 25 0.5 19.4036 0.5 12.5C0.5 5.59644 6.09643 0 13 0ZM14.2995 8.21202V10.2612H17.2983C17.2322 11.0552 16.9609 12.5098 16.8984 13.26H14.2995V20.9569H11.2007V13.26H8.60176V10.2612H11.2007C11.2007 8.40654 10.9559 6.72934 12.1212 5.23408C12.2746 5.0372 12.4248 4.93382 12.6151 4.77832C13.5845 3.98602 15.3297 3.97414 16.556 4.10622L17.3982 4.16365V6.81258C15.8216 6.81258 14.2995 6.54478 14.2995 8.21202Z" fill="#003087"/>
</svg>
