<svg width="20" height="20" viewBox="0 0 20 20" fill="none" xmlns="http://www.w3.org/2000/svg">
<path fill-rule="evenodd" clip-rule="evenodd" d="M9.99999 0C15.5228 0 20 4.47715 20 10C20 15.5229 15.5228 20 9.99999 20C4.47714 20 0 15.5229 0 10C0 4.47715 4.47714 0 9.99999 0ZM11.0396 6.56962V8.20897H13.4386C13.3858 8.84415 13.1687 10.0079 13.1187 10.608H11.0396V16.7655H8.56058V10.608H6.48141V8.20897H8.56058C8.56058 6.72523 8.3647 5.38347 9.29697 4.18726C9.41971 4.02976 9.5398 3.94706 9.69205 3.82265C10.4676 3.18882 11.8638 3.17931 12.8448 3.28497L13.5186 3.33092V5.45006C12.2573 5.45006 11.0396 5.23582 11.0396 6.56962Z" fill="white"/>
</svg>
