<svg width="44" height="44" viewBox="0 0 44 44" fill="none" xmlns="http://www.w3.org/2000/svg">
<g clip-path="url(#clip0_118_7016)">
<g clip-path="url(#clip1_118_7016)">
<path d="M29.3509 22.6789H43.9454V19.6017C43.9454 19.066 43.6127 18.5855 43.1116 18.3956L23.2577 10.9439V7.72711H30.3152C31.0236 7.72711 31.6009 7.15018 31.6009 6.43932V2.14694C31.6009 1.43722 31.0236 0.859156 30.3152 0.859156H23.184C23.0082 0.359779 22.5323 0 21.9737 0C21.2653 0 20.6886 0.576554 20.6886 1.28741V10.9409L0.861804 18.3839L0.834187 18.3956C0.332729 18.5833 0 19.0637 0 19.6009V22.6778H14.5954C15.3874 22.6778 16.0285 23.3221 16.0285 24.1143C16.0285 24.9064 15.3874 25.5488 14.5954 25.5488H1.80514V42.6593C1.80514 43.3698 2.38131 43.9471 3.09028 43.9471H6.91392V31.8194C6.91392 29.6887 8.64282 27.9564 10.7691 27.9564H10.7788C12.9047 27.9564 14.6331 29.688 14.6331 31.8194V43.9471H18.0712V30.0769C18.0712 27.9477 19.8001 26.2139 21.927 26.2139H21.937C24.0636 26.2139 25.7919 27.9462 25.7919 30.0754V43.9456H29.3153V31.8179C29.3153 29.688 31.0452 27.9549 33.1706 27.9549H33.1806C35.3062 27.9549 37.036 29.6865 37.036 31.8179V43.9456H40.8597C41.5684 43.9456 42.1448 43.369 42.1448 42.6578V25.5473H29.3545C28.5608 25.5473 27.9212 24.9023 27.9212 24.1127C27.9212 23.319 28.5623 22.677 29.3545 22.677L29.3509 22.6789ZM21.9722 20.4767C19.8442 20.4767 18.1134 18.7444 18.1134 16.6138C18.1134 14.4835 19.8442 12.7511 21.9722 12.7511C24.1012 12.7511 25.8329 14.4835 25.8329 16.6138C25.8329 18.7429 24.1012 20.4767 21.9722 20.4767Z" fill="#FEFEFE" fill-opacity="0.501961"/>
</g>
</g>
<defs>
<clipPath id="clip0_118_7016">
<rect width="44" height="44" fill="white"/>
</clipPath>
<clipPath id="clip1_118_7016">
<rect width="44" height="44" fill="white"/>
</clipPath>
</defs>
</svg>
