<svg width="25" height="25" viewBox="0 0 25 25" fill="none" xmlns="http://www.w3.org/2000/svg">
<path fill-rule="evenodd" clip-rule="evenodd" d="M12.5 0C19.4036 0 25 5.59644 25 12.5C25 19.4036 19.4036 25 12.5 25C5.59642 25 0 19.4036 0 12.5C0 5.59644 5.59642 0 12.5 0ZM7.65755 12.6487C7.65755 10.0856 9.75557 7.99205 12.3142 7.99205C14.8729 7.99205 16.9708 10.0859 16.9708 12.6487C16.9708 15.2115 14.8774 17.3053 12.3142 17.3053C9.75005 17.3053 7.65755 15.2136 7.65755 12.6487ZM16.0934 7.89083C16.0934 6.57493 18.0506 6.49413 18.0506 7.92457C18.0506 8.59905 17.0742 9.19023 16.4043 8.55855C16.2718 8.43365 16.0934 8.13048 16.0934 7.89083ZM5.09305 8.8694V16.4279C5.09305 17.2667 5.31954 18.0944 5.84406 18.6801C6.09525 18.9606 6.16608 19.0546 6.51001 19.2964C7.06989 19.6901 7.76311 19.8698 8.5349 19.8698H16.0934C16.9322 19.8698 17.7599 19.6433 18.3456 19.1188C18.7547 18.7524 19.0511 18.4302 19.2707 17.8842C19.4386 17.4665 19.5353 17.0246 19.5353 16.4279V8.8694C19.5353 8.03063 19.3088 7.20295 18.7843 6.61725C18.7015 6.52485 18.6689 6.465 18.5834 6.37951C18.4996 6.29576 18.4509 6.27345 18.363 6.19495C17.7609 5.65721 16.9623 5.42755 16.0934 5.42755H8.5349C7.57139 5.42755 6.69049 5.73397 6.04499 6.37951C5.96124 6.46326 5.93894 6.512 5.86044 6.59987C5.7861 6.68311 5.72676 6.7587 5.66644 6.84453C5.27279 7.40441 5.09305 8.09761 5.09305 8.8694ZM12.213 10.0167C12.1594 10.0296 11.9976 10.0138 11.9173 10.0247C11.8551 10.0331 11.711 10.0649 11.6385 10.0834C11.3242 10.1636 10.9842 10.3386 10.7277 10.5223C9.91916 11.1012 9.47662 12.2587 9.74886 13.3243C9.99936 14.3049 10.8299 15.0643 11.832 15.2567C12.7032 15.4239 13.4303 15.1601 14.079 14.616C14.2759 14.4508 14.379 14.3373 14.5348 14.0932C14.7955 13.6848 15.0346 12.9922 14.9717 12.5235C14.8513 11.6269 14.5379 10.9253 13.7587 10.428C13.352 10.1685 12.8336 9.99686 12.3417 9.98662C12.1749 9.98315 12.2267 10.0134 12.213 10.0167Z" fill="#003087"/>
</svg>
