<svg width="41" height="42" viewBox="0 0 41 42" fill="none" xmlns="http://www.w3.org/2000/svg">
<g clip-path="url(#clip0_118_7004)">
<g clip-path="url(#clip1_118_7004)">
<g clip-path="url(#clip2_118_7004)">
<path d="M21.6322 34.1861V12.4329C21.2446 12.512 20.8453 12.5546 20.4345 12.5546C20.0247 12.5546 19.6245 12.512 19.2367 12.4329V34.1861H14.9048L11.3125 41.3697H29.5554L25.9631 34.1861H21.6322Z" fill="white" fill-opacity="0.7"/>
<path d="M16.7624 23.3293V22.1315H0V23.3293C0 26.6403 3.75509 31.7109 8.38123 31.7109C13.0084 31.7109 16.7624 26.6394 16.7624 23.3293Z" fill="white" fill-opacity="0.7"/>
<path d="M24.1055 22.1324V23.3302C24.1055 26.6403 27.8596 31.7109 32.4867 31.7109C37.1138 31.7109 40.8679 26.6394 40.8679 23.3302V22.1324H24.1055Z" fill="white" fill-opacity="0.7"/>
<path d="M8.38111 13.6834L12.0133 19.7378H14.806L10.1295 11.9446L17.7468 8.92679C18.4057 9.67575 19.3596 10.1575 20.4335 10.1575C21.5061 10.1575 22.4612 9.67449 23.119 8.92679L30.7364 11.9446L26.0609 19.7378H28.8536L32.4857 13.6834L36.1179 19.7378H38.9106L33.3053 10.3959L24.0099 6.70248C24.0121 6.65668 24.0236 6.61278 24.0236 6.56573C24.0236 5.00696 23.0191 3.69031 21.6291 3.19476V0.5H19.2346V3.19476C17.8435 3.69031 16.8402 5.00696 16.8402 6.56573C16.8402 6.61403 16.8517 6.65668 16.8538 6.70248L7.55843 10.3959L1.95312 19.7378H4.74577L8.37799 13.6834H8.38111Z" fill="white" fill-opacity="0.7"/>
</g>
</g>
</g>
<defs>
<clipPath id="clip0_118_7004">
<rect width="41" height="41" fill="white" transform="translate(0 0.5)"/>
</clipPath>
<clipPath id="clip1_118_7004">
<rect width="41" height="41" fill="white" transform="translate(0 0.5)"/>
</clipPath>
<clipPath id="clip2_118_7004">
<rect width="41" height="41" fill="white" transform="translate(0 0.5)"/>
</clipPath>
</defs>
</svg>
