<svg width="40" height="41" viewBox="0 0 40 41" fill="none" xmlns="http://www.w3.org/2000/svg">
<path fill-rule="evenodd" clip-rule="evenodd" d="M31.1021 34.0833V21.25H36.7347V34.9167C36.7347 36.2362 35.4967 37.5 34.2041 37.5C33.2202 37.5 32.3874 37.3265 31.7536 36.4182C31.2871 35.7496 31.1021 35.2217 31.1021 34.0833ZM6.2041 32.5C6.2041 32.0228 6.46712 31.5316 6.71066 31.2672C7.01413 30.9378 7.39913 30.75 7.99996 30.75H22.3673C24.5548 30.75 24.957 34.1667 21.8775 34.1667H8.40818C7.50988 34.1667 6.81232 33.9965 6.44423 33.2548C6.38345 33.1323 6.2041 32.6706 6.2041 32.5ZM7.83677 22.75H22.5306C23.904 22.75 24.5654 24.6199 23.6138 25.6057C23.3887 25.8391 22.9623 26.0834 22.5306 26.0834H7.75513C5.72783 26.0834 5.73971 22.75 7.83677 22.75ZM6.2041 16.4167C6.2041 15.5847 6.90744 14.75 7.75513 14.75H22.5306C22.9827 14.75 23.383 14.969 23.6152 15.2262C24.601 16.3182 23.9062 18.0834 22.5306 18.0834H7.75513C6.83415 18.0834 6.2041 17.2533 6.2041 16.4167ZM6.2041 8.58335C6.2041 8.0954 6.54705 7.45714 6.8411 7.23365C7.23252 6.93632 7.74871 6.83332 8.40818 6.83332H21.8775C22.4954 6.83332 23.0224 6.90956 23.3987 7.19717C24.6799 8.17623 24.0593 10.25 22.2858 10.25H7.99996C6.86432 10.25 6.2041 9.31259 6.2041 8.58335ZM0 1.66668V34.75C0 37.3519 1.47709 39.4549 3.4816 40.4459C4.10928 40.7562 5.13845 41 6.04082 41H33.9592C37.1786 41 40 38.0724 40 34.8333V19.5C40 18.5261 39.3783 17.75 38.449 17.75H30.9388V1.5C30.9388 1.15963 30.5845 0.660869 30.3897 0.477139C30.1389 0.24043 29.7593 0 29.3061 0H1.63267C0.787659 0 0 0.804068 0 1.66668Z" fill="white" fill-opacity="0.7"/>
</svg>
