<svg width="295" height="56" viewBox="0 0 295 56" fill="none" xmlns="http://www.w3.org/2000/svg">
<path d="M28.4842 55.5516C12.7527 55.5516 0 42.7987 0 27.0674V0C15.7313 0 28.4842 12.7524 28.4842 28.4851V55.5516Z" fill="#003087"/>
<path d="M30.9797 32.522V18.1475C30.9797 8.12334 39.1039 0 49.1255 0H49.1257V14.3753C49.1257 24.3965 41.0015 32.522 30.9797 32.522Z" fill="#003087"/>
<path d="M71.9999 55.5516H51.1899C40.028 55.5516 30.9797 46.503 30.9797 35.3413V35.3411H51.7894C62.9512 35.3411 71.9999 44.3896 71.9999 55.5513V55.5516Z" fill="#003087"/>
<path d="M105.037 15.3403C103.986 15.3403 103.01 15.1693 102.111 14.8273C101.224 14.4853 100.452 14.004 99.793 13.3833C99.147 12.7626 98.6403 12.0343 98.273 11.1983C97.9183 10.3623 97.741 9.4503 97.741 8.4623C97.741 7.4743 97.9183 6.5623 98.273 5.7263C98.6403 4.8903 99.1533 4.16197 99.812 3.5413C100.471 2.92064 101.243 2.4393 102.13 2.0973C103.017 1.7553 103.979 1.5843 105.018 1.5843C106.069 1.5843 107.032 1.7553 107.906 2.0973C108.793 2.4393 109.559 2.92064 110.205 3.5413C110.864 4.16197 111.377 4.8903 111.744 5.7263C112.111 6.54964 112.295 7.46164 112.295 8.4623C112.295 9.4503 112.111 10.3686 111.744 11.2173C111.377 12.0533 110.864 12.7816 110.205 13.4023C109.559 14.0103 108.793 14.4853 107.906 14.8273C107.032 15.1693 106.076 15.3403 105.037 15.3403ZM105.018 12.7183C105.613 12.7183 106.158 12.617 106.652 12.4143C107.159 12.2116 107.602 11.9203 107.982 11.5403C108.362 11.1603 108.653 10.7106 108.856 10.1913C109.071 9.67197 109.179 9.09564 109.179 8.4623C109.179 7.82897 109.071 7.25264 108.856 6.7333C108.653 6.21397 108.362 5.7643 107.982 5.3843C107.615 5.0043 107.178 4.71297 106.671 4.5103C106.164 4.30764 105.613 4.2063 105.018 4.2063C104.423 4.2063 103.872 4.30764 103.365 4.5103C102.871 4.71297 102.434 5.0043 102.054 5.3843C101.674 5.7643 101.376 6.21397 101.161 6.7333C100.958 7.25264 100.857 7.82897 100.857 8.4623C100.857 9.08297 100.958 9.6593 101.161 10.1913C101.376 10.7106 101.668 11.1603 102.035 11.5403C102.415 11.9203 102.858 12.2116 103.365 12.4143C103.872 12.617 104.423 12.7183 105.018 12.7183ZM114.608 15.1123V1.8123H117.154L125.001 11.3883H123.766V1.8123H126.806V15.1123H124.279L116.413 5.5363H117.648V15.1123H114.608ZM129.953 15.1123V1.8123H133.031V12.6043H139.7V15.1123H129.953ZM141.42 15.1123V1.8123H144.498V15.1123H141.42ZM147.654 15.1123V1.8123H150.2L158.047 11.3883H156.812V1.8123H159.852V15.1123H157.325L149.459 5.5363H150.694V15.1123H147.654ZM165.83 7.1703H172.233V9.5643H165.83V7.1703ZM166.058 12.6423H173.297V15.1123H162.999V1.8123H173.05V4.2823H166.058V12.6423ZM181.127 15.1123V1.8123H183.673L189.335 11.1983H187.986L193.553 1.8123H196.08L196.118 15.1123H193.23L193.211 6.2393H193.743L189.297 13.7063H187.91L183.369 6.2393H184.015V15.1123H181.127ZM202.104 7.1703H208.507V9.5643H202.104V7.1703ZM202.332 12.6423H209.571V15.1123H199.273V1.8123H209.324V4.2823H202.332V12.6423ZM212.02 15.1123V1.8123H218.062C219.506 1.8123 220.779 2.09097 221.881 2.6483C222.983 3.19297 223.845 3.9593 224.465 4.9473C225.086 5.9353 225.396 7.10697 225.396 8.4623C225.396 9.80497 225.086 10.9766 224.465 11.9773C223.845 12.9653 222.983 13.738 221.881 14.2953C220.779 14.84 219.506 15.1123 218.062 15.1123H212.02ZM215.098 12.5853H217.91C218.797 12.5853 219.563 12.4206 220.209 12.0913C220.868 11.7493 221.375 11.268 221.729 10.6473C222.097 10.0266 222.28 9.2983 222.28 8.4623C222.28 7.61364 222.097 6.8853 221.729 6.2773C221.375 5.65664 220.868 5.18164 220.209 4.8523C219.563 4.5103 218.797 4.3393 217.91 4.3393H215.098V12.5853ZM227.718 15.1123V1.8123H230.796V15.1123H227.718ZM232.204 15.1123L238.132 1.8123H241.172L247.119 15.1123H243.889L239.025 3.3703H240.241L235.358 15.1123H232.204ZM235.168 12.2623L235.985 9.9253H242.825L243.661 12.2623H235.168ZM98.577 35.1123V21.8123H104.334C105.525 21.8123 106.551 22.0086 107.412 22.4013C108.273 22.7813 108.938 23.3323 109.407 24.0543C109.876 24.7763 110.11 25.6376 110.11 26.6383C110.11 27.6263 109.876 28.4813 109.407 29.2033C108.938 29.9253 108.273 30.4826 107.412 30.8753C106.551 31.2553 105.525 31.4453 104.334 31.4453H100.287L101.655 30.0583V35.1123H98.577ZM101.655 30.4003L100.287 28.9373H104.163C105.113 28.9373 105.822 28.7346 106.291 28.3293C106.76 27.924 106.994 27.3603 106.994 26.6383C106.994 25.9036 106.76 25.3336 106.291 24.9283C105.822 24.523 105.113 24.3203 104.163 24.3203H100.287L101.655 22.8573V30.4003ZM118.953 35.3403C117.902 35.3403 116.926 35.1693 116.027 34.8273C115.14 34.4853 114.368 34.004 113.709 33.3833C113.063 32.7626 112.556 32.0343 112.189 31.1983C111.834 30.3623 111.657 29.4503 111.657 28.4623C111.657 27.4743 111.834 26.5623 112.189 25.7263C112.556 24.8903 113.069 24.162 113.728 23.5413C114.387 22.9206 115.159 22.4393 116.046 22.0973C116.933 21.7553 117.895 21.5843 118.934 21.5843C119.985 21.5843 120.948 21.7553 121.822 22.0973C122.709 22.4393 123.475 22.9206 124.121 23.5413C124.78 24.162 125.293 24.8903 125.66 25.7263C126.027 26.5496 126.211 27.4616 126.211 28.4623C126.211 29.4503 126.027 30.3686 125.66 31.2173C125.293 32.0533 124.78 32.7816 124.121 33.4023C123.475 34.0103 122.709 34.4853 121.822 34.8273C120.948 35.1693 119.992 35.3403 118.953 35.3403ZM118.934 32.7183C119.529 32.7183 120.074 32.617 120.568 32.4143C121.075 32.2116 121.518 31.9203 121.898 31.5403C122.278 31.1603 122.569 30.7106 122.772 30.1913C122.987 29.672 123.095 29.0956 123.095 28.4623C123.095 27.829 122.987 27.2526 122.772 26.7333C122.569 26.214 122.278 25.7643 121.898 25.3843C121.531 25.0043 121.094 24.713 120.587 24.5103C120.08 24.3076 119.529 24.2063 118.934 24.2063C118.339 24.2063 117.788 24.3076 117.281 24.5103C116.787 24.713 116.35 25.0043 115.97 25.3843C115.59 25.7643 115.292 26.214 115.077 26.7333C114.874 27.2526 114.773 27.829 114.773 28.4623C114.773 29.083 114.874 29.6593 115.077 30.1913C115.292 30.7106 115.584 31.1603 115.951 31.5403C116.331 31.9203 116.774 32.2116 117.281 32.4143C117.788 32.617 118.339 32.7183 118.934 32.7183ZM128.524 35.1123V21.8123H134.281C135.472 21.8123 136.498 22.0086 137.359 22.4013C138.221 22.7813 138.886 23.3323 139.354 24.0543C139.823 24.7763 140.057 25.6376 140.057 26.6383C140.057 27.6263 139.823 28.4813 139.354 29.2033C138.886 29.9126 138.221 30.4573 137.359 30.8373C136.498 31.2173 135.472 31.4073 134.281 31.4073H130.234L131.602 30.0583V35.1123H128.524ZM136.979 35.1123L133.654 30.2863H136.941L140.304 35.1123H136.979ZM131.602 30.4003L130.234 28.9563H134.11C135.06 28.9563 135.77 28.7536 136.238 28.3483C136.707 27.9303 136.941 27.3603 136.941 26.6383C136.941 25.9036 136.707 25.3336 136.238 24.9283C135.77 24.523 135.06 24.3203 134.11 24.3203H130.234L131.602 22.8573V30.4003ZM145.065 35.1123V24.3203H140.809V21.8123H152.399V24.3203H148.143V35.1123H145.065ZM151.64 35.1123L157.568 21.8123H160.608L166.555 35.1123H163.325L158.461 23.3703H159.677L154.794 35.1123H151.64ZM154.604 32.2623L155.421 29.9253H162.261L163.097 32.2623H154.604ZM167.934 35.1123V21.8123H171.012V32.6043H177.681V35.1123H167.934ZM187.632 27.7973H194.016V30.2673H187.632V27.7973ZM187.86 35.1123H184.782V21.8123H194.833V24.2823H187.86V35.1123ZM203.247 35.3403C202.196 35.3403 201.22 35.1693 200.321 34.8273C199.434 34.4853 198.662 34.004 198.003 33.3833C197.357 32.7626 196.85 32.0343 196.483 31.1983C196.128 30.3623 195.951 29.4503 195.951 28.4623C195.951 27.4743 196.128 26.5623 196.483 25.7263C196.85 24.8903 197.363 24.162 198.022 23.5413C198.681 22.9206 199.453 22.4393 200.34 22.0973C201.227 21.7553 202.189 21.5843 203.228 21.5843C204.279 21.5843 205.242 21.7553 206.116 22.0973C207.003 22.4393 207.769 22.9206 208.415 23.5413C209.074 24.162 209.587 24.8903 209.954 25.7263C210.321 26.5496 210.505 27.4616 210.505 28.4623C210.505 29.4503 210.321 30.3686 209.954 31.2173C209.587 32.0533 209.074 32.7816 208.415 33.4023C207.769 34.0103 207.003 34.4853 206.116 34.8273C205.242 35.1693 204.286 35.3403 203.247 35.3403ZM203.228 32.7183C203.823 32.7183 204.368 32.617 204.862 32.4143C205.369 32.2116 205.812 31.9203 206.192 31.5403C206.572 31.1603 206.863 30.7106 207.066 30.1913C207.281 29.672 207.389 29.0956 207.389 28.4623C207.389 27.829 207.281 27.2526 207.066 26.7333C206.863 26.214 206.572 25.7643 206.192 25.3843C205.825 25.0043 205.388 24.713 204.881 24.5103C204.374 24.3076 203.823 24.2063 203.228 24.2063C202.633 24.2063 202.082 24.3076 201.575 24.5103C201.081 24.713 200.644 25.0043 200.264 25.3843C199.884 25.7643 199.586 26.214 199.371 26.7333C199.168 27.2526 199.067 27.829 199.067 28.4623C199.067 29.083 199.168 29.6593 199.371 30.1913C199.586 30.7106 199.878 31.1603 200.245 31.5403C200.625 31.9203 201.068 32.2116 201.575 32.4143C202.082 32.617 202.633 32.7183 203.228 32.7183ZM219.183 35.3403C218.157 35.3403 217.201 35.1756 216.314 34.8463C215.44 34.5043 214.68 34.023 214.034 33.4023C213.388 32.7816 212.882 32.0533 212.514 31.2173C212.16 30.3813 211.982 29.463 211.982 28.4623C211.982 27.4616 212.16 26.5433 212.514 25.7073C212.882 24.8713 213.388 24.143 214.034 23.5223C214.693 22.9016 215.459 22.4266 216.333 22.0973C217.207 21.7553 218.164 21.5843 219.202 21.5843C220.355 21.5843 221.394 21.787 222.318 22.1923C223.256 22.585 224.041 23.1676 224.674 23.9403L222.698 25.7643C222.242 25.245 221.736 24.8586 221.178 24.6053C220.621 24.3393 220.013 24.2063 219.354 24.2063C218.734 24.2063 218.164 24.3076 217.644 24.5103C217.125 24.713 216.675 25.0043 216.295 25.3843C215.915 25.7643 215.618 26.214 215.402 26.7333C215.2 27.2526 215.098 27.829 215.098 28.4623C215.098 29.0956 215.2 29.672 215.402 30.1913C215.618 30.7106 215.915 31.1603 216.295 31.5403C216.675 31.9203 217.125 32.2116 217.644 32.4143C218.164 32.617 218.734 32.7183 219.354 32.7183C220.013 32.7183 220.621 32.5916 221.178 32.3383C221.736 32.0723 222.242 31.6733 222.698 31.1413L224.674 32.9653C224.041 33.738 223.256 34.327 222.318 34.7323C221.394 35.1376 220.349 35.3403 219.183 35.3403ZM232.588 35.3403C230.7 35.3403 229.225 34.8146 228.161 33.7633C227.097 32.712 226.565 31.211 226.565 29.2603V21.8123H229.643V29.1463C229.643 30.413 229.902 31.325 230.422 31.8823C230.941 32.4396 231.669 32.7183 232.607 32.7183C233.544 32.7183 234.272 32.4396 234.792 31.8823C235.311 31.325 235.571 30.413 235.571 29.1463V21.8123H238.611V29.2603C238.611 31.211 238.079 32.712 237.015 33.7633C235.951 34.8146 234.475 35.3403 232.588 35.3403ZM246.022 35.3403C244.958 35.3403 243.939 35.201 242.963 34.9223C241.988 34.631 241.203 34.2573 240.607 33.8013L241.652 31.4833C242.222 31.8886 242.894 32.2243 243.666 32.4903C244.452 32.7436 245.243 32.8703 246.041 32.8703C246.649 32.8703 247.137 32.8133 247.504 32.6993C247.884 32.5726 248.163 32.4016 248.34 32.1863C248.518 31.971 248.606 31.724 248.606 31.4453C248.606 31.0906 248.467 30.812 248.188 30.6093C247.91 30.394 247.542 30.223 247.086 30.0963C246.63 29.957 246.124 29.8303 245.566 29.7163C245.022 29.5896 244.471 29.4376 243.913 29.2603C243.369 29.083 242.868 28.855 242.412 28.5763C241.956 28.2976 241.583 27.9303 241.291 27.4743C241.013 27.0183 240.873 26.4356 240.873 25.7263C240.873 24.9663 241.076 24.276 241.481 23.6553C241.899 23.022 242.52 22.5216 243.343 22.1543C244.179 21.7743 245.224 21.5843 246.478 21.5843C247.314 21.5843 248.138 21.6856 248.948 21.8883C249.759 22.0783 250.475 22.3696 251.095 22.7623L250.145 25.0993C249.525 24.7446 248.904 24.485 248.283 24.3203C247.663 24.143 247.055 24.0543 246.459 24.0543C245.864 24.0543 245.376 24.124 244.996 24.2633C244.616 24.4026 244.344 24.5863 244.179 24.8143C244.015 25.0296 243.932 25.283 243.932 25.5743C243.932 25.9163 244.072 26.195 244.35 26.4103C244.629 26.613 244.996 26.7776 245.452 26.9043C245.908 27.031 246.409 27.1576 246.953 27.2843C247.511 27.411 248.062 27.5566 248.606 27.7213C249.164 27.886 249.67 28.1076 250.126 28.3863C250.582 28.665 250.95 29.0323 251.228 29.4883C251.52 29.9443 251.665 30.5206 251.665 31.2173C251.665 31.9646 251.456 32.6486 251.038 33.2693C250.62 33.89 249.993 34.3903 249.157 34.7703C248.334 35.1503 247.289 35.3403 246.022 35.3403ZM256.599 27.1703H263.002V29.5643H256.599V27.1703ZM256.827 32.6423H264.066V35.1123H253.768V21.8123H263.819V24.2823H256.827V32.6423ZM266.515 35.1123V21.8123H272.557C274.001 21.8123 275.274 22.091 276.376 22.6483C277.478 23.193 278.34 23.9593 278.96 24.9473C279.581 25.9353 279.891 27.107 279.891 28.4623C279.891 29.805 279.581 30.9766 278.96 31.9773C278.34 32.9653 277.478 33.738 276.376 34.2953C275.274 34.84 274.001 35.1123 272.557 35.1123H266.515ZM269.593 32.5853H272.405C273.292 32.5853 274.058 32.4206 274.704 32.0913C275.363 31.7493 275.87 31.268 276.224 30.6473C276.592 30.0266 276.775 29.2983 276.775 28.4623C276.775 27.6136 276.592 26.8853 276.224 26.2773C275.87 25.6566 275.363 25.1816 274.704 24.8523C274.058 24.5103 273.292 24.3393 272.405 24.3393H269.593V32.5853ZM105.037 55.3403C103.986 55.3403 103.01 55.1693 102.111 54.8273C101.224 54.4853 100.452 54.004 99.793 53.3833C99.147 52.7626 98.6403 52.0343 98.273 51.1983C97.9183 50.3623 97.741 49.4503 97.741 48.4623C97.741 47.4743 97.9183 46.5623 98.273 45.7263C98.6403 44.8903 99.1533 44.162 99.812 43.5413C100.471 42.9206 101.243 42.4393 102.13 42.0973C103.017 41.7553 103.979 41.5843 105.018 41.5843C106.069 41.5843 107.032 41.7553 107.906 42.0973C108.793 42.4393 109.559 42.9206 110.205 43.5413C110.864 44.162 111.377 44.8903 111.744 45.7263C112.111 46.5496 112.295 47.4616 112.295 48.4623C112.295 49.4503 112.111 50.3686 111.744 51.2173C111.377 52.0533 110.864 52.7816 110.205 53.4023C109.559 54.0103 108.793 54.4853 107.906 54.8273C107.032 55.1693 106.076 55.3403 105.037 55.3403ZM105.018 52.7183C105.613 52.7183 106.158 52.617 106.652 52.4143C107.159 52.2116 107.602 51.9203 107.982 51.5403C108.362 51.1603 108.653 50.7106 108.856 50.1913C109.071 49.672 109.179 49.0956 109.179 48.4623C109.179 47.829 109.071 47.2526 108.856 46.7333C108.653 46.214 108.362 45.7643 107.982 45.3843C107.615 45.0043 107.178 44.713 106.671 44.5103C106.164 44.3076 105.613 44.2063 105.018 44.2063C104.423 44.2063 103.872 44.3076 103.365 44.5103C102.871 44.713 102.434 45.0043 102.054 45.3843C101.674 45.7643 101.376 46.214 101.161 46.7333C100.958 47.2526 100.857 47.829 100.857 48.4623C100.857 49.083 100.958 49.6593 101.161 50.1913C101.376 50.7106 101.668 51.1603 102.035 51.5403C102.415 51.9203 102.858 52.2116 103.365 52.4143C103.872 52.617 104.423 52.7183 105.018 52.7183ZM114.608 55.1123V41.8123H117.154L125.001 51.3883H123.766V41.8123H126.806V55.1123H124.279L116.413 45.5363H117.648V55.1123H114.608ZM141.243 55.3403C139.356 55.3403 137.88 54.8146 136.816 53.7633C135.752 52.712 135.22 51.211 135.22 49.2603V41.8123H138.298V49.1463C138.298 50.413 138.558 51.325 139.077 51.8823C139.596 52.4396 140.325 52.7183 141.262 52.7183C142.199 52.7183 142.928 52.4396 143.447 51.8823C143.966 51.325 144.226 50.413 144.226 49.1463V41.8123H147.266V49.2603C147.266 51.211 146.734 52.712 145.67 53.7633C144.606 54.8146 143.13 55.3403 141.243 55.3403ZM149.452 55.1123V53.1173L157.679 43.1993L158.059 44.3203H149.604V41.8123H160.795V43.8073L152.587 53.7253L152.207 52.6043H161.08V55.1123H149.452ZM163.055 55.1123V41.8123H169.553C171.225 41.8123 172.479 42.129 173.315 42.7623C174.163 43.3956 174.588 44.2316 174.588 45.2703C174.588 45.967 174.417 46.575 174.075 47.0943C173.733 47.601 173.264 47.9936 172.669 48.2723C172.073 48.551 171.389 48.6903 170.617 48.6903L170.978 47.9113C171.814 47.9113 172.555 48.0506 173.201 48.3293C173.847 48.5953 174.347 48.9943 174.702 49.5263C175.069 50.0583 175.253 50.7106 175.253 51.4833C175.253 52.6233 174.803 53.5163 173.904 54.1623C173.004 54.7956 171.681 55.1123 169.933 55.1123H163.055ZM166.114 52.7943H169.705C170.503 52.7943 171.104 52.6676 171.51 52.4143C171.928 52.1483 172.137 51.7303 172.137 51.1603C172.137 50.603 171.928 50.1913 171.51 49.9253C171.104 49.6466 170.503 49.5073 169.705 49.5073H165.886V47.2653H169.173C169.92 47.2653 170.49 47.1386 170.883 46.8853C171.288 46.6193 171.491 46.2203 171.491 45.6883C171.491 45.169 171.288 44.7826 170.883 44.5293C170.49 44.2633 169.92 44.1303 169.173 44.1303H166.114V52.7943ZM180.414 47.1703H186.817V49.5643H180.414V47.1703ZM180.642 52.6423H187.881V55.1123H177.583V41.8123H187.634V44.2823H180.642V52.6423ZM193.085 52.0723L192.914 48.5193L199.279 41.8123H202.699L196.961 47.9873L195.251 49.8113L193.085 52.0723ZM190.33 55.1123V41.8123H193.389V55.1123H190.33ZM199.431 55.1123L194.7 49.3173L196.714 47.1323L203.022 55.1123H199.431ZM204.394 55.1123V41.8123H207.472V55.1123H204.394ZM214.999 55.3403C213.935 55.3403 212.915 55.201 211.94 54.9223C210.964 54.631 210.179 54.2573 209.584 53.8013L210.629 51.4833C211.199 51.8886 211.87 52.2243 212.643 52.4903C213.428 52.7436 214.22 52.8703 215.018 52.8703C215.626 52.8703 216.113 52.8133 216.481 52.6993C216.861 52.5726 217.139 52.4016 217.317 52.1863C217.494 51.971 217.583 51.724 217.583 51.4453C217.583 51.0906 217.443 50.812 217.165 50.6093C216.886 50.394 216.519 50.223 216.063 50.0963C215.607 49.957 215.1 49.8303 214.543 49.7163C213.998 49.5896 213.447 49.4376 212.89 49.2603C212.345 49.083 211.845 48.855 211.389 48.5763C210.933 48.2976 210.559 47.9303 210.268 47.4743C209.989 47.0183 209.85 46.4356 209.85 45.7263C209.85 44.9663 210.052 44.276 210.458 43.6553C210.876 43.022 211.496 42.5216 212.32 42.1543C213.156 41.7743 214.201 41.5843 215.455 41.5843C216.291 41.5843 217.114 41.6856 217.925 41.8883C218.735 42.0783 219.451 42.3696 220.072 42.7623L219.122 45.0993C218.501 44.7446 217.88 44.485 217.26 44.3203C216.639 44.143 216.031 44.0543 215.436 44.0543C214.84 44.0543 214.353 44.124 213.973 44.2633C213.593 44.4026 213.32 44.5863 213.156 44.8143C212.991 45.0296 212.909 45.283 212.909 45.5743C212.909 45.9163 213.048 46.195 213.327 46.4103C213.605 46.613 213.973 46.7776 214.429 46.9043C214.885 47.031 215.385 47.1576 215.93 47.2843C216.487 47.411 217.038 47.5566 217.583 47.7213C218.14 47.886 218.647 48.1076 219.103 48.3863C219.559 48.665 219.926 49.0323 220.205 49.4883C220.496 49.9443 220.642 50.5206 220.642 51.2173C220.642 51.9646 220.433 52.6486 220.015 53.2693C219.597 53.89 218.97 54.3903 218.134 54.7703C217.31 55.1503 216.265 55.3403 214.999 55.3403ZM225.314 55.1123V44.3203H221.058V41.8123H232.648V44.3203H228.392V55.1123H225.314ZM231.889 55.1123L237.817 41.8123H240.857L246.804 55.1123H243.574L238.71 43.3703H239.926L235.043 55.1123H231.889ZM234.853 52.2623L235.67 49.9253H242.51L243.346 52.2623H234.853ZM248.183 55.1123V41.8123H250.729L258.576 51.3883H257.341V41.8123H260.381V55.1123H257.854L249.988 45.5363H251.223V55.1123H248.183Z" fill="black"/>
</svg>
