<svg width="18" height="14" viewBox="0 0 18 14" fill="none" xmlns="http://www.w3.org/2000/svg">
<path fill-rule="evenodd" clip-rule="evenodd" d="M1.65548 0H16.3445C17.2551 0 18 0.781216 18 1.73622V2.88275L10.6295 8.57841C9.45708 9.48441 8.62154 9.48229 7.52335 8.63359L1.27488e-05 2.81988V1.73622C1.27488e-05 0.781229 0.744894 0 1.65548 0ZM18 4.26329V12.2638C18 13.2188 17.2551 14 16.3445 14H1.65547C0.744894 14 0 13.2188 0 12.2638V4.20041L7.52333 10.0141C7.81323 10.2381 8.51907 10.4795 8.98966 10.4859C9.58429 10.494 10.3238 10.1951 10.6294 9.95893L18 4.26328L18 4.26329Z" fill="white"/>
</svg>
