<svg width="49" height="43" viewBox="0 0 49 43" fill="none" xmlns="http://www.w3.org/2000/svg">
<path fill-rule="evenodd" clip-rule="evenodd" d="M1.22917 28.365H14.2771C14.2771 25.217 14.0698 22.3143 17.2121 20.4266C19.4181 19.1015 21.869 19.4773 24.7722 19.4773C28.6019 19.4773 27.0301 19.5856 31.2634 17.5536L36.9692 14.7498V2.17456L19.8367 13.5019C18.1904 14.5998 18.2424 14.3048 16.0736 12.8588L1.21026 2.94981C0.796487 2.67406 0.429016 2.40167 0 2.17456V26.0959V27.112C0.0189013 27.307 0.0616826 27.4871 0.150621 27.6471C0.333481 27.976 0.769967 28.365 1.22917 28.365Z" fill="white" fill-opacity="0.7"/>
<path fill-rule="evenodd" clip-rule="evenodd" d="M17.1133 25.434V30.5397C17.1133 31.9541 18.421 33.4618 19.6661 33.5654L18.7883 38.9279C18.6753 39.6051 18.5316 40.1209 18.5316 40.9402C18.5316 41.52 19.1809 42.1694 19.7608 42.1694H25.812C26.1877 42.1694 26.5497 41.898 26.7354 41.6745C27.3609 40.9215 27.8454 35.6036 28.2901 34.058C28.3758 33.7601 28.4324 33.8364 28.463 33.4744C28.5728 32.1775 28.4593 24.165 28.4593 22.1248C28.1065 22.2068 28.2018 22.2756 27.7966 22.3129L21.3681 22.3138C19.9127 22.3138 19.188 22.3062 18.3687 23.0019C17.7416 23.5346 17.1133 24.3165 17.1133 25.434Z" fill="white" fill-opacity="0.7"/>
<path fill-rule="evenodd" clip-rule="evenodd" d="M31.2969 20.612V35.3617L35.4571 37.3472C36.1343 37.687 36.7699 38.0038 37.4741 38.3559C38.5553 38.8964 39.0423 39.3329 39.9956 39.3329C40.5752 39.3329 41.2246 38.6835 41.2246 38.1037V17.87C41.2246 17.1013 40.5352 16.6408 39.6173 16.6408C39.177 16.6408 31.9688 20.4553 31.2969 20.612Z" fill="white" fill-opacity="0.7"/>
<path fill-rule="evenodd" clip-rule="evenodd" d="M18.4369 11.0624C19.2785 10.617 27.3274 5.1983 28.7995 4.21675C29.5334 3.72752 30.1721 3.27433 30.9131 2.83198C31.6097 2.41615 32.3155 1.90435 33.0166 1.43709C33.4213 1.16719 34.8796 0.270333 35.0778 0H1.89062C2.12682 0.322348 14.945 8.76596 16.3189 9.68202C17.0061 10.1402 17.743 10.6951 18.4369 11.0624Z" fill="white" fill-opacity="0.7"/>
<path fill-rule="evenodd" clip-rule="evenodd" d="M44.0605 33.4709C44.0605 34.2587 44.1679 34.6718 45.101 35.0778C46.0617 35.496 46.3212 35.7401 47.1807 35.7401C47.7763 35.7401 48.3132 35.1677 48.4099 34.5104V34.0951C48.3407 33.6403 48.0335 33.1928 47.3696 32.9038C46.4087 32.4857 46.1492 32.2417 45.2897 32.2417C44.7099 32.2417 44.0605 32.8909 44.0605 33.4709Z" fill="white" fill-opacity="0.7"/>
<path fill-rule="evenodd" clip-rule="evenodd" d="M44.0605 22.1248C44.0605 23.2516 44.5411 23.7322 45.6679 23.7322C45.6836 23.7322 48.4099 23.0653 48.4099 21.8411C48.4099 20.7142 47.9295 20.2338 46.8026 20.2338C46.4919 20.2338 45.5151 20.722 45.1674 20.8678C44.6619 21.0797 44.0605 21.4662 44.0605 22.1248Z" fill="white" fill-opacity="0.7"/>
<path fill-rule="evenodd" clip-rule="evenodd" d="M44.0605 27.7978C44.0605 29.7409 45.5316 29.4052 47.1807 29.4052C48.8131 29.4052 48.8131 26.5687 47.1807 26.5687H45.2897C44.7099 26.5687 44.0605 27.2179 44.0605 27.7978Z" fill="white" fill-opacity="0.7"/>
</svg>
