<svg width="22" height="18" viewBox="0 0 22 18" fill="none" xmlns="http://www.w3.org/2000/svg">
<path d="M21.6415 15.25V17.0357C21.6415 17.2775 21.5531 17.4868 21.3764 17.6635C21.1997 17.8402 20.9904 17.9286 20.7486 17.9286H1.10575C0.863932 17.9286 0.654669 17.8402 0.477958 17.6635C0.301246 17.4868 0.212891 17.2775 0.212891 17.0357V15.25C0.212891 15.0082 0.301246 14.7989 0.477958 14.6222C0.654669 14.4455 0.863932 14.3572 1.10575 14.3572H20.7486C20.9904 14.3572 21.1997 14.4455 21.3764 14.6222C21.5531 14.7989 21.6415 15.0082 21.6415 15.25ZM21.6415 8.10716V9.89287C21.6415 10.1347 21.5531 10.344 21.3764 10.5207C21.1997 10.6974 20.9904 10.7857 20.7486 10.7857H1.10575C0.863932 10.7857 0.654669 10.6974 0.477958 10.5207C0.301246 10.344 0.212891 10.1347 0.212891 9.89287V8.10716C0.212891 7.86534 0.301246 7.65608 0.477958 7.47937C0.654669 7.30266 0.863932 7.2143 1.10575 7.2143H20.7486C20.9904 7.2143 21.1997 7.30266 21.3764 7.47937C21.5531 7.65608 21.6415 7.86534 21.6415 8.10716ZM21.6415 0.964302V2.75002C21.6415 2.99183 21.5531 3.2011 21.3764 3.37781C21.1997 3.55452 20.9904 3.64287 20.7486 3.64287H1.10575C0.863932 3.64287 0.654669 3.55452 0.477958 3.37781C0.301246 3.2011 0.212891 2.99183 0.212891 2.75002V0.964302C0.212891 0.722486 0.301246 0.513224 0.477958 0.336512C0.654669 0.1598 0.863932 0.0714455 1.10575 0.0714455H20.7486C20.9904 0.0714455 21.1997 0.1598 21.3764 0.336512C21.5531 0.513224 21.6415 0.722486 21.6415 0.964302Z" fill="black"/>
</svg>
