<svg width="18" height="20" viewBox="0 0 18 20" fill="none" xmlns="http://www.w3.org/2000/svg">
<path fill-rule="evenodd" clip-rule="evenodd" d="M7.27662 7.0243C7.27662 8.67062 7.37677 9.36847 8.10639 10.8036C8.9456 12.4544 10.2922 13.8795 11.9872 14.7085C12.809 15.1104 14.0906 15.5748 15.051 15.5748C14.8348 15.8924 13.8792 16.5396 13.4813 16.7429C10.9058 18.0595 7.9004 17.9291 5.5149 16.3658C4.76697 15.8757 4.12703 15.2757 3.58869 14.5689C3.45203 14.3895 3.33894 14.2108 3.21655 14.0309C3.14363 13.9237 3.11957 13.8679 3.0511 13.7416C2.74566 13.1781 2.53258 12.7854 2.34377 12.1019C2.1214 11.2971 2.09547 10.8954 2.03049 10.1097L2.14997 8.83751C2.23992 8.31427 2.36305 7.84194 2.54369 7.37906C2.96438 6.30078 3.29646 5.86986 3.9503 5.07113C4.97087 3.82431 7.24134 2.59482 8.80851 2.46653C7.97203 3.69512 7.27662 5.42996 7.27662 7.0243ZM0 9.73633C0 11.9499 0.490221 13.6697 1.71538 15.4697C1.8819 15.7144 2.04563 15.91 2.22622 16.1349C2.33077 16.2652 2.41202 16.3306 2.51147 16.4571C2.62086 16.5962 2.68359 16.6511 2.80532 16.7707C4.50551 18.4419 7.06118 19.6429 9.49785 19.6429C10.7843 19.6429 11.6557 19.5839 12.806 19.2051C14.1384 18.7664 15.2991 18.0921 16.3242 17.2036C16.6671 16.9064 17.1747 16.3675 17.4759 16.001C17.8592 15.5346 18 15.3889 18 14.7461C18 14.4106 17.7199 14.0996 17.5315 13.9262C17.1297 13.5562 16.5285 13.542 15.9965 13.6073L14.8483 13.5142C13.8819 13.3595 12.6827 12.9007 11.9604 12.3241C11.8049 12.2 11.6353 12.0831 11.4987 11.9495C11.1018 11.5612 11.1361 11.6486 10.697 11.1184C10.4695 10.8436 10.2138 10.4684 10.0463 10.1386C9.39765 8.86123 9.3447 8.3392 9.3447 6.87362C9.3447 5.4749 10.0729 3.83007 10.9436 2.90907C11.0348 2.81247 11.0552 2.76108 11.1535 2.66353C11.2343 2.58335 11.3114 2.52087 11.3811 2.43542C11.9592 1.7261 11.5906 0.357178 10.3404 0.357178H10.2862H10.233H10.1807C9.12582 0.357389 8.6189 0.366209 7.52171 0.635939C7.19124 0.717169 6.90727 0.792642 6.60913 0.906037C6.4432 0.969204 6.30895 1.01552 6.16101 1.06797C5.29494 1.37509 3.86659 2.24787 3.2267 2.89037L2.34152 3.79019C1.90199 4.32585 1.7418 4.51413 1.35248 5.15278C0.580328 6.4194 0 8.0664 0 9.73633Z" fill="#B7C2D1"/>
</svg>
