<svg width="24" height="24" viewBox="0 0 24 24" fill="none" xmlns="http://www.w3.org/2000/svg">
<path d="M6 9.32999V14.67C6 17.99 8.35 19.34 11.22 17.69L12.5 16.95C12.81 16.77 13 16.44 13 16.08V7.91999C13 7.55999 12.81 7.22999 12.5 7.04999L11.22 6.30999C8.35 4.65999 6 6.00999 6 9.32999ZM14 8.79199V15.222C14 15.612 14.42 15.852 14.75 15.652L15.85 15.012C18.72 13.362 18.72 10.642 15.85 8.99199L14.75 8.35199C14.6733 8.30877 14.5867 8.28642 14.4987 8.28718C14.4107 8.28794 14.3244 8.31178 14.2485 8.35631C14.1726 8.40085 14.1097 8.46452 14.0661 8.54097C14.0225 8.61742 13.9997 8.70398 14 8.79199Z" fill="white"/>
</svg>
