<svg width="24" height="22" viewBox="0 0 24 22" fill="none" xmlns="http://www.w3.org/2000/svg">
<path fill-rule="evenodd" clip-rule="evenodd" d="M18.1933 2.3937C17.3444 1.54833 15.9685 1.54885 15.1203 2.39486L8.55947 8.93935C8.03473 9.46269 7.72623 10.1633 7.69501 10.9024L7.60161 13.1136C7.55908 14.1205 8.36663 14.9599 9.37783 14.9599L11.5533 14.96C12.352 14.96 13.1169 14.6387 13.6746 14.0689L20.1826 7.39909C21.0134 6.55023 21.0047 5.19335 20.163 4.35519L18.1933 2.3937ZM15.9587 3.22977C16.3442 2.84522 16.9696 2.84498 17.3555 3.22924L19.3252 5.19074C19.7078 5.57172 19.7118 6.18849 19.3341 6.57433L18.0271 7.90977L14.6441 4.54088L15.9587 3.22977ZM13.8063 5.37642L9.39788 9.77427C9.08304 10.0883 8.89794 10.5086 8.8792 10.9521L8.78581 13.1633C8.77163 13.4989 9.04081 13.7787 9.37788 13.7787L11.5533 13.7788C12.0326 13.7788 12.4915 13.5861 12.8261 13.2442L17.1994 8.7554L13.8063 5.37642Z" fill="#B7C2D1" stroke="#B7C2D1" stroke-width="0.44" stroke-linecap="round" stroke-linejoin="round"/>
<path d="M19.04 11.44V14.96C19.04 17.3901 17.0701 19.36 14.64 19.36H7.60001C5.16996 19.36 3.20001 17.3901 3.20001 14.96V7.92002C3.20001 5.48997 5.16996 3.52002 7.60001 3.52002H11.12" stroke="#B7C2D1" stroke-width="1.76" stroke-linecap="round"/>
</svg>
