<svg width="20" height="20" viewBox="0 0 20 20" fill="none" xmlns="http://www.w3.org/2000/svg">
<path fill-rule="evenodd" clip-rule="evenodd" d="M9.99999 0C15.5228 0 20 4.47715 20 10C20 15.5229 15.5228 20 9.99999 20C4.47714 20 0 15.5229 0 10C0 4.47715 4.47714 0 9.99999 0ZM4.24656 9.55981C4.24656 9.88734 4.48517 9.93472 4.81462 10.0448L6.34945 10.5648C7.34746 10.8973 6.95283 10.9457 7.94036 10.3512L10.3289 8.88698C10.4608 8.80381 10.5836 8.74016 10.7142 8.65579L11.9088 7.92407C12.1844 7.7597 12.4297 7.59916 12.7049 7.43596C12.8828 7.33054 13.3385 6.99131 13.5445 6.99131C13.5445 7.18793 13.4087 7.22101 13.1276 7.49908L10.8801 9.56659C10.8149 9.63216 10.7939 9.6397 10.7268 9.6958L8.76712 11.4862C8.76712 11.736 8.72682 11.9771 8.7158 12.2054C8.70878 12.3509 8.69566 12.45 8.69011 12.565L8.59149 13.9974C8.60511 14.0757 8.69879 14.1831 8.79281 14.1831C8.94252 14.1831 9.19991 13.8519 9.42736 13.6618C9.62592 13.4958 10.2583 12.7956 10.411 12.6934L12.9024 14.5684C13.1146 14.7274 13.3894 14.9358 13.7037 14.7018C13.8951 14.5594 13.9325 14.1912 13.9876 13.9327L14.7517 10.4588C14.8537 10.0273 15.7534 6.02467 15.7534 5.80981C15.7534 5.44181 15.4935 5.19335 15.1113 5.19335C14.8958 5.19335 13.928 5.60185 13.7025 5.68519L10.9542 6.73829C10.7311 6.8207 10.5067 6.91071 10.2678 7.00224L8.89254 7.52767C7.9097 7.88194 6.80447 8.34924 5.81038 8.70921L4.77135 9.10855C4.53879 9.2025 4.24656 9.2469 4.24656 9.55981Z" fill="white"/>
</svg>
