<svg width="25" height="25" viewBox="0 0 25 25" fill="none" xmlns="http://www.w3.org/2000/svg">
<path fill-rule="evenodd" clip-rule="evenodd" d="M12.5 0C19.4036 0 25 5.59644 25 12.5C25 19.4036 19.4036 25 12.5 25C5.59643 25 0 19.4036 0 12.5C0 5.59644 5.59643 0 12.5 0ZM5.3082 11.9498C5.3082 12.3592 5.60646 12.4184 6.01828 12.556L7.93682 13.206C9.18432 13.6216 8.69104 13.6821 9.92546 12.939L12.9111 11.1087C13.076 11.0048 13.2296 10.9252 13.3927 10.8197L14.886 9.90508C15.2305 9.69963 15.5371 9.49895 15.8812 9.29495C16.1035 9.16318 16.6732 8.73914 16.9307 8.73914C16.9307 8.98491 16.7609 9.02626 16.4095 9.37385L13.6001 11.9582C13.5186 12.0402 13.4923 12.0496 13.4085 12.1198L10.9589 14.3577C10.9589 14.67 10.9085 14.9714 10.8948 15.2567C10.886 15.4386 10.8696 15.5624 10.8626 15.7062L10.7394 17.4968C10.7564 17.5946 10.8735 17.7289 10.991 17.7289C11.1781 17.7289 11.4999 17.3149 11.7842 17.0773C12.0324 16.8698 12.8228 15.9945 13.0137 15.8667L16.128 18.2104C16.3933 18.4092 16.7367 18.6697 17.1296 18.3773C17.3688 18.1993 17.4156 17.739 17.4845 17.4159L18.4396 13.0735C18.5672 12.5341 19.6918 7.53083 19.6918 7.26226C19.6918 6.80226 19.3669 6.49169 18.8891 6.49169C18.6198 6.49169 17.41 7.00232 17.1281 7.10649L13.6927 8.42286C13.4138 8.52588 13.1333 8.63838 12.8347 8.7528L11.1157 9.40959C9.88712 9.85243 8.50559 10.4365 7.26298 10.8865L5.96418 11.3857C5.67348 11.5031 5.3082 11.5586 5.3082 11.9498Z" fill="#003087"/>
</svg>
