<svg width="26" height="25" viewBox="0 0 26 25" fill="none" xmlns="http://www.w3.org/2000/svg">
<path fill-rule="evenodd" clip-rule="evenodd" d="M13 0C19.9036 0 25.5 5.59644 25.5 12.5C25.5 19.4036 19.9036 25 13 25C6.09643 25 0.5 19.4036 0.5 12.5C0.5 5.59644 6.09643 0 13 0ZM11.4595 10.1842L14.9765 12.1989C15.1256 12.2832 15.3509 12.4021 15.472 12.4987L11.4597 14.8001L11.4595 10.1842ZM20.7273 11.7174V12.9524C20.7137 13.6023 20.6801 14.2409 20.6345 14.837C20.5803 15.5452 20.4541 16.4905 20.0103 16.9898C19.3414 17.7424 18.5492 17.6705 17.5927 17.7718L15.2944 17.8883C15.0328 17.8869 14.7709 17.8881 14.5092 17.888C14.2135 17.8878 14.0361 17.9193 13.7547 17.9182L9.82962 17.8587C9.67211 17.854 9.62399 17.8259 9.43888 17.8269L7.96176 17.7344C7.21039 17.6715 6.46805 17.5756 5.97082 16.9484C5.69913 16.6056 5.59805 16.371 5.50129 15.8483C5.38075 15.1972 5.35593 14.675 5.30445 14.0529C5.29414 13.9279 5.30979 13.7878 5.30305 13.6619C5.29634 13.538 5.27666 13.4877 5.27269 13.3568V12.0925C5.27269 11.0619 5.32377 8.98821 5.84569 8.19811C6.37704 7.39369 7.0841 7.35751 7.89015 7.25426L8.92411 7.1714C9.06299 7.17172 9.14117 7.17435 9.26981 7.15491L14.5395 7.08174C14.8217 7.08114 14.9816 7.11263 15.2639 7.11203C15.5058 7.11148 15.774 7.09504 16.001 7.12942L17.4065 7.20299C17.9054 7.20711 18.9453 7.33858 19.318 7.49503C20.0668 7.80938 20.3922 8.46971 20.5204 9.25074C20.6451 10.0104 20.7079 10.8566 20.7273 11.7174Z" fill="#003087"/>
</svg>
