<svg width="20" height="20" viewBox="0 0 20 20" fill="none" xmlns="http://www.w3.org/2000/svg">
<path fill-rule="evenodd" clip-rule="evenodd" d="M9.99999 0C15.5228 0 20 4.47715 20 10C20 15.5229 15.5228 20 9.99999 20C4.47714 20 0 15.5229 0 10C0 4.47715 4.47714 0 9.99999 0ZM8.7676 8.14734L11.5812 9.75913C11.7004 9.82652 11.8807 9.92167 11.9776 9.99894L8.76779 11.8401L8.7676 8.14734ZM16.1819 9.3739V10.3619C16.1709 10.8819 16.1441 11.3927 16.1076 11.8696C16.0642 12.4362 15.9633 13.1924 15.6082 13.5918C15.0731 14.1939 14.4393 14.1364 13.6742 14.2175L11.8356 14.3107C11.6262 14.3095 11.4167 14.3105 11.2074 14.3104C10.9708 14.3102 10.8289 14.3354 10.6038 14.3346L7.4637 14.287C7.33769 14.2832 7.29919 14.2607 7.15111 14.2615L5.96941 14.1875C5.36831 14.1372 4.77444 14.0605 4.37666 13.5587C4.15931 13.2845 4.07844 13.0968 4.00103 12.6786C3.9046 12.1578 3.88475 11.74 3.84356 11.2423C3.83531 11.1423 3.84784 11.0302 3.84244 10.9296C3.83707 10.8304 3.82132 10.7902 3.81815 10.6854V9.67399C3.81815 8.84956 3.85901 7.19057 4.27655 6.55849C4.70163 5.91495 5.26728 5.88601 5.91212 5.80341L6.73929 5.73712C6.85039 5.73738 6.91294 5.73948 7.01585 5.72393L11.2316 5.66539C11.4574 5.66491 11.5853 5.6901 11.8111 5.68962C12.0047 5.68918 12.2192 5.67603 12.4008 5.70354L13.5252 5.76239C13.9243 5.76569 14.7562 5.87087 15.0544 5.99603C15.6535 6.24751 15.9138 6.77577 16.0163 7.40059C16.1161 8.00833 16.1664 8.68528 16.1819 9.3739Z" fill="white"/>
</svg>
