<svg width="24" height="14" viewBox="0 0 24 14" fill="none" xmlns="http://www.w3.org/2000/svg">
<path d="M23.1284 6.003C21.8296 4.4734 20.1779 3.22854 18.2927 2.35841C16.3936 1.48303 14.3024 1.01841 12.1786 1H11.8229C9.69908 1.01841 7.60789 1.48303 5.70874 2.35841C3.82354 3.22854 2.17186 4.4734 0.87308 6.003C0.631332 6.28768 0.5 6.63865 0.5 7C0.5 7.36135 0.631332 7.71232 0.87308 7.997C2.17186 9.5266 3.82354 10.7715 5.70874 11.6416C7.60788 12.517 9.69908 12.9816 11.8229 13H12.1786C14.3024 12.9816 16.3936 12.517 18.2927 11.6416C20.1783 10.7705 21.83 9.5244 23.1284 7.99354C23.3692 7.70915 23.5 7.35887 23.5 6.99827C23.5 6.63767 23.3692 6.28739 23.1284 6.003ZM6.12688 10.871C4.36765 10.058 2.82646 8.89543 1.6146 7.46734C1.50196 7.33376 1.44083 7.16946 1.44083 7.00035C1.44083 6.83124 1.50196 6.66694 1.6146 6.53335C3.16773 4.69667 5.2612 3.30934 7.64601 2.53635C6.96453 3.09845 6.41941 3.7865 6.04622 4.55561C5.67303 5.32473 5.48014 6.15763 5.48014 7C5.48014 7.84237 5.67303 8.67527 6.04622 9.44439C6.41941 10.2135 6.96453 10.9016 7.64601 11.4637C7.1267 11.2955 6.61933 11.0975 6.12688 10.871ZM12.0011 12.1408C10.8967 12.1408 9.81711 11.8393 8.89884 11.2744C7.98056 10.7095 7.26485 9.90665 6.84222 8.96729C6.41958 8.02794 6.309 6.9943 6.52446 5.99708C6.73992 4.99987 7.27174 4.08387 8.05267 3.36492C8.83359 2.64597 9.82856 2.15636 10.9117 1.958C11.9949 1.75964 13.1177 1.86145 14.138 2.25054C15.1583 2.63963 16.0304 3.29854 16.644 4.14394C17.2576 4.98933 17.5851 5.98325 17.5851 7C17.5833 8.36291 16.9944 9.66953 15.9476 10.6333C14.9008 11.597 13.4815 12.1391 12.0011 12.1408ZM22.3906 7.46734C20.8373 9.30453 18.7424 10.6914 16.3562 11.4623C17.0376 10.9002 17.5826 10.2122 17.9557 9.44311C18.3288 8.67406 18.5217 7.84124 18.5217 6.99896C18.5217 6.15668 18.3288 5.32386 17.9557 4.55481C17.5826 3.78576 17.0376 3.09775 16.3562 2.53566C18.7425 3.30826 20.8375 4.69559 22.3921 6.53266C22.5046 6.6664 22.5654 6.83078 22.5652 6.99989C22.5649 7.169 22.5035 7.33322 22.3906 7.46665V7.46734Z" fill="#B7C2D1" stroke="#B7C2D1"/>
<path d="M12.0083 5.52588C11.7133 5.52588 11.4249 5.61239 11.1796 5.77448C10.9343 5.93657 10.7431 6.16695 10.6302 6.43649C10.5172 6.70603 10.4877 7.00262 10.5453 7.28876C10.6028 7.57491 10.7449 7.83774 10.9535 8.04404C11.1621 8.25034 11.4279 8.39083 11.7173 8.44775C12.0067 8.50466 12.3066 8.47545 12.5792 8.3638C12.8518 8.25216 13.0847 8.06309 13.2487 7.82051C13.4126 7.57793 13.5001 7.29273 13.5001 7.00098C13.4997 6.60988 13.3424 6.23489 13.0627 5.95833C12.7831 5.68178 12.4038 5.52625 12.0083 5.52588ZM12.0083 7.89821C11.8289 7.89821 11.6535 7.84559 11.5042 7.747C11.355 7.64841 11.2387 7.50828 11.1701 7.34434C11.1014 7.18039 11.0834 6.99999 11.1184 6.82594C11.1534 6.6519 11.2399 6.49203 11.3667 6.36655C11.4936 6.24107 11.6553 6.15562 11.8313 6.121C12.0073 6.08638 12.1898 6.10415 12.3556 6.17206C12.5213 6.23997 12.6631 6.35497 12.7628 6.50251C12.8625 6.65006 12.9157 6.82353 12.9157 7.00098C12.9158 7.23915 12.8203 7.46763 12.6502 7.63621C12.48 7.80479 12.2492 7.8997 12.0083 7.90006V7.89821Z" fill="#B7C2D1" stroke="#B7C2D1"/>
</svg>
