<svg width="25" height="25" viewBox="0 0 25 25" fill="none" xmlns="http://www.w3.org/2000/svg">
<path d="M19.1187 4.46317C18.3089 4.46317 17.6529 5.11952 17.6529 5.92902C17.6529 6.73852 18.3089 7.39606 19.1187 7.39606C19.9282 7.39606 20.5836 6.73852 20.5836 5.92902C20.5836 5.11952 19.9282 4.46317 19.1187 4.46317ZM7.50956 2.35177C4.66571 2.35177 2.35204 4.66457 2.35204 7.50965V17.4898C2.35204 20.3348 4.66571 22.6476 7.50956 22.6476H17.4901C20.334 22.6476 22.648 20.3348 22.648 17.4898V7.50965C22.648 4.66457 20.334 2.35177 17.4901 2.35177H7.50956ZM17.4901 25H7.50956C3.36891 25 0 21.6316 0 17.49V7.50995C0 3.36836 3.36891 0 7.50956 0H17.4901C21.6305 0 25 3.36836 25 7.50995V17.49C25 21.6316 21.6302 25 17.4901 25ZM12.6026 16.4447C10.4283 16.4447 8.65831 14.6743 8.65831 12.5C8.65831 10.3257 10.4283 8.55681 12.6026 8.55681C14.7773 8.55681 16.5461 10.3257 16.5461 12.5C16.5461 14.6743 14.7773 16.4447 12.6026 16.4447ZM12.6026 6.34321C9.20765 6.34321 6.44562 9.10497 6.44562 12.4997C6.44562 15.8947 9.20765 18.6562 12.6026 18.6562C15.9976 18.6562 18.7591 15.8944 18.7591 12.4997C18.7591 9.10467 15.9973 6.34321 12.6026 6.34321Z" fill="white"/>
</svg>
