<svg width="20" height="20" viewBox="0 0 20 20" fill="none" xmlns="http://www.w3.org/2000/svg">
<path fill-rule="evenodd" clip-rule="evenodd" d="M9.99999 0C15.5228 0 20 4.47715 20 10C20 15.5229 15.5228 20 9.99999 20C4.47713 20 0 15.5229 0 10C0 4.47715 4.47713 0 9.99999 0ZM6.12604 10.1189C6.12604 8.06845 7.80445 6.39364 9.85135 6.39364C11.8983 6.39364 13.5766 8.06876 13.5766 10.1189C13.5766 12.1692 11.902 13.8442 9.85135 13.8442C7.80004 13.8442 6.12604 12.1709 6.12604 10.1189ZM12.8748 6.31266C12.8748 5.25994 14.4405 5.1953 14.4405 6.33966C14.4405 6.87924 13.6593 7.35219 13.1235 6.84684C13.0175 6.74692 12.8748 6.50438 12.8748 6.31266ZM4.07444 7.09552V13.1424C4.07444 13.8134 4.25564 14.4755 4.67524 14.9441C4.8762 15.1685 4.93286 15.2437 5.20801 15.4371C5.65591 15.7521 6.21049 15.8958 6.82792 15.8958H12.8748C13.5458 15.8958 14.2079 15.7146 14.6765 15.295C15.0038 15.0019 15.2408 14.7442 15.4165 14.3074C15.5509 13.9732 15.6282 13.6197 15.6282 13.1424V7.09552C15.6282 6.42451 15.447 5.76236 15.0274 5.2938C14.9612 5.21988 14.9351 5.172 14.8667 5.10361C14.7997 5.03661 14.7607 5.01876 14.6904 4.95596C14.2087 4.52577 13.5698 4.34204 12.8748 4.34204H6.82792C6.05711 4.34204 5.35239 4.58718 4.836 5.10361C4.769 5.17061 4.75115 5.2096 4.68835 5.2799C4.62888 5.34649 4.58141 5.40696 4.53315 5.47562C4.21824 5.92353 4.07444 6.47809 4.07444 7.09552ZM9.77037 8.01335C9.7275 8.02367 9.59807 8.01103 9.53382 8.01977C9.48409 8.02651 9.36876 8.0519 9.31081 8.0667C9.05936 8.13092 8.78734 8.27084 8.58213 8.41781C7.93533 8.88098 7.5813 9.80696 7.79909 10.6595C7.99948 11.4439 8.66393 12.0514 9.46562 12.2053C10.1626 12.3391 10.7442 12.1281 11.2632 11.6928C11.4207 11.5607 11.5032 11.4699 11.6278 11.2746C11.8364 10.9478 12.0277 10.3937 11.9773 10.0188C11.881 9.30153 11.6303 8.74024 11.007 8.34244C10.6816 8.13482 10.2669 7.99749 9.87334 7.9893C9.73996 7.98652 9.78138 8.01069 9.77037 8.01335Z" fill="white"/>
</svg>
