<svg width="14" height="18" viewBox="0 0 14 18" fill="none" xmlns="http://www.w3.org/2000/svg">
<path fill-rule="evenodd" clip-rule="evenodd" d="M7.00001 0C10.866 0 14 2.9909 14 6.68031C14 7.18783 13.9403 7.68207 13.8279 8.15725H13.8283L13.8272 8.16057C13.6544 8.88947 13.3567 9.57301 12.9567 10.1899C12.7063 10.6375 12.3427 11.2643 11.6659 12.2968C10.987 13.3326 9.99298 14.7769 9.28511 15.747C8.57723 16.7171 8.15561 17.2132 7.87719 17.5031C7.59877 17.7931 7.46343 17.877 7.3411 17.9254C7.21878 17.9738 7.10939 17.9869 7 18C6.89061 17.9869 6.78122 17.9739 6.6589 17.9254C6.53657 17.877 6.40125 17.7931 6.12281 17.5031C5.84439 17.2132 5.42277 16.7171 4.7149 15.747C4.00702 14.7769 3.01296 13.3326 2.33405 12.2968C1.65728 11.2643 1.29371 10.6375 1.04328 10.1899C0.643336 9.57301 0.345658 8.88938 0.172787 8.16057L0.171711 8.15725H0.17207C0.0596432 7.68215 0 7.18783 0 6.68031C0 2.99088 3.13402 0 6.99999 0L7.00001 0ZM7.00001 3.79628C8.66906 3.79628 10.0221 5.08748 10.0221 6.68031C10.0221 8.27313 8.66906 9.56433 7.00001 9.56433C5.33097 9.56433 3.97797 8.27313 3.97797 6.68031C3.97797 5.08748 5.33097 3.79628 7.00001 3.79628Z" fill="white"/>
</svg>
