<svg width="18" height="18" viewBox="0 0 18 18" fill="none" xmlns="http://www.w3.org/2000/svg">
<path fill-rule="evenodd" clip-rule="evenodd" d="M13.4211 7.25148C13.4224 7.27455 13.405 7.30419 13.184 7.65357C12.9629 8.00302 12.5381 8.67229 12.1434 9.26056C11.7486 9.84891 11.3838 10.3563 10.9038 10.8616C10.4238 11.367 9.82837 11.8701 9.20163 12.3146C8.57489 12.7592 7.91663 13.145 7.57077 13.3442C7.2249 13.5433 7.19141 13.5559 7.02159 13.3777C6.85178 13.1994 6.5457 12.8304 6.1936 12.4111C5.84141 11.9917 5.44309 11.5221 5.2209 11.2852C4.99872 11.0483 4.95259 11.044 4.87299 11.044C4.79329 11.044 4.68011 11.0483 3.8815 11.3774C3.08282 11.7066 1.59861 12.3608 0.835636 12.6941C0.0725656 13.0275 0.0307088 13.0402 0.00978641 13.0611C-0.0112285 13.082 -0.0112283 13.1114 0.143904 13.906C0.299023 14.7007 0.609276 16.2607 0.825231 17.0826C1.04109 17.9046 1.16264 17.9884 1.70977 17.9989C2.2569 18.0094 3.2295 17.9464 4.27976 17.7745C5.32992 17.6026 6.45774 17.3216 7.53311 16.9148C8.60839 16.5081 9.6314 15.9755 10.5286 15.3989C11.4258 14.8223 12.1971 14.2018 12.8952 13.5391C13.5932 12.8765 14.2178 12.1721 14.8551 11.2473C15.4923 10.3227 16.1422 9.17792 16.6096 8.12323C17.077 7.06862 17.3622 6.10406 17.5362 5.20666C17.7101 4.30927 17.7731 3.47902 17.8066 2.8101C17.8401 2.14125 17.8443 1.6339 17.8464 1.38014C17.8485 1.12646 17.8485 1.12646 17.0855 0.937728C16.3224 0.749077 14.7965 0.371668 13.9978 0.182938C13.1991 -0.00571311 13.1279 -0.00571283 13.0629 0.00266079C12.9979 0.0110344 12.9392 0.027861 12.5744 0.816158C12.2097 1.60453 11.5389 3.16453 11.2056 3.98008C10.8723 4.7957 10.8765 4.86704 10.9622 5.0076C11.0478 5.14823 11.2149 5.35826 11.6314 5.73445C12.0479 6.11073 12.7139 6.6532 13.0569 6.93268C13.3998 7.21216 13.4197 7.22848 13.4211 7.25146L13.4211 7.25148Z" fill="white"/>
</svg>
