<svg width="20" height="20" viewBox="0 0 20 20" fill="none" xmlns="http://www.w3.org/2000/svg">
<path d="M1.32225 9.03341C1.50987 9.58418 1.76785 10.0939 2.0962 10.5627C2.42454 11.0197 2.80272 11.4269 3.23074 11.7843C3.65876 12.1417 4.13661 12.4318 4.66431 12.6544C5.18028 12.8771 5.72556 13.0294 6.30016 13.1115C6.87476 13.1818 7.4435 13.17 8.00637 13.0763C8.56925 12.9943 9.1028 12.8361 9.60704 12.6017C10.1113 12.3673 10.5803 12.0685 11.0142 11.7052C11.4481 11.342 11.8292 10.9142 12.1576 10.4221C12.5797 9.77754 12.867 9.08614 13.0195 8.34788C13.1836 7.60961 13.21 6.88013 13.0986 6.15945C12.9872 5.43876 12.7498 4.7503 12.3862 4.09406C12.0227 3.43782 11.5361 2.86362 10.9263 2.37144C10.3165 1.87926 9.65395 1.52185 8.93863 1.2992C8.22331 1.06483 7.50213 0.968147 6.77508 1.00916C6.04804 1.05018 5.33858 1.21717 4.64672 1.51013C3.95485 1.80309 3.32748 2.22496 2.76461 2.77573C2.36591 3.18587 2.02584 3.6429 1.7444 4.14679C1.47469 4.63897 1.27827 5.15751 1.15514 5.70243C1.03201 6.24734 0.982176 6.80103 1.00563 7.36352C1.02908 7.93773 1.13462 8.49436 1.32225 9.03341ZM2.27209 7.08228C2.27209 6.44948 2.39522 5.83719 2.64148 5.2454C2.88774 4.65362 3.23367 4.13507 3.67928 3.68977C4.14834 3.22103 4.67603 2.86948 5.26236 2.63511C5.86042 2.40074 6.46726 2.28355 7.08291 2.28355C7.69855 2.28355 8.29953 2.40074 8.88586 2.63511C9.47219 2.86948 9.99988 3.22103 10.4689 3.68977C10.938 4.15851 11.2898 4.68584 11.5243 5.27177C11.7589 5.85769 11.8761 6.45827 11.8761 7.07349C11.8761 7.68871 11.7589 8.29514 11.5243 8.89279C11.2898 9.47871 10.938 10.006 10.4689 10.4748C9.99988 10.9435 9.47219 11.2951 8.88586 11.5295C8.29953 11.7638 7.69855 11.881 7.08291 11.881C6.46726 11.881 5.86042 11.7638 5.26236 11.5295C4.67603 11.2951 4.14834 10.9435 3.67928 10.4748C3.23367 10.0295 2.88774 9.51094 2.64148 8.91916C2.39522 8.32737 2.27209 7.71508 2.27209 7.08228ZM14.3211 12.0568L12.052 14.3243L16.2736 18.543C16.5902 18.8477 16.9684 19 17.4081 19C17.8479 19 18.226 18.8418 18.5427 18.5254C18.8476 18.2207 19 17.8487 19 17.4092C19 16.9698 18.8476 16.5918 18.5427 16.2754L14.3211 12.0568ZM11.2429 12.338C11.2194 12.3615 11.196 12.382 11.1725 12.3996C11.1491 12.4171 11.1256 12.4376 11.1022 12.4611L12.052 13.4103L13.4064 12.0568L12.4566 11.1076C12.4331 11.131 12.4126 11.1545 12.395 11.1779C12.3774 11.2013 12.3569 11.2248 12.3335 11.2482C12.31 11.2716 12.2924 11.2951 12.2807 11.3185C12.269 11.342 12.2514 11.3654 12.2279 11.3888C12.1693 11.4591 12.1048 11.5324 12.0344 11.6086C11.9641 11.6847 11.8937 11.758 11.8234 11.8283C11.753 11.8986 11.6797 11.9689 11.6035 12.0392C11.5273 12.1095 11.4481 12.174 11.366 12.2326C11.3543 12.256 11.3367 12.2765 11.3133 12.2941C11.2898 12.3117 11.2663 12.3263 11.2429 12.338Z" fill="#B7C2D1" stroke="#B7C2D1" stroke-width="0.4"/>
</svg>
