<svg width="26" height="25" viewBox="0 0 26 25" fill="none" xmlns="http://www.w3.org/2000/svg">
<path fill-rule="evenodd" clip-rule="evenodd" d="M25.013 12.5C25.013 19.4036 19.4137 25 12.5065 25C5.59936 25 0 19.4036 0 12.5C0 5.59644 5.59936 0 12.5065 0C19.4137 0 25.013 5.59644 25.013 12.5ZM12.9548 9.22844C11.7383 9.73414 9.30714 10.7808 5.66124 12.3684C5.0692 12.6037 4.75906 12.8339 4.73083 13.059C4.68312 13.4395 5.15975 13.5892 5.80879 13.7932C5.89708 13.821 5.98855 13.8497 6.08233 13.8802C6.7209 14.0877 7.57987 14.3304 8.02642 14.34C8.43148 14.3488 8.88358 14.1818 9.3827 13.8393C12.7892 11.541 14.5476 10.3794 14.658 10.3543C14.7359 10.3366 14.8438 10.3144 14.917 10.3794C14.9901 10.4444 14.9829 10.5674 14.9752 10.6004C14.9279 10.8016 13.057 12.5401 12.0888 13.4397C11.7869 13.7202 11.5728 13.9192 11.5291 13.9646C11.431 14.0664 11.3311 14.1627 11.2351 14.2552C10.6418 14.8268 10.197 15.2554 11.2597 15.9554C11.7704 16.2918 12.1791 16.5699 12.5868 16.8474C13.032 17.1505 13.4761 17.4527 14.0507 17.8292C14.1971 17.9251 14.3369 18.0247 14.4731 18.1218C14.9913 18.491 15.4568 18.8227 16.0319 18.7698C16.3661 18.7391 16.7113 18.425 16.8866 17.4883C17.301 15.2745 18.1154 10.4779 18.3036 8.50141C18.3201 8.32824 18.2993 8.10661 18.2827 8.00932C18.266 7.91203 18.2312 7.77342 18.1047 7.67081C17.9548 7.54928 17.7235 7.52366 17.62 7.52548C17.1496 7.53376 16.4279 7.78458 12.9548 9.22844Z" fill="white"/>
</svg>
